<svg width="28" height="32" viewBox="0 0 28 32" fill="none" xmlns="http://www.w3.org/2000/svg">
<path fill-rule="evenodd" clip-rule="evenodd" d="M27.9912 19.1381C27.9912 17.5019 26.8275 16.1376 25.2974 15.853V5.7762C25.2974 4.46895 24.6576 3.25701 23.586 2.53426C22.5795 1.85549 21.3299 1.70144 20.2 2.10614L16.4796 0.822528C13.6207 -0.1639 10.6115 -0.265095 7.77718 0.529785C4.06667 1.57042 1.93941 3.77097 1.61104 6.89899C1.32044 7.28856 1.08955 7.72609 0.932666 8.19819L0.644073 9.06641C0.489184 9.53255 0.659925 10.0224 1.06911 10.2853C1.47815 10.5483 1.98681 10.4951 2.33474 10.1529C2.45355 10.036 2.58348 9.93748 2.72022 9.85511V15.8531C1.19015 16.1377 0.0264435 17.5019 0.0264435 19.1382C0.0264435 20.8399 1.28504 22.2475 2.90555 22.4522C3.31252 24.7363 4.38193 26.8433 6.01711 28.5293C8.152 30.7306 10.9901 31.9429 14.0088 31.9429H14.0099C17.0248 31.9426 19.8592 30.749 21.991 28.5821C23.6563 26.8894 24.7372 24.761 25.1307 22.4498C26.7422 22.2366 27.9912 20.8332 27.9912 19.1381ZM22.931 3.53819C23.6819 4.04454 24.1125 4.86028 24.1125 5.77623V13.6587C22.2731 13.3681 20.8609 11.7475 20.8609 9.79769L20.8118 3.17482C21.5354 2.98094 22.29 3.10593 22.931 3.53819ZM2.0559 8.58379L1.94072 8.93021C3.00494 8.19 4.40865 8.15845 5.52213 8.89686C7.80079 10.4083 10.5278 10.9558 13.2009 10.4384C15.8114 9.93313 18.1022 8.46362 19.6729 6.29281L19.6267 3.18038L16.0991 1.96325C13.4658 1.05475 10.6974 0.960558 8.09287 1.69106C5.4699 2.42669 3.80279 3.74117 3.11398 5.60779C3.21642 5.55335 3.3205 5.50132 3.42753 5.45471C4.60331 4.94294 5.94279 4.96425 7.10228 5.51322C8.42457 6.13921 10.0232 5.80084 10.9897 4.69025L11.1365 4.52152C11.3533 4.27237 11.7278 4.2491 11.973 4.46949C12.2181 4.68988 12.2411 5.07056 12.0242 5.31971L11.8774 5.48845C10.5658 6.99553 8.39642 7.45483 6.6019 6.60528C5.74746 6.20073 4.76042 6.18507 3.89405 6.56214C3.02761 6.93921 2.35761 7.67612 2.0559 8.58379ZM1.21163 19.1381C1.21163 18.1696 1.84933 17.3501 2.72022 17.0894V20.3543C2.72022 20.6363 2.73022 20.9168 2.7497 21.1955C1.86385 20.9445 1.21163 20.1175 1.21163 19.1381ZM14.0099 30.738C16.7082 30.7377 19.245 29.6695 21.153 27.7301C23.0613 25.7904 24.1122 23.2114 24.1121 20.4681V14.8732C21.6173 14.574 19.6753 12.4126 19.6753 9.79759V8.16303C18.0075 9.94561 15.8376 11.1543 13.4221 11.6219C10.4464 12.1979 7.41067 11.5884 4.87393 9.90578C4.57407 9.70693 4.24104 9.59655 3.90541 9.5711V20.3542C3.90541 23.1152 4.95511 25.7182 6.86111 27.6835C8.77141 29.6531 11.3101 30.738 14.0088 30.738H14.0099ZM25.2745 21.1935C25.2892 20.953 25.2974 20.7112 25.2974 20.4682V17.0894C26.1683 17.3501 26.806 18.1696 26.806 19.1381C26.806 20.1151 26.1571 20.9404 25.2745 21.1935ZM7.87353 16.1035C7.26768 16.1035 6.69805 16.3433 6.2696 16.7788C6.03812 17.0141 6.03812 17.3954 6.2696 17.6307C6.50109 17.866 6.87627 17.8659 7.1076 17.6307C7.3122 17.4228 7.5842 17.3082 7.87353 17.3082C8.16286 17.3082 8.43486 17.4228 8.63946 17.6307C8.75516 17.7483 8.90679 17.8072 9.05849 17.8071C9.21012 17.8071 9.36183 17.7483 9.47753 17.6307C9.70901 17.3955 9.70901 17.0141 9.47753 16.7788C9.04901 16.3434 8.47938 16.1035 7.87353 16.1035ZM8.9823 19.7192C8.9823 20.3419 8.4857 20.8467 7.87311 20.8467C7.26052 20.8467 6.76393 20.3419 6.76393 19.7192C6.76393 19.0966 7.26052 18.5918 7.87311 18.5918C8.4857 18.5918 8.9823 19.0966 8.9823 19.7192ZM21.2538 19.7192C21.2538 20.3419 20.7572 20.8467 20.1446 20.8467C19.532 20.8467 19.0354 20.3419 19.0354 19.7192C19.0354 19.0966 19.532 18.5918 20.1446 18.5918C20.7572 18.5918 21.2538 19.0966 21.2538 19.7192ZM18.5406 17.6307C18.3091 17.3954 18.3091 17.0141 18.5406 16.7789C19.4251 15.8799 20.8642 15.88 21.7485 16.7789C21.98 17.0142 21.98 17.3955 21.7485 17.6307C21.6328 17.7483 21.4812 17.8071 21.3295 17.8071C21.1778 17.8071 21.0261 17.7483 20.9104 17.6307C20.4881 17.2015 19.8009 17.2014 19.3786 17.6307C19.1472 17.866 18.772 17.866 18.5406 17.6307ZM15.1505 24.5064C14.8456 24.8162 14.4403 24.9869 14.0091 24.9869C13.578 24.9869 13.1727 24.8163 12.8679 24.5064C12.6365 24.2712 12.2613 24.2712 12.0299 24.5064C11.7984 24.7416 11.7984 25.123 12.0299 25.3583C12.5585 25.8957 13.2615 26.1916 14.0092 26.1916C14.7569 26.1916 15.4599 25.8956 15.9885 25.3583C16.22 25.123 16.22 24.7417 15.9885 24.5064C15.757 24.2712 15.3819 24.2712 15.1505 24.5064Z" fill="white"/>
</svg>
