<svg width="11" height="16" viewBox="0 0 11 16" fill="none" xmlns="http://www.w3.org/2000/svg">
<path d="M5.59188 15.18C4.45854 15.18 3.43188 15.04 2.51188 14.76C1.59188 14.4667 0.791875 14.0533 0.111875 13.52L0.811875 11.88C1.26521 12.2267 1.73188 12.5133 2.21188 12.74C2.70521 12.9667 3.22521 13.14 3.77188 13.26C4.33188 13.3667 4.93854 13.42 5.59188 13.42C6.71188 13.42 7.53188 13.22 8.05188 12.82C8.58521 12.42 8.85188 11.8933 8.85188 11.24C8.85188 10.68 8.66521 10.2467 8.29188 9.94C7.93188 9.63333 7.29188 9.38667 6.37188 9.2L4.19188 8.76C2.89854 8.49333 1.93188 8.06 1.29188 7.46C0.665208 6.84667 0.351875 6.01333 0.351875 4.96C0.351875 4.10667 0.578542 3.36 1.03188 2.72C1.48521 2.08 2.11188 1.58667 2.91188 1.24C3.72521 0.893333 4.67188 0.719999 5.75188 0.719999C6.75188 0.719999 7.67188 0.866666 8.51188 1.16C9.35188 1.44 10.0585 1.86 10.6319 2.42L9.95188 4C9.35188 3.48 8.71188 3.1 8.03188 2.86C7.35188 2.60667 6.57854 2.48 5.71188 2.48C4.68521 2.48 3.87854 2.69333 3.29188 3.12C2.71854 3.54667 2.43188 4.12667 2.43188 4.86C2.43188 5.44667 2.61188 5.90667 2.97188 6.24C3.34521 6.57333 3.95854 6.82667 4.81188 7L6.99188 7.42C8.33854 7.7 9.33188 8.13333 9.97188 8.72C10.6119 9.29333 10.9319 10.0867 10.9319 11.1C10.9319 11.9133 10.7119 12.6267 10.2719 13.24C9.84521 13.8533 9.23188 14.3333 8.43188 14.68C7.63188 15.0133 6.68521 15.18 5.59188 15.18Z" fill="#9393AA"/>
</svg>
