<svg width="40" height="40" viewBox="0 0 40 40" fill="none" xmlns="http://www.w3.org/2000/svg">
<path d="M36.3513 14.1133H3.6485C2.82814 14.1133 2.16211 14.7793 2.16211 15.5997V33.3781C2.16211 35.8368 4.16293 37.8376 6.62156 37.8376H33.3783C35.8369 37.8376 37.8377 35.8368 37.8377 33.3781V15.5997C37.8377 14.7793 37.1717 14.1133 36.3513 14.1133Z" fill="url(#paint0_linear_2736_16486)"/>
<path d="M33.3783 6.62158H6.62156C4.15857 6.62158 2.16211 8.60485 2.16211 11.0516V15.5405H37.8377V11.0516C37.8377 8.60485 35.8412 6.62158 33.3783 6.62158Z" fill="url(#paint1_linear_2736_16486)"/>
<path d="M10.8695 2.16211H9.38315C8.56252 2.16211 7.89648 2.82814 7.89648 3.6485V9.59462C7.89648 10.415 8.56252 11.081 9.38315 11.081H10.8695C11.6902 11.081 12.3559 10.415 12.3559 9.59462V3.6485C12.3559 2.82814 11.6902 2.16211 10.8695 2.16211Z" fill="#E0E0E0"/>
<path d="M30.6173 2.16211H29.1309C28.3103 2.16211 27.6445 2.82814 27.6445 3.6485V9.59462C27.6445 10.415 28.3103 11.081 29.1309 11.081H30.6173C31.4379 11.081 32.104 10.415 32.104 9.59462V3.6485C32.104 2.82814 31.4379 2.16211 30.6173 2.16211Z" fill="#E0E0E0"/>
<path opacity="0.5" d="M28 25.5C28 29.6422 24.6422 33 20.5 33C16.3578 33 13 29.6422 13 25.5C13 21.3578 16.3578 18 20.5 18C24.6422 18 28 21.3578 28 25.5Z" fill="white"/>
<path d="M16 24H25V27H16V24Z" fill="white"/>
<defs>
<linearGradient id="paint0_linear_2736_16486" x1="2.16211" y1="14.1133" x2="2.16211" y2="37.8376" gradientUnits="userSpaceOnUse">
<stop stop-color="#3ECFFA"/>
<stop offset="1" stop-color="#1DA1F2"/>
</linearGradient>
<linearGradient id="paint1_linear_2736_16486" x1="19.9999" y1="19.9999" x2="24.197" y2="3.21141" gradientUnits="userSpaceOnUse">
<stop stop-color="#12B2B3"/>
<stop offset="1" stop-color="#56E0E0"/>
</linearGradient>
</defs>
</svg>
