<svg width="22" height="19" viewBox="0 0 22 19" fill="none" xmlns="http://www.w3.org/2000/svg">
<path fill-rule="evenodd" clip-rule="evenodd" d="M0 4C0 2.34315 1.34315 1 3 1H19C20.6569 1 22 2.34315 22 4V16C22 17.6569 20.6569 19 19 19H3C1.34315 19 0 17.6569 0 16V4ZM3 3C2.44772 3 2 3.44772 2 4V16C2 16.5523 2.44772 17 3 17H19C19.5523 17 20 16.5523 20 16V4C20 3.44772 19.5523 3 19 3H3Z" fill="#3093BB"/>
<path fill-rule="evenodd" clip-rule="evenodd" d="M0 4C0 2.34315 1.34315 1 3 1H19C20.6569 1 22 2.34315 22 4V7C22 7.55228 21.5523 8 21 8H1C0.447715 8 0 7.55228 0 7V4ZM3 3C2.44772 3 2 3.44772 2 4V6H20V4C20 3.44772 19.5523 3 19 3H3Z" fill="#3093BB"/>
<path fill-rule="evenodd" clip-rule="evenodd" d="M5 0V3.5H3V0H5Z" fill="#3093BB"/>
<path fill-rule="evenodd" clip-rule="evenodd" d="M12 0V3.5H10V0H12Z" fill="#3093BB"/>
<path fill-rule="evenodd" clip-rule="evenodd" d="M19 0V3.5H17V0H19Z" fill="#3093BB"/>
</svg>
