<svg width="40" height="40" viewBox="0 0 40 40" fill="none" xmlns="http://www.w3.org/2000/svg">
<path d="M25.8949 30.2378C25.6348 29.9036 25.1651 29.8176 24.8033 30.038C19.7052 33.1557 13.0423 31.5546 9.9213 26.462C6.80029 21.3693 8.40302 14.7136 13.5011 11.5959C14.7582 10.8271 16.1592 10.3229 17.6183 10.1143C18.0287 10.0554 18.3334 9.70423 18.3333 9.29015V2.49751C18.3333 2.03776 17.9602 1.66504 17.4999 1.66504C7.84998 1.66504 0 10.2542 0 20.8112C0.0119531 31.3804 8.58614 39.9454 19.1666 39.9573C23.0082 40.2555 26.8068 38.9857 29.6949 36.4378C30.0433 36.1514 30.1002 35.6399 29.8233 35.284L25.8949 30.2378Z" fill="url(#paint0_linear_2736_16526)"/>
<path d="M20.8334 8.32444C26.8133 8.33177 31.6593 13.1725 31.6667 19.1462C31.6667 19.6059 32.0398 19.9787 32.5 19.9787H39.1667C39.6269 19.9787 40 19.6059 40 19.1462C39.988 8.57698 31.4138 0.0119403 20.8334 0C20.3731 0 20 0.372725 20 0.832467V7.49197C20 7.95171 20.3731 8.32444 20.8334 8.32444Z" fill="url(#paint1_linear_2736_16526)"/>
<path d="M39.1665 21.6431H32.3682C31.9504 21.6389 31.5941 21.9443 31.5348 22.3573C31.1594 24.9784 29.8332 27.3703 27.8082 29.0785C27.4581 29.3713 27.409 29.8909 27.6982 30.2439L32.6782 36.4039C32.8235 36.584 33.0372 36.6956 33.2682 36.712H33.3332C33.544 36.7121 33.7471 36.6324 33.9015 36.4888C37.7857 32.8604 39.9931 27.7879 39.9999 22.4756C39.9999 22.0158 39.6268 21.6431 39.1665 21.6431Z" fill="#E0E0E0"/>
<defs>
<linearGradient id="paint0_linear_2736_16526" x1="0" y1="1.66504" x2="0" y2="40.0001" gradientUnits="userSpaceOnUse">
<stop stop-color="#3ECFFA"/>
<stop offset="1" stop-color="#1DA1F2"/>
</linearGradient>
<linearGradient id="paint1_linear_2736_16526" x1="30" y1="29.968" x2="49.9787" y2="9.96799" gradientUnits="userSpaceOnUse">
<stop stop-color="#12B2B3"/>
<stop offset="1" stop-color="#56E0E0"/>
</linearGradient>
</defs>
</svg>
