<svg width="22" height="22" viewBox="0 0 22 22" fill="none" xmlns="http://www.w3.org/2000/svg">
<path fill-rule="evenodd" clip-rule="evenodd" d="M7.79102 9.62565C7.79102 8.36 8.81703 7.33398 10.0827 7.33398H13.291V9.16732H10.0827C9.82955 9.16732 9.62435 9.37252 9.62435 9.62565C9.62435 9.87878 9.82955 10.084 10.0827 10.084H11.916C13.1817 10.084 14.2077 11.11 14.2077 12.3757C14.2077 13.6413 13.1817 14.6673 11.916 14.6673H8.70768V12.834H11.916C12.1691 12.834 12.3743 12.6288 12.3743 12.3757C12.3743 12.1225 12.1691 11.9173 11.916 11.9173H10.0827C8.81703 11.9173 7.79102 10.8913 7.79102 9.62565Z" fill="#3093BB"/>
<path fill-rule="evenodd" clip-rule="evenodd" d="M10.082 16.0417V13.75H11.9154V16.0417H10.082Z" fill="#3093BB"/>
<path fill-rule="evenodd" clip-rule="evenodd" d="M10.082 8.25065V5.95898H11.9154V8.25065H10.082Z" fill="#3093BB"/>
<path fill-rule="evenodd" clip-rule="evenodd" d="M10.9993 2.75033C6.443 2.75033 2.74935 6.44398 2.74935 11.0003C2.74935 15.5567 6.443 19.2503 10.9993 19.2503C15.5557 19.2503 19.2494 15.5567 19.2494 11.0003C19.2494 6.44398 15.5557 2.75033 10.9993 2.75033ZM0.916016 11.0003C0.916016 5.43145 5.43048 0.916992 10.9993 0.916992C16.5682 0.916992 21.0827 5.43145 21.0827 11.0003C21.0827 16.5692 16.5682 21.0837 10.9993 21.0837C5.43048 21.0837 0.916016 16.5692 0.916016 11.0003Z" fill="#3093BB"/>
</svg>
