<svg width="20" height="18" viewBox="0 0 20 18" fill="none" xmlns="http://www.w3.org/2000/svg">
<path fill-rule="evenodd" clip-rule="evenodd" d="M0.833984 3.5C0.833984 1.98122 2.0652 0.75 3.58398 0.75H16.4173C17.9361 0.75 19.1673 1.98122 19.1673 3.5V16.3333C19.1673 16.6714 18.9812 16.982 18.6832 17.1415C18.3851 17.3011 18.0235 17.2836 17.7422 17.096L13.8481 14.5H3.58398C2.0652 14.5 0.833984 13.2688 0.833984 11.75V3.5ZM3.58398 2.58333C3.07772 2.58333 2.66732 2.99374 2.66732 3.5V11.75C2.66732 12.2563 3.07772 12.6667 3.58398 12.6667H14.1257C14.3066 12.6667 14.4835 12.7202 14.6341 12.8206L17.334 14.6205V3.5C17.334 2.99374 16.9236 2.58333 16.4173 2.58333H3.58398Z" fill="#9393AA"/>
<path fill-rule="evenodd" clip-rule="evenodd" d="M3.58398 7.62533C3.58398 6.6128 4.4048 5.79199 5.41732 5.79199C6.42984 5.79199 7.25065 6.6128 7.25065 7.62533C7.25065 8.63785 6.42984 9.45866 5.41732 9.45866C4.4048 9.45866 3.58398 8.63785 3.58398 7.62533Z" fill="#9393AA"/>
<path fill-rule="evenodd" clip-rule="evenodd" d="M8.16797 7.62533C8.16797 6.6128 8.98878 5.79199 10.0013 5.79199C11.0138 5.79199 11.8346 6.6128 11.8346 7.62533C11.8346 8.63785 11.0138 9.45866 10.0013 9.45866C8.98878 9.45866 8.16797 8.63785 8.16797 7.62533Z" fill="#9393AA"/>
<path fill-rule="evenodd" clip-rule="evenodd" d="M12.75 7.62533C12.75 6.6128 13.5708 5.79199 14.5833 5.79199C15.5959 5.79199 16.4167 6.6128 16.4167 7.62533C16.4167 8.63785 15.5959 9.45866 14.5833 9.45866C13.5708 9.45866 12.75 8.63785 12.75 7.62533Z" fill="#9393AA"/>
</svg>
