<svg width="18" height="18" viewBox="0 0 18 18" fill="none" xmlns="http://www.w3.org/2000/svg">
<path fill-rule="evenodd" clip-rule="evenodd" d="M4.83637 2.6266C4.77868 2.56891 4.68514 2.56891 4.62744 2.6266L3.35222 3.90182C2.57858 4.67547 2.36598 5.84786 2.81872 6.84389C4.49857 10.5396 7.46048 13.5015 11.1561 15.1813C12.1522 15.634 13.3246 15.4214 14.0982 14.6478L15.3734 13.3726C15.4311 13.3149 15.4311 13.2213 15.3734 13.1637L13.658 11.4482C13.613 11.4032 13.5443 11.3921 13.4874 11.4205L12.5354 11.8965C11.3629 12.4828 9.94687 12.253 9.01994 11.3261L6.67397 8.98008C5.74705 8.05316 5.51726 6.6371 6.10349 5.46463L6.57951 4.5126C6.60795 4.45573 6.5968 4.38703 6.55184 4.34207L4.83637 2.6266ZM3.33108 1.33024C4.10474 0.556586 5.35908 0.556586 6.13274 1.33024L7.8482 3.0457C8.45116 3.64866 8.60064 4.5698 8.21929 5.33249L7.74328 6.28452C7.50995 6.75118 7.60141 7.31479 7.97034 7.68372L10.3163 10.0297C10.6852 10.3986 11.2488 10.4901 11.7155 10.2567L12.6675 9.78073C13.4302 9.39939 14.3514 9.54887 14.9543 10.1518L16.6698 11.8673C17.4434 12.6409 17.4434 13.8953 16.6698 14.6689L15.3946 15.9442C14.0805 17.2582 12.0892 17.6193 10.3975 16.8503C6.29831 14.987 3.01299 11.7017 1.14972 7.60253C0.380744 5.91078 0.741836 3.91949 2.05586 2.60546L3.33108 1.33024Z" fill="#9393AA"/>
</svg>
