<svg width="22" height="22" viewBox="0 0 22 22" fill="none" xmlns="http://www.w3.org/2000/svg">
<path fill-rule="evenodd" clip-rule="evenodd" d="M1.39648 2.70602C1.39648 2.22387 1.78735 1.83301 2.2695 1.83301H9.69014C10.1723 1.83301 10.5632 2.22387 10.5632 2.70602V9.69015C10.5632 10.1723 10.1723 10.5632 9.69014 10.5632H2.2695C1.78735 10.5632 1.39648 10.1723 1.39648 9.69015V2.70602ZM3.14252 3.57904V8.81713H8.81712V3.57904H3.14252Z" fill="#9393AA"/>
<path fill-rule="evenodd" clip-rule="evenodd" d="M1.39648 12.3095C1.39648 11.8274 1.78735 11.4365 2.2695 11.4365H9.69014C10.1723 11.4365 10.5632 11.8274 10.5632 12.3095V19.2937C10.5632 19.7758 10.1723 20.1667 9.69014 20.1667H2.2695C1.78735 20.1667 1.39648 19.7758 1.39648 19.2937V12.3095ZM3.14252 13.1826V18.4206H8.81712V13.1826H3.14252Z" fill="#9393AA"/>
<path fill-rule="evenodd" clip-rule="evenodd" d="M11.4355 2.70602C11.4355 2.22387 11.8264 1.83301 12.3086 1.83301H19.7292C20.2114 1.83301 20.6022 2.22387 20.6022 2.70602V9.69015C20.6022 10.1723 20.2114 10.5632 19.7292 10.5632H12.3086C11.8264 10.5632 11.4355 10.1723 11.4355 9.69015V2.70602ZM13.1816 3.57904V8.81713H18.8562V3.57904H13.1816Z" fill="#9393AA"/>
<path fill-rule="evenodd" clip-rule="evenodd" d="M11.4355 12.3095C11.4355 11.8274 11.8264 11.4365 12.3086 11.4365H19.7292C20.2114 11.4365 20.6022 11.8274 20.6022 12.3095V19.2937C20.6022 19.7758 20.2114 20.1667 19.7292 20.1667H12.3086C11.8264 20.1667 11.4355 19.7758 11.4355 19.2937V12.3095ZM13.1816 13.1826V18.4206H18.8562V13.1826H13.1816Z" fill="#9393AA"/>
</svg>
