<svg width="22" height="18" viewBox="0 0 22 18" fill="none" xmlns="http://www.w3.org/2000/svg">
<path fill-rule="evenodd" clip-rule="evenodd" d="M0.916016 3.95847C0.916016 3.4302 1.32642 3.00195 1.83268 3.00195H20.166C20.6723 3.00195 21.0827 3.4302 21.0827 3.95847V16.7918C21.0827 17.3201 20.6723 17.7483 20.166 17.7483H1.83268C1.32642 17.7483 0.916016 17.3201 0.916016 16.7918V3.95847ZM2.74935 4.915V15.8353H19.2494V4.915H2.74935Z" fill="#9393AA"/>
<path fill-rule="evenodd" clip-rule="evenodd" d="M9.6237 2.165C9.37057 2.165 9.16536 2.37912 9.16536 2.64326V3.95848H7.33203V2.64326C7.33203 1.32258 8.35805 0.251953 9.6237 0.251953H12.3737C13.6394 0.251953 14.6654 1.32258 14.6654 2.64326V3.95848H12.832V2.64326C12.832 2.37912 12.6268 2.165 12.3737 2.165H9.6237Z" fill="#9393AA"/>
<path fill-rule="evenodd" clip-rule="evenodd" d="M10.082 13.125V7.625H11.9154V13.125H10.082Z" fill="#9393AA"/>
<path fill-rule="evenodd" clip-rule="evenodd" d="M13.75 11.332H8.25V9.41899H13.75V11.332Z" fill="#9393AA"/>
</svg>
