<svg width="20" height="20" viewBox="0 0 20 20" fill="none" xmlns="http://www.w3.org/2000/svg">
<path d="M8.08934 6.91058C7.7639 6.58514 7.23626 6.58514 6.91083 6.91058C6.58539 7.23602 6.58539 7.76366 6.91083 8.08909L8.82159 9.99986L6.91085 11.9106C6.58541 12.236 6.58541 12.7637 6.91085 13.0891C7.23629 13.4146 7.76392 13.4146 8.08936 13.0891L10.0001 11.1784L11.9108 13.0891C12.2363 13.4145 12.7639 13.4145 13.0893 13.0891C13.4148 12.7637 13.4148 12.236 13.0893 11.9106L11.1786 9.99987L13.0894 8.08912C13.4148 7.76368 13.4148 7.23604 13.0894 6.91061C12.7639 6.58517 12.2363 6.58517 11.9109 6.91061L10.0001 8.82135L8.08934 6.91058Z" fill="#6F767E"/>
<path fill-rule="evenodd" clip-rule="evenodd" d="M10.0001 16.6665C13.682 16.6665 16.6667 13.6817 16.6667 9.99984C16.6667 6.31794 13.682 3.33317 10.0001 3.33317C6.31818 3.33317 3.33341 6.31794 3.33341 9.99984C3.33341 13.6817 6.31818 16.6665 10.0001 16.6665ZM10.0001 18.3332C14.6025 18.3332 18.3334 14.6022 18.3334 9.99984C18.3334 5.39746 14.6025 1.6665 10.0001 1.6665C5.39771 1.6665 1.66675 5.39746 1.66675 9.99984C1.66675 14.6022 5.39771 18.3332 10.0001 18.3332Z" fill="#6F767E"/>
</svg>
