<svg width="40" height="40" viewBox="0 0 40 40" fill="none" xmlns="http://www.w3.org/2000/svg">
<path d="M33.5572 19.9997L29.666 22.7904V17.209L33.5572 19.9997Z" fill="white"/>
<path fill-rule="evenodd" clip-rule="evenodd" d="M30.7141 5.71411V3.80952C30.7141 1.70558 29.0619 0 27.0237 0H12.2618C10.2236 0 8.57129 1.70558 8.57129 3.80952V5.71411V5.71429V33.5713H9.99986V5.71429H29.2858V33.5713H30.7144V5.71411H30.7141ZM30.7141 36.4289V33.5718H8.57129V36.4289C8.57129 38.4014 10.2236 40.0003 12.2618 40.0003H27.0237C29.0619 40.0003 30.7141 38.4014 30.7141 36.4289Z" fill="url(#paint0_linear_2736_16497)"/>
<path d="M29.2857 33.571H10L10 5.71387H29.2857V10.673C25.6854 10.6632 23.838 12.7798 22.3279 16.0913C20.8178 19.4029 21.3504 23.3023 23.6913 26.0739L22.1542 29.7336L27.5119 28.7839C28.5365 29.1703 28.1924 29.3685 29.2857 29.3691V33.571Z" fill="#F6F6F6"/>
<path d="M21.0276 36.7861C21.0276 36.0464 20.408 35.4468 19.6437 35.4468C18.8794 35.4468 18.2598 36.0464 18.2598 36.7861C18.2598 37.5257 18.8794 38.1253 19.6437 38.1253C20.4079 38.1251 21.0274 37.5256 21.0276 36.7861Z" fill="#12B2B3"/>
<path d="M30.708 10.7139C34.4212 10.7096 37.7795 12.9243 39.2453 16.3441C40.7111 19.7638 40.0021 23.7302 37.4431 26.4271C34.8841 29.1241 30.9676 30.0324 27.4869 28.7362L22.0979 29.6813L23.6439 26.0395C21.2968 23.2794 20.7654 19.4029 22.283 16.1105C23.8005 12.8182 27.0899 10.7112 30.708 10.7139Z" fill="url(#paint1_linear_2736_16497)"/>
<path fill-rule="evenodd" clip-rule="evenodd" d="M30.7141 15.2378C29.4933 15.2413 28.3205 15.7135 27.4379 16.5568V15.714C27.4378 15.451 27.2246 15.2379 26.9617 15.2379C26.6987 15.2379 26.4855 15.451 26.4855 15.714V17.8568C26.4855 18.1198 26.6987 18.333 26.9617 18.333H29.1045C29.3675 18.333 29.5807 18.1198 29.5807 17.8568C29.5807 17.5938 29.3675 17.3807 29.1045 17.3807H27.9617C29.2246 16.0609 31.2466 15.8233 32.781 16.8145C34.3155 17.8056 34.9304 19.7464 34.2466 21.4404C33.5629 23.1343 31.773 24.1044 29.9805 23.7527C28.188 23.401 26.8974 21.8264 26.9045 19.9997C26.9045 19.7367 26.6913 19.5235 26.4283 19.5235C26.1653 19.5235 25.9521 19.7367 25.9521 19.9997C25.9521 22.6296 28.0841 24.7616 30.7141 24.7616C33.344 24.7616 35.476 22.6296 35.476 19.9997C35.476 17.3698 33.344 15.2378 30.7141 15.2378ZM30.7138 18.5715C30.4508 18.5715 30.2376 18.7847 30.2376 19.0477V20.4763C30.2376 20.7393 30.4508 20.9525 30.7138 20.9525H31.6662C31.9292 20.9525 32.1424 20.7393 32.1424 20.4763C32.1424 20.2133 31.9292 20.0001 31.6662 20.0001H31.19V19.0477C31.19 18.7847 30.9768 18.5715 30.7138 18.5715Z" fill="white"/>
<path d="M0.714286 22.1431H13.5714C13.9659 22.1431 14.2857 21.8233 14.2857 21.4289V9.28599C14.2857 8.8915 13.9659 8.57171 13.5714 8.57171H10.7143C10.7143 8.17722 10.3945 7.85742 10 7.85742C9.60551 7.85742 9.28571 8.17722 9.28571 8.57171H5C5 8.17722 4.6802 7.85742 4.28571 7.85742C3.89123 7.85742 3.57143 8.17722 3.57143 8.57171H0.714286C0.319797 8.57171 9.24584e-09 8.8915 0 9.28599V21.4289C0 21.8233 0.319797 22.1431 0.714286 22.1431Z" fill="url(#paint2_linear_2736_16497)"/>
<path d="M0 12.1426L14.2857 12.1426V13.5711H0V12.1426Z" fill="white"/>
<path d="M6.88488 19.0627C6.67214 19.2755 6.3479 19.3087 6.1005 19.1626C6.0546 19.1355 6.01146 19.1022 5.97206 19.063L4.47405 17.6939C4.22219 17.4418 4.22219 17.0333 4.47405 16.7812C4.72609 16.5291 5.13473 16.5291 5.38677 16.7812L6.42839 17.6939L8.91861 15.189C9.17057 14.937 9.57929 14.937 9.83125 15.189C10.0832 15.4411 10.0832 15.8496 9.83115 16.1016L6.88488 19.0627Z" fill="white"/>
<defs>
<linearGradient id="paint0_linear_2736_16497" x1="19.6429" y1="60.0002" x2="53.5413" y2="41.2347" gradientUnits="userSpaceOnUse">
<stop stop-color="#12B2B3"/>
<stop offset="1" stop-color="#56E0E0"/>
</linearGradient>
<linearGradient id="paint1_linear_2736_16497" x1="21.4277" y1="10.7139" x2="21.4277" y2="29.6813" gradientUnits="userSpaceOnUse">
<stop stop-color="#3ECFFA"/>
<stop offset="1" stop-color="#1DA1F2"/>
</linearGradient>
<linearGradient id="paint2_linear_2736_16497" x1="0" y1="7.85742" x2="0" y2="22.1431" gradientUnits="userSpaceOnUse">
<stop stop-color="#3ECFFA"/>
<stop offset="1" stop-color="#1DA1F2"/>
</linearGradient>
</defs>
</svg>
