<svg width="22" height="22" viewBox="0 0 22 22" fill="none" xmlns="http://www.w3.org/2000/svg">
<rect opacity="0.01" width="22" height="22" fill="#1E1F20"/>
<path fill-rule="evenodd" clip-rule="evenodd" d="M11.6495 3.93548C11.9799 4.26592 12.0053 4.78588 11.7257 5.14548L11.6495 5.23184L6.79839 10.0837H17.418C17.9242 10.0837 18.3346 10.4941 18.3346 11.0003C18.3346 11.4704 17.9808 11.8579 17.5249 11.9108L17.418 11.917H6.79839L11.6495 16.7688C11.9799 17.0993 12.0053 17.6192 11.7257 17.9788L11.6495 18.0652C11.319 18.3956 10.7991 18.421 10.4395 18.1414L10.3531 18.0652L3.93645 11.6485C3.90401 11.6161 3.87451 11.5818 3.84794 11.546L3.78225 11.444L3.73326 11.3407L3.70083 11.2442L3.67807 11.1364L3.67161 11.0826L3.66797 11.0003L3.67052 10.9314L3.68652 10.8163L3.71356 10.7142L3.75384 10.6124L3.8018 10.523L3.8602 10.4385L3.93645 10.3521L10.3531 3.93548C10.7111 3.5775 11.2915 3.5775 11.6495 3.93548Z" fill="#1E1F20"/>
</svg>
