<svg className="profile_option_icon tab-title active" width="22" height="22" viewBox="0 0 22 22" fill="none" xmlns="http://www.w3.org/2000/svg">
    <path fill-rule="evenodd" clip-rule="evenodd" d="M0.916016 17.4167C0.916016 16.9104 1.32642 16.5 1.83268 16.5H20.166C20.6723 16.5 21.0827 16.9104 21.0827 17.4167V20.1667C21.0827 20.6729 20.6723 21.0833 20.166 21.0833H1.83268C1.32642 21.0833 0.916016 20.6729 0.916016 20.1667V17.4167ZM2.74935 18.3333V19.25H19.2494V18.3333H2.74935Z" fill="#3093BB" />
    <path fill-rule="evenodd" clip-rule="evenodd" d="M14.666 7.33366C14.666 6.8274 15.0764 6.41699 15.5827 6.41699H18.3327C18.8389 6.41699 19.2493 6.8274 19.2493 7.33366V17.417C19.2493 17.9233 18.8389 18.3337 18.3327 18.3337H15.5827C15.0764 18.3337 14.666 17.9233 14.666 17.417V7.33366ZM16.4993 8.25033V16.5003H17.416V8.25033H16.4993Z" fill="#3093BB" />
    <path fill-rule="evenodd" clip-rule="evenodd" d="M8.70703 7.33366C8.70703 6.8274 9.11744 6.41699 9.6237 6.41699H12.3737C12.88 6.41699 13.2904 6.8274 13.2904 7.33366V17.417C13.2904 17.9233 12.88 18.3337 12.3737 18.3337H9.6237C9.11744 18.3337 8.70703 17.9233 8.70703 17.417V7.33366ZM10.5404 8.25033V16.5003H11.457V8.25033H10.5404Z" fill="#3093BB" />
    <path fill-rule="evenodd" clip-rule="evenodd" d="M2.75 7.33366C2.75 6.8274 3.16041 6.41699 3.66667 6.41699H6.41667C6.92293 6.41699 7.33333 6.8274 7.33333 7.33366V17.417C7.33333 17.9233 6.92293 18.3337 6.41667 18.3337H3.66667C3.16041 18.3337 2.75 17.9233 2.75 17.417V7.33366ZM4.58333 8.25033V16.5003H5.5V8.25033H4.58333Z" fill="#3093BB" />
    <path fill-rule="evenodd" clip-rule="evenodd" d="M10.6589 0.982555C10.8775 0.895138 11.1212 0.895138 11.3398 0.982555L20.5065 4.64922C20.8545 4.78843 21.0827 5.1255 21.0827 5.50033V7.33366C21.0827 7.83992 20.6723 8.25033 20.166 8.25033H1.83268C1.32642 8.25033 0.916016 7.83992 0.916016 7.33366V5.50033C0.916016 5.1255 1.14422 4.78843 1.49224 4.64922L10.6589 0.982555ZM2.74935 6.12094V6.41699H19.2494V6.12094L10.9993 2.82094L2.74935 6.12094Z" fill="#3093BB" />
</svg>