<svg width="32" height="32" viewBox="0 0 32 32" fill="none" xmlns="http://www.w3.org/2000/svg">
<rect opacity="0.01" width="32" height="32" fill="black"/>
<path fill-rule="evenodd" clip-rule="evenodd" d="M28.8892 16.1749C25.067 12.5902 20.5337 10.6667 16.0003 10.6667C11.467 10.6667 6.93366 12.5902 3.11144 16.1749C2.84477 16.4372 2.66699 16.787 2.66699 17.2241C2.66699 17.6613 2.84477 18.011 3.11144 18.2733L5.7781 20.8963C6.31144 21.4208 7.3781 21.4208 7.91144 20.8963C8.71144 20.1094 9.68921 19.4973 10.667 18.9728C11.2003 18.7105 11.5559 18.1859 11.5559 17.5739V14.8635C13.2448 14.3389 14.667 14.164 16.0003 14.164C17.4225 14.164 18.8448 14.4263 20.4448 14.8635V17.5739C20.4448 18.1859 20.8003 18.7105 21.3337 18.9728C22.4003 19.4973 23.2892 20.1094 24.0892 20.8963C24.3559 21.1586 24.8003 21.3334 25.1559 21.3334C25.6003 21.3334 25.9559 21.1586 26.2225 20.8963L28.8892 18.2733C29.1559 18.011 29.3337 17.5739 29.3337 17.2241C29.3337 16.787 29.1559 16.4372 28.8892 16.1749Z" fill="white"/>
</svg>
