<svg width="18" height="18" viewBox="0 0 18 18" fill="none" xmlns="http://www.w3.org/2000/svg">
<g clip-path="url(#clip0_1051_9092)">
<path d="M16.0807 8.28768L9.18821 15.1802C8.34382 16.0246 7.19859 16.4989 6.00446 16.4989C4.81032 16.4989 3.66509 16.0246 2.82071 15.1802C1.97632 14.3358 1.50195 13.1906 1.50195 11.9964C1.50195 10.8023 1.97632 9.65707 2.82071 8.81268L9.71321 1.92018C10.2761 1.35726 11.0396 1.04102 11.8357 1.04102C12.6318 1.04102 13.3953 1.35726 13.9582 1.92018C14.5211 2.48311 14.8374 3.24659 14.8374 4.04268C14.8374 4.83878 14.5211 5.60226 13.9582 6.16518L7.05821 13.0577C6.77674 13.3391 6.395 13.4973 5.99696 13.4973C5.59891 13.4973 5.21717 13.3391 4.93571 13.0577C4.65424 12.7762 4.49612 12.3945 4.49612 11.9964C4.49612 11.5984 4.65424 11.2166 4.93571 10.9352L11.3032 4.57518" stroke="#96A0B5" stroke-width="2" stroke-linecap="round" stroke-linejoin="round"/>
</g>
<defs>
<clipPath id="clip0_1051_9092">
<rect width="18" height="18" fill="white"/>
</clipPath>
</defs>
</svg>
