<svg className="profile_option_icon tab-title" width="22" height="22" viewBox="0 0 22 22" fill="none" xmlns="http://www.w3.org/2000/svg">
    <path fill-rule="evenodd" clip-rule="evenodd" d="M10.9993 2.75033C6.443 2.75033 2.74935 6.44398 2.74935 11.0003C2.74935 15.5567 6.443 19.2503 10.9993 19.2503C15.5557 19.2503 19.2494 15.5567 19.2494 11.0003C19.2494 6.44398 15.5557 2.75033 10.9993 2.75033ZM0.916016 11.0003C0.916016 5.43145 5.43048 0.916992 10.9993 0.916992C16.5682 0.916992 21.0827 5.43145 21.0827 11.0003C21.0827 16.5692 16.5682 21.0837 10.9993 21.0837C5.43048 21.0837 0.916016 16.5692 0.916016 11.0003Z" fill="#9393aa" />
    <path fill-rule="evenodd" clip-rule="evenodd" d="M11.9154 10.7631V4.58398H10.082V11.0007C10.082 11.1564 10.1217 11.3096 10.1974 11.4458L12.4891 15.5708L14.0917 14.6805L11.9154 10.7631Z" fill="#9393aa" />
</svg>