<svg width="32" height="32" viewBox="0 0 32 32" fill="none" xmlns="http://www.w3.org/2000/svg">
<path fill-rule="evenodd" clip-rule="evenodd" d="M9.6 0H22.4C27.7019 0 32 4.29807 32 9.6V22.4C32 27.7019 27.7019 32 22.4 32H9.6C4.29807 32 0 27.7019 0 22.4V9.6C0 4.29807 4.29807 0 9.6 0Z" fill="#24B2B2"/>
<path fill-rule="evenodd" clip-rule="evenodd" d="M16.8008 7.2002V10.4002C16.8008 12.1675 18.2335 13.6002 20.0008 13.6002H23.2008V21.6002C23.2008 23.3675 21.7681 24.8002 20.0008 24.8002H12.0008C10.2335 24.8002 8.80078 23.3675 8.80078 21.6002V10.4002C8.80078 8.63288 10.2335 7.2002 12.0008 7.2002H16.8008ZM18.4008 7.66882V10.4002C18.4008 11.2839 19.1171 12.0002 20.0008 12.0002H22.7322L18.4008 7.66882ZM14.4008 15.9634C14.4008 15.3773 14.7234 14.8665 15.2008 14.5989V13.6002H16.8008V14.4002H17.2008V16.0002H16.1548L16.6181 16.1855C17.2116 16.4229 17.6008 16.9977 17.6008 17.6369C17.6008 18.2231 17.2782 18.7339 16.8008 19.0015V20.0002H15.2008V19.2002H14.8008V17.6002H15.8467L15.3835 17.4149C14.79 17.1775 14.4008 16.6027 14.4008 15.9634Z" fill="white"/>
</svg>
