<svg width="20" height="20" viewBox="0 0 20 20" fill="none" xmlns="http://www.w3.org/2000/svg">
<path fill-rule="evenodd" clip-rule="evenodd" d="M17.4993 9.99967C18.1085 9.43104 18.1084 9.43091 18.1083 9.43076L18.1079 9.43038L18.1069 9.4293L18.1037 9.42591L18.0927 9.41423L18.0526 9.37207C18.018 9.33589 17.9678 9.2839 17.9033 9.21835C17.7744 9.08732 17.5882 8.9018 17.3551 8.67991C16.8898 8.23708 16.2331 7.64478 15.4693 7.05037C14.7081 6.45793 13.8241 5.8505 12.9049 5.38805C11.9953 4.93045 10.989 4.58301 9.99935 4.58301C9.00968 4.58301 8.00344 4.93045 7.09383 5.38805C6.17456 5.8505 5.29064 6.45793 4.52941 7.05037C3.76564 7.64478 3.10889 8.23708 2.64364 8.67991C2.41053 8.9018 2.22428 9.08732 2.09539 9.21835C2.03091 9.2839 1.98071 9.33589 1.94609 9.37207L1.90598 9.41423L1.89498 9.42591L1.89179 9.4293L1.89079 9.43038L1.89043 9.43076C1.89029 9.43091 1.89017 9.43104 2.49935 9.99967L1.89017 9.43104C1.5913 9.75122 1.5913 10.2481 1.89017 10.5683L2.49935 9.99967C1.89017 10.5683 1.89029 10.5684 1.89043 10.5686L1.89079 10.569L1.89179 10.57L1.89498 10.5734L1.90598 10.5851L1.94609 10.6273C1.98071 10.6635 2.03091 10.7155 2.09539 10.781C2.22428 10.912 2.41053 11.0976 2.64364 11.3194C3.10889 11.7623 3.76564 12.3546 4.52941 12.949C5.29064 13.5414 6.17456 14.1489 7.09383 14.6113C8.00344 15.0689 9.00968 15.4163 9.99935 15.4163C10.989 15.4163 11.9953 15.0689 12.9049 14.6113C13.8241 14.1489 14.7081 13.5414 15.4693 12.949C16.2331 12.3546 16.8898 11.7623 17.3551 11.3194C17.5882 11.0976 17.7744 10.912 17.9033 10.781C17.9678 10.7155 18.018 10.6635 18.0526 10.6273L18.0927 10.5851L18.1037 10.5734L18.1069 10.57L18.1079 10.569L18.1083 10.5686C18.1084 10.5684 18.1085 10.5683 17.4993 9.99967ZM17.4993 9.99967L18.1085 10.5683C18.4074 10.2481 18.4074 9.75122 18.1085 9.43104L17.4993 9.99967ZM7.08268 9.99967C7.08268 8.38884 8.38852 7.08301 9.99935 7.08301C11.6102 7.08301 12.916 8.38884 12.916 9.99967C12.916 11.6105 11.6102 12.9163 9.99935 12.9163C8.38852 12.9163 7.08268 11.6105 7.08268 9.99967Z" fill="#24B2B2"/>
</svg>
