<svg width="28" height="32" viewBox="0 0 28 32" fill="none" xmlns="http://www.w3.org/2000/svg">
<path fill-rule="evenodd" clip-rule="evenodd" d="M26.5131 20.4391C26.3439 24.5879 26.4044 28.5976 27.8341 30.1712C27.9693 30.3201 28.0218 30.5256 27.9743 30.7204C27.9268 30.9154 27.7856 31.0743 27.5969 31.1452C26.4652 31.5702 24.9008 31.9666 23.0028 31.9666C21.8634 31.9666 20.604 31.8238 19.2454 31.4587C17.4759 30.9831 16.2278 30.3157 15.8018 30.0692C15.2224 30.1641 14.628 30.2143 14.0219 30.2143C13.4157 30.2143 12.8211 30.1641 12.2415 30.0691C11.8156 30.3155 10.5674 30.9831 8.7978 31.4587C7.77935 31.7324 6.48204 31.9659 5.02078 31.9659C3.61414 31.9659 2.0556 31.7497 0.446323 31.1454C0.257647 31.0745 0.11635 30.9155 0.068895 30.7206C0.0214399 30.5257 0.0739304 30.32 0.209124 30.1713C1.63888 28.5977 1.69938 24.5877 1.53016 20.4386C0.907674 19.8572 0.517811 19.0325 0.517811 18.1186C0.517811 17.3161 0.818563 16.5826 1.31318 16.022C1.1052 11.7908 0.994955 8.96126 2.3462 6.34689C2.42189 6.20047 2.50253 6.05404 2.58592 5.91163C3.55707 4.25279 5.36212 3.1795 7.34638 3.06219C8.8831 1.20248 11.1116 0.0940788 13.5052 0.00930159C16.2303 -0.0875325 18.9142 0.573245 21.267 1.91937C23.2858 3.0744 24.7766 4.56407 25.6979 6.34697C27.0484 8.9599 26.9381 11.7897 26.7301 16.0213C27.225 16.582 27.5261 17.3158 27.5261 18.1186C27.5261 19.0328 27.1359 19.8577 26.5131 20.4391ZM24.932 16.3593V19.3708C24.932 19.5823 24.9252 19.7921 24.9131 20.0006C25.719 19.7499 26.3053 19.001 26.3053 18.1186C26.3053 17.2431 25.728 16.4995 24.932 16.2429V16.3352C24.9321 16.3433 24.9321 16.3513 24.932 16.3593ZM3.43247 6.90131C3.49847 6.77369 3.56873 6.64599 3.64144 6.52186C4.44536 5.14866 5.98291 4.28391 7.65406 4.26503L7.66253 4.26487C7.84793 4.26101 8.02142 4.17365 8.13426 4.02745C9.45148 2.3197 11.4251 1.29706 13.5492 1.22176C16.0454 1.13327 18.5039 1.73816 20.6583 2.97084C22.47 4.00736 23.8003 5.32975 24.6124 6.90131C25.6933 8.99268 25.7254 11.2676 25.5481 15.1766C25.3519 15.0955 25.1459 15.0336 24.9324 14.9924V14.3755C24.9324 14.0405 24.6591 13.7689 24.3221 13.7689C23.985 13.7689 23.7117 14.0405 23.7117 14.3755V15.7533C15.3042 15.8425 10.7528 11.8176 9.5383 10.5583C9.3954 10.4101 9.18682 10.3438 8.98418 10.382C8.78131 10.4201 8.61163 10.5576 8.53313 10.7474C7.64621 12.8917 6.09659 14.0136 3.65655 14.2779C3.34687 14.3114 3.11234 14.5714 3.11234 14.881V14.9923C2.89864 15.0335 2.69242 15.0955 2.49604 15.1767C2.31873 11.2687 2.351 8.99382 3.43247 6.90131ZM1.73852 18.1186C1.73852 19.0011 2.32484 19.75 3.13066 20.0007C3.11861 19.7921 3.11182 19.5823 3.11182 19.3708V16.243C2.31584 16.4995 1.73852 17.2431 1.73852 18.1186ZM1.63964 30.2667C2.72806 28.4203 2.91681 25.3508 2.77841 21.1623C2.94046 21.212 3.10815 21.2487 3.27997 21.2724C3.97417 25.1569 6.75655 28.3325 10.4284 29.6093C8.66238 30.3646 5.31992 31.3654 1.63964 30.2667ZM4.33252 19.3707C4.33252 24.6809 8.67916 29.0011 14.0219 29.0011C19.3646 29.0011 23.7113 24.681 23.7113 19.3707V16.9667C20.0048 17.0061 16.6023 16.2953 13.5895 14.8543C11.5857 13.8959 10.1638 12.8023 9.28448 12.005C8.25138 13.916 6.62166 15.036 4.3326 15.4104L4.33252 19.3707ZM19.6045 30.2983C18.8218 30.0903 18.1466 29.8391 17.6135 29.6101C21.2865 28.3339 24.0698 25.1578 24.7642 21.2724C24.9358 21.2488 25.1033 21.2122 25.2652 21.1625C25.1267 25.3515 25.3154 28.421 26.4044 30.2674C24.2488 30.9146 21.9653 30.9255 19.6045 30.2983ZM11.9103 24.1529C13.0748 25.3104 14.9696 25.3104 16.1342 24.1529C16.3725 23.916 16.759 23.916 16.9974 24.1529C17.2358 24.3898 17.2358 24.7739 16.9974 25.0108C16.1771 25.826 15.0997 26.2336 14.0223 26.2336C12.9449 26.2336 11.8674 25.826 11.0472 25.0108C10.8088 24.7739 10.8088 24.3898 11.0472 24.1529C11.2855 23.916 11.672 23.916 11.9103 24.1529ZM6.72664 17.573C6.48822 17.8099 6.48822 18.1939 6.72664 18.4308C6.96498 18.6677 7.35141 18.6677 7.58976 18.4308C7.98099 18.0421 8.61744 18.0421 9.00868 18.4308C9.12785 18.5493 9.28402 18.6085 9.44027 18.6085C9.59652 18.6085 9.7527 18.5493 9.87187 18.4308C10.1103 18.1939 10.1103 17.8099 9.87187 17.573C9.00479 16.7111 7.59372 16.711 6.72664 17.573ZM21.3172 17.573C21.5557 17.8099 21.5557 18.1939 21.3172 18.4308C21.1981 18.5493 21.0419 18.6085 20.8856 18.6085C20.7294 18.6085 20.5732 18.5493 20.454 18.4308C20.0629 18.0421 19.4264 18.0421 19.0351 18.4308C18.7968 18.6677 18.4103 18.6677 18.172 18.4308C17.9336 18.1939 17.9336 17.8099 18.172 17.573C19.0391 16.7111 20.4501 16.7111 21.3172 17.573Z" fill="#9393AA"/>
</svg>
