<svg width="22" height="22" viewBox="0 0 22 22" fill="none" xmlns="http://www.w3.org/2000/svg">
<path fill-rule="evenodd" clip-rule="evenodd" d="M0.916016 5.95847C0.916016 5.4302 1.32642 5.00195 1.83268 5.00195H20.166C20.6723 5.00195 21.0827 5.4302 21.0827 5.95847V18.7918C21.0827 19.3201 20.6723 19.7483 20.166 19.7483H1.83268C1.32642 19.7483 0.916016 19.3201 0.916016 18.7918V5.95847ZM2.74935 6.915V17.8353H19.2494V6.915H2.74935Z" fill="#9393AA"/>
<path fill-rule="evenodd" clip-rule="evenodd" d="M9.6237 4.165C9.37057 4.165 9.16536 4.37912 9.16536 4.64326V5.95848H7.33203V4.64326C7.33203 3.32258 8.35805 2.25195 9.6237 2.25195H12.3737C13.6394 2.25195 14.6654 3.32258 14.6654 4.64326V5.95848H12.832V4.64326C12.832 4.37912 12.6268 4.165 12.3737 4.165H9.6237Z" fill="#9393AA"/>
<path fill-rule="evenodd" clip-rule="evenodd" d="M10.082 15.125V9.625H11.9154V15.125H10.082Z" fill="#9393AA"/>
<path fill-rule="evenodd" clip-rule="evenodd" d="M13.75 13.332H8.25V11.419H13.75V13.332Z" fill="#9393AA"/>
</svg>
