<svg width="32" height="32" viewBox="0 0 32 32" fill="none" xmlns="http://www.w3.org/2000/svg">
<path fill-rule="evenodd" clip-rule="evenodd" d="M9.6 0H22.4C27.7019 0 32 4.29807 32 9.6V22.4C32 27.7019 27.7019 32 22.4 32H9.6C4.29807 32 0 27.7019 0 22.4V9.6C0 4.29807 4.29807 0 9.6 0Z" fill="#FC9875"/>
<path fill-rule="evenodd" clip-rule="evenodd" d="M8.80117 7.2002C7.91752 7.2002 7.20117 7.91654 7.20117 8.8002V23.2002C7.20117 24.0839 7.91752 24.8002 8.80117 24.8002H23.2012C24.0848 24.8002 24.8012 24.0839 24.8012 23.2002V8.8002C24.8012 7.91654 24.0848 7.2002 23.2012 7.2002H8.80117ZM16.2719 13.1642C16.1244 12.9372 15.872 12.8002 15.6012 12.8002C15.3304 12.8002 15.078 12.9372 14.9304 13.1642L9.73042 21.1642C9.57054 21.4102 9.55811 21.7239 9.69804 21.9818C9.83797 22.2396 10.1078 22.4002 10.4012 22.4002H20.8012C21.0945 22.4002 21.3644 22.2396 21.5043 21.9818C21.6442 21.7239 21.6318 21.4102 21.4719 21.1642L16.2719 13.1642ZM18.4012 12.4002C18.4012 11.2956 19.2966 10.4002 20.4012 10.4002C21.5057 10.4002 22.4012 11.2956 22.4012 12.4002C22.4012 13.5048 21.5057 14.4002 20.4012 14.4002C19.2966 14.4002 18.4012 13.5048 18.4012 12.4002Z" fill="white"/>
</svg>
