<svg width="22" height="22" viewBox="0 0 22 22" fill="none" xmlns="http://www.w3.org/2000/svg">
<path fill-rule="evenodd" clip-rule="evenodd" d="M5.49935 7.33333C3.98057 7.33333 2.74935 8.56455 2.74935 10.0833V11.9167C2.74935 13.4355 3.98057 14.6667 5.49935 14.6667H9.16602V16.5H5.49935C2.96804 16.5 0.916016 14.448 0.916016 11.9167V10.0833C0.916016 7.55203 2.96804 5.5 5.49935 5.5H9.16602V7.33333H5.49935ZM16.4994 7.33333H12.8327V5.5H16.4994C19.0307 5.5 21.0827 7.55203 21.0827 10.0833V11.9167C21.0827 14.448 19.0307 16.5 16.4994 16.5H12.8327V14.6667H16.4994C18.0181 14.6667 19.2494 13.4355 19.2494 11.9167V10.0833C19.2494 8.56455 18.0181 7.33333 16.4994 7.33333Z" fill="#3093BB"/>
<path fill-rule="evenodd" clip-rule="evenodd" d="M7.33203 10.084H14.6654V11.9173H7.33203V10.084Z" fill="#3093BB"/>
</svg>
