<svg className="tab-title profile_option_icon" width="18" height="21" viewBox="0 0 18 21" fill="none" xmlns="http://www.w3.org/2000/svg">
    <path fill-rule="evenodd" clip-rule="evenodd" d="M8.08398 16.9587V14.667H9.91732V16.9587H8.08398Z" fill="#9393AA" />
    <path fill-rule="evenodd" clip-rule="evenodd" d="M9.00065 12.8333C8.74752 12.8333 8.54232 13.0385 8.54232 13.2917C8.54232 13.5448 8.74752 13.75 9.00065 13.75C9.25378 13.75 9.45898 13.5448 9.45898 13.2917C9.45898 13.0385 9.25378 12.8333 9.00065 12.8333ZM6.70898 13.2917C6.70898 12.026 7.735 11 9.00065 11C10.2663 11 11.2923 12.026 11.2923 13.2917C11.2923 14.5573 10.2663 15.5833 9.00065 15.5833C7.735 15.5833 6.70898 14.5573 6.70898 13.2917Z" fill="#9393AA" />
    <path fill-rule="evenodd" clip-rule="evenodd" d="M0.75 11.459C0.75 9.9402 1.98122 8.70898 3.5 8.70898H14.5C16.0188 8.70898 17.25 9.9402 17.25 11.459V17.4173C17.25 18.9361 16.0188 20.1673 14.5 20.1673H3.5C1.98122 20.1673 0.75 18.9361 0.75 17.4173V11.459ZM3.5 10.5423C2.99374 10.5423 2.58333 10.9527 2.58333 11.459V17.4173C2.58333 17.9236 2.99374 18.334 3.5 18.334H14.5C15.0063 18.334 15.4167 17.9236 15.4167 17.4173V11.459C15.4167 10.9527 15.0063 10.5423 14.5 10.5423H3.5Z" fill="#9393AA" />
    <path fill-rule="evenodd" clip-rule="evenodd" d="M3.5 5.50033C3.5 2.96902 5.55203 0.916992 8.08333 0.916992H9.91667C12.448 0.916992 14.5 2.96902 14.5 5.50033V9.62533C14.5 10.1316 14.0896 10.542 13.5833 10.542H4.41667C3.91041 10.542 3.5 10.1316 3.5 9.62533V5.50033ZM8.08333 2.75033C6.56455 2.75033 5.33333 3.98154 5.33333 5.50033V8.70866H12.6667V5.50033C12.6667 3.98154 11.4354 2.75033 9.91667 2.75033H8.08333Z" fill="#9393AA" />
</svg>