<svg width="88" height="48" viewBox="0 0 88 48" fill="none" xmlns="http://www.w3.org/2000/svg">
<path d="M40.7567 0C40.964 0.0783101 41.1701 0.160421 41.3789 0.234239C42.0809 0.482473 42.8149 0.658524 43.4812 0.98623C46.2585 2.35232 48.0728 4.61753 48.9466 7.68876C49.1155 8.38362 49.2246 9.09293 49.2726 9.8082C49.3065 10.1313 49.4038 10.2493 49.7118 10.2393C50.2531 10.2218 50.7953 10.2428 51.337 10.2346C51.5817 10.2309 51.6907 10.3287 51.6803 10.591C51.6692 10.868 51.6787 11.146 51.6787 11.4235C51.6783 21.1764 51.6779 30.9292 51.6774 40.682C51.6713 40.808 51.672 40.9343 51.6793 41.0602C51.7148 41.3912 51.5851 41.4938 51.268 41.4921C48.9444 41.4795 46.6208 41.4792 44.2971 41.4913C43.9922 41.4929 43.8857 41.3742 43.89 41.082C43.8922 40.9307 43.8838 40.7793 43.8838 40.628C43.8834 36.9439 43.8832 33.2598 43.8832 29.5757C43.8832 28.8507 43.9207 28.9356 43.2903 28.9351C40.5694 28.933 37.8484 28.9405 35.1275 28.9257C34.7777 28.9238 34.6856 29.0273 34.6868 29.3912C34.6992 33.2393 34.6947 37.0874 34.6942 40.9356C34.6942 41.4832 34.6928 41.4844 34.1608 41.4845C31.8974 41.485 29.6339 41.4778 27.3705 41.4919C27.0162 41.4942 26.8938 41.4014 26.8942 41.0067C26.9032 30.9385 26.9049 20.8702 26.8992 10.802C26.8991 10.2458 26.8999 10.2425 27.4433 10.2365C27.9007 10.2315 28.3585 10.2268 28.8157 10.2388C29.0809 10.2457 29.1831 10.1629 29.2071 9.85648C29.495 6.18619 31.1495 3.38753 34.1402 1.45835C35.0926 0.866458 36.1305 0.440769 37.2132 0.197937C37.3205 0.149409 37.4192 0.0825188 37.5055 5.20525e-06L40.7567 0ZM34.6932 15.9085H34.6944C34.6944 17.6115 34.6944 19.3144 34.6943 21.0174C34.6943 21.5706 34.6938 21.5708 35.2239 21.5707C37.9564 21.5699 40.6889 21.5693 43.4213 21.5687C43.915 21.5687 43.9137 21.5715 43.9136 21.0402C43.9128 17.6848 43.9132 14.3293 43.9149 10.9739C43.9163 10.1672 43.8072 10.2412 44.6029 10.2379C45.6501 10.2335 46.6975 10.2243 47.7445 10.241C48.0711 10.2463 48.1633 10.1196 48.1462 9.79654C48.0919 8.78763 47.8597 7.798 47.4613 6.87777C46.3135 4.19938 44.4113 2.38692 41.7157 1.55451C40.4503 1.17058 39.1193 1.08541 37.8187 1.30514C36.518 1.52486 35.28 2.04401 34.1938 2.82522C33.1076 3.60643 32.2001 4.63028 31.5367 5.82307C30.8733 7.01587 30.4705 8.34794 30.3572 9.72344C30.3171 10.2324 30.3388 10.235 30.8137 10.2354C31.9332 10.2362 33.0527 10.2368 34.1721 10.237C34.691 10.2375 34.6926 10.2388 34.6929 10.7997C34.6937 12.5026 34.6938 14.2056 34.6932 15.9085ZM29.239 12.2476C29.228 12.4368 29.2881 12.6231 29.4066 12.7664C29.525 12.9098 29.6923 12.9988 29.8727 13.0143C29.9656 13.0205 30.0588 13.0072 30.1468 12.9754C30.2348 12.9435 30.3159 12.8936 30.3854 12.8286C30.4549 12.7637 30.5114 12.6849 30.5516 12.5969C30.5918 12.5089 30.615 12.4133 30.6197 12.3159C30.6153 12.1325 30.5473 11.957 30.4283 11.8224C30.3094 11.6877 30.1478 11.6031 29.9736 11.5843C29.7925 11.5712 29.6138 11.6336 29.4763 11.7577C29.3387 11.8819 29.2535 12.0579 29.239 12.2476H29.239ZM49.2831 12.3154C49.2888 12.2206 49.2758 12.1256 49.2449 12.0364C49.2139 11.9471 49.1656 11.8656 49.1031 11.7968C49.0406 11.728 48.9652 11.6736 48.8817 11.6368C48.7981 11.6001 48.7082 11.5818 48.6176 11.5833C48.5278 11.5843 48.439 11.6039 48.3564 11.6408C48.2738 11.6778 48.1989 11.7315 48.1361 11.7988C48.0732 11.8661 48.0237 11.9457 47.9902 12.033C47.9567 12.1204 47.94 12.2138 47.941 12.308C47.942 12.4021 47.9606 12.4951 47.9959 12.5817C48.0312 12.6683 48.0824 12.7468 48.1466 12.8126C48.2108 12.8785 48.2868 12.9304 48.3702 12.9655C48.4536 13.0005 48.5427 13.0181 48.6325 13.017C48.72 13.0184 48.8067 13.001 48.8875 12.966C48.9683 12.931 49.0414 12.879 49.1023 12.8133C49.1632 12.7476 49.2107 12.6695 49.2417 12.5839C49.2728 12.4983 49.2869 12.4069 49.2831 12.3154Z" fill="#3093BB"/>
<path d="M69.531 20.2509C68.8081 20.3153 68.1443 20.3281 67.4962 20.4401C64.7175 20.9204 62.6878 23.1511 62.2711 26.0662C61.7552 29.676 63.8468 32.9029 67.1207 33.7344C68.7256 34.1632 70.4265 33.9266 71.8691 33.074C73.3117 32.2214 74.3848 30.8184 74.865 29.1573C75.0766 28.4095 75.19 27.635 75.2021 26.8551C75.2316 23.4487 75.1926 20.0418 75.2034 16.6352C75.208 15.1744 75.1978 13.7062 75.3302 12.2549C75.498 10.4149 76.1261 8.70693 77.0476 7.12756C78.5524 4.54837 80.6055 2.62478 83.2867 1.4735C84.6802 0.874283 86.1646 0.540388 87.67 0.487502C87.9359 0.47757 88.0002 0.574701 87.9995 0.829693C87.9933 2.88636 87.9935 4.94304 88 6.99973C88.0009 7.24432 87.9163 7.32336 87.6917 7.34836C85.037 7.64373 83.1739 9.08969 82.176 11.6731C81.8992 12.398 81.7517 13.17 81.7409 13.9508C81.7003 18.2025 81.7124 22.4549 81.7253 26.7069C81.7337 29.485 81.1245 32.0794 79.6791 34.4242C77.7994 37.4736 75.1916 39.5209 71.8185 40.375C68.4162 41.2366 65.1485 40.7668 62.1075 38.9085C60.4655 37.9063 59.0523 36.5402 57.9669 34.9057C56.8815 33.2712 56.1502 31.4078 55.824 29.446C55.4979 27.4843 55.5849 25.4715 56.0788 23.5487C56.5728 21.6258 57.4619 19.8393 58.6838 18.3143C59.9828 16.6711 61.6269 15.487 63.4397 14.5397C65.1334 13.6546 66.9299 13.3774 68.7981 13.4799C68.8101 13.4805 68.8222 13.4804 68.8342 13.4809C69.5004 13.5113 69.4982 13.5113 69.5015 14.2065C69.5102 16.0738 69.52 17.9411 69.5309 19.8083C69.5317 19.9568 69.531 20.1053 69.531 20.2509Z" fill="#196F92"/>
<path d="M14.8742 29.4421C14.8744 33.265 14.8744 37.0879 14.8742 40.9108C14.8742 41.4789 14.8732 41.4836 14.3177 41.4842C12.1506 41.4865 9.98351 41.4871 7.81641 41.4858C7.31259 41.4859 7.30977 41.4855 7.30974 40.9656C7.30939 33.4081 7.30972 25.8506 7.31073 18.2931C7.3109 17.3969 7.3147 17.3969 6.44694 17.3969C4.44836 17.3969 2.44974 17.3893 0.451265 17.4043C0.111803 17.4069 -0.00293477 17.3186 5.67956e-05 16.9442C0.0167909 14.85 0.0171663 12.7556 0.00118309 10.6612C-0.000960489 10.3294 0.0885668 10.2307 0.406887 10.2311C7.49821 10.239 14.5895 10.2381 21.6809 10.2285C22.0594 10.2279 22.145 10.3718 22.1427 10.738C22.1296 12.8071 22.13 14.8762 22.1441 16.9454C22.147 17.3265 22.0119 17.4054 21.68 17.4034C19.5852 17.3905 17.4903 17.3967 15.3954 17.3971C14.8756 17.3972 14.8743 17.3981 14.8742 17.9356C14.8738 21.7711 14.8738 25.6066 14.8742 29.4421Z" fill="#3093BB"/>
<path d="M76.7171 45.1019C76.7178 45.482 76.647 45.8585 76.5087 46.2099C76.3705 46.5613 76.1675 46.8807 75.9114 47.1499C75.6553 47.419 75.3511 47.6327 75.0162 47.7786C74.6812 47.9245 74.3222 47.9997 73.9594 48.0001C73.5967 48.0005 73.2375 47.926 72.9023 47.7808C72.5671 47.6356 72.2625 47.4227 72.0058 47.154C71.7492 46.8854 71.5456 46.5664 71.4067 46.2153C71.2678 45.8642 71.1962 45.4879 71.1962 45.1078C71.1994 44.3432 71.4912 43.6111 72.008 43.0714C72.5247 42.5317 73.2243 42.2283 73.9539 42.2275C74.6834 42.2268 75.3836 42.5287 75.9014 43.0673C76.4192 43.6059 76.7124 44.3374 76.7171 45.1019Z" fill="#196F92"/>
<path d="M65.6335 45.1134C65.7092 46.6157 64.4607 47.9901 62.8997 47.9943C62.5385 47.9933 62.181 47.9178 61.8476 47.7721C61.5141 47.6263 61.2114 47.4132 60.9566 47.1448C60.7018 46.8765 60.4999 46.5581 60.3625 46.208C60.2251 45.8579 60.1549 45.4828 60.1558 45.1043C60.1567 44.7257 60.2287 44.351 60.3678 44.0016C60.5069 43.6522 60.7103 43.335 60.9664 43.068C61.2225 42.8009 61.5262 42.5894 61.8603 42.4454C62.1944 42.3014 62.5523 42.2278 62.9136 42.2287C63.2748 42.224 63.6332 42.2957 63.9674 42.4394C64.3016 42.5831 64.6047 42.796 64.8586 43.0653C65.1125 43.3346 65.312 43.6547 65.4451 44.0066C65.5783 44.3585 65.6423 44.735 65.6335 45.1134Z" fill="#196F92"/>
<path d="M29.239 12.2475C29.2535 12.0578 29.3387 11.8818 29.4762 11.7576C29.6138 11.6335 29.7925 11.5712 29.9736 11.5842C30.1478 11.603 30.3094 11.6877 30.4283 11.8223C30.5472 11.9569 30.6153 12.1324 30.6197 12.3158C30.615 12.4132 30.5918 12.5088 30.5516 12.5968C30.5114 12.6848 30.4549 12.7636 30.3854 12.8285C30.3159 12.8935 30.2348 12.9434 30.1468 12.9753C30.0588 13.0071 29.9656 13.0204 29.8727 13.0142C29.6923 12.9987 29.525 12.9097 29.4065 12.7663C29.2881 12.623 29.228 12.4367 29.239 12.2475Z" fill="#3093BB"/>
<path d="M49.2831 12.3152C49.2869 12.4067 49.2729 12.4981 49.2418 12.5837C49.2107 12.6693 49.1632 12.7474 49.1023 12.8131C49.0414 12.8788 48.9683 12.9308 48.8875 12.9658C48.8067 13.0009 48.72 13.0182 48.6326 13.0169C48.5427 13.0179 48.4536 13.0004 48.3702 12.9653C48.2868 12.9302 48.2109 12.8783 48.1467 12.8124C48.0825 12.7466 48.0312 12.6681 47.996 12.5816C47.9607 12.495 47.942 12.4019 47.941 12.3078C47.94 12.2137 47.9568 12.1202 47.9902 12.0329C48.0237 11.9455 48.0733 11.8659 48.1361 11.7986C48.1989 11.7313 48.2738 11.6776 48.3564 11.6407C48.439 11.6037 48.5278 11.5841 48.6176 11.5831C48.7082 11.5817 48.7982 11.5999 48.8817 11.6366C48.9653 11.6734 49.0407 11.7279 49.1032 11.7966C49.1657 11.8654 49.2139 11.9469 49.2449 12.0362C49.2759 12.1254 49.2889 12.2204 49.2831 12.3152Z" fill="#3093BB"/>
</svg>
