<svg width="330" height="48" viewBox="0 0 330 48" fill="none" xmlns="http://www.w3.org/2000/svg">
<path d="M40.7565 0C40.9639 0.0783101 41.17 0.160421 41.3787 0.234239C42.0808 0.482473 42.8148 0.658524 43.4811 0.98623C46.2584 2.35232 48.0726 4.61753 48.9465 7.68876C49.1153 8.38362 49.2245 9.09293 49.2725 9.8082C49.3063 10.1313 49.4037 10.2493 49.7117 10.2393C50.2529 10.2218 50.7952 10.2428 51.3368 10.2346C51.5816 10.2309 51.6906 10.3287 51.6801 10.591C51.6691 10.868 51.6786 11.146 51.6785 11.4235C51.6782 21.1764 51.6777 30.9292 51.6773 40.682C51.6712 40.808 51.6719 40.9343 51.6792 41.0602C51.7147 41.3912 51.585 41.4938 51.2679 41.4921C48.9443 41.4795 46.6207 41.4792 44.297 41.4913C43.9921 41.4929 43.8856 41.3742 43.8898 41.082C43.892 40.9307 43.8837 40.7793 43.8837 40.628C43.8833 36.9439 43.8831 33.2598 43.8831 29.5757C43.883 28.8507 43.9206 28.9356 43.2902 28.9351C40.5693 28.933 37.8483 28.9405 35.1274 28.9257C34.7776 28.9238 34.6855 29.0273 34.6867 29.3912C34.6991 33.2393 34.6945 37.0874 34.6941 40.9356C34.6941 41.4832 34.6927 41.4844 34.1607 41.4845C31.8973 41.485 29.6338 41.4778 27.3704 41.4919C27.0161 41.4942 26.8937 41.4014 26.894 41.0067C26.9031 30.9385 26.9048 20.8702 26.899 10.802C26.899 10.2458 26.8997 10.2425 27.4432 10.2365C27.9006 10.2315 28.3584 10.2268 28.8156 10.2388C29.0807 10.2457 29.183 10.1629 29.207 9.85648C29.4948 6.18619 31.1494 3.38753 34.1401 1.45835C35.0925 0.866458 36.1303 0.440769 37.2131 0.197937C37.3203 0.149409 37.4191 0.0825188 37.5054 5.20525e-06L40.7565 0ZM34.6931 15.9085H34.6943C34.6943 17.6115 34.6943 19.3144 34.6942 21.0174C34.6941 21.5706 34.6937 21.5708 35.2238 21.5707C37.9563 21.5699 40.6888 21.5693 43.4212 21.5687C43.9149 21.5687 43.9136 21.5715 43.9134 21.0402C43.9127 17.6848 43.9131 14.3293 43.9148 10.9739C43.9161 10.1672 43.807 10.2412 44.6027 10.2379C45.65 10.2335 46.6974 10.2243 47.7444 10.241C48.071 10.2463 48.1631 10.1196 48.1461 9.79654C48.0918 8.78763 47.8596 7.798 47.4612 6.87777C46.3134 4.19938 44.4111 2.38692 41.7156 1.55451C40.4501 1.17058 39.1192 1.08541 37.8185 1.30514C36.5179 1.52486 35.2799 2.04401 34.1937 2.82522C33.1074 3.60643 32.2 4.63028 31.5366 5.82307C30.8732 7.01587 30.4704 8.34794 30.3571 9.72344C30.317 10.2324 30.3387 10.235 30.8136 10.2354C31.9331 10.2362 33.0525 10.2368 34.172 10.237C34.6909 10.2375 34.6925 10.2388 34.6928 10.7997C34.6936 12.5026 34.6937 14.2056 34.6931 15.9085ZM29.2389 12.2476C29.2278 12.4368 29.288 12.6231 29.4064 12.7664C29.5249 12.9098 29.6922 12.9988 29.8726 13.0143C29.9655 13.0205 30.0587 13.0072 30.1467 12.9754C30.2347 12.9435 30.3158 12.8936 30.3853 12.8286C30.4548 12.7637 30.5113 12.6849 30.5515 12.5969C30.5917 12.5089 30.6149 12.4133 30.6196 12.3159C30.6152 12.1325 30.5471 11.957 30.4282 11.8224C30.3093 11.6877 30.1477 11.6031 29.9735 11.5843C29.7924 11.5712 29.6137 11.6336 29.4761 11.7577C29.3386 11.8819 29.2534 12.0579 29.2389 12.2476H29.2389ZM49.283 12.3154C49.2887 12.2206 49.2757 12.1256 49.2447 12.0364C49.2138 11.9471 49.1655 11.8656 49.103 11.7968C49.0405 11.728 48.9651 11.6736 48.8816 11.6368C48.798 11.6001 48.7081 11.5818 48.6175 11.5833C48.5276 11.5843 48.4389 11.6039 48.3563 11.6408C48.2736 11.6778 48.1988 11.7315 48.1359 11.7988C48.0731 11.8661 48.0236 11.9457 47.9901 12.033C47.9566 12.1204 47.9399 12.2138 47.9409 12.308C47.9418 12.4021 47.9605 12.4951 47.9958 12.5817C48.0311 12.6683 48.0823 12.7468 48.1465 12.8126C48.2107 12.8785 48.2867 12.9304 48.3701 12.9655C48.4534 13.0005 48.5426 13.0181 48.6324 13.017C48.7198 13.0184 48.8066 13.001 48.8874 12.966C48.9681 12.931 49.0412 12.879 49.1022 12.8133C49.1631 12.7476 49.2105 12.6695 49.2416 12.5839C49.2727 12.4983 49.2868 12.4069 49.283 12.3154Z" fill="#3093BB"/>
<path d="M69.5308 20.2509C68.8079 20.3153 68.1441 20.3281 67.496 20.4401C64.7173 20.9204 62.6876 23.1511 62.2709 26.0662C61.755 29.676 63.8466 32.9029 67.1205 33.7344C68.7254 34.1632 70.4263 33.9266 71.8689 33.074C73.3115 32.2214 74.3847 30.8184 74.8648 29.1573C75.0764 28.4095 75.1898 27.635 75.202 26.8551C75.2314 23.4487 75.1924 20.0418 75.2032 16.6352C75.2078 15.1744 75.1977 13.7062 75.33 12.2549C75.4978 10.4149 76.126 8.70693 77.0474 7.12756C78.5522 4.54837 80.6054 2.62478 83.2865 1.4735C84.68 0.874283 86.1644 0.540388 87.6698 0.487502C87.9357 0.47757 88 0.574701 87.9993 0.829693C87.9931 2.88636 87.9933 4.94304 87.9998 6.99973C88.0007 7.24432 87.9161 7.32336 87.6915 7.34836C85.0368 7.64373 83.1737 9.08969 82.1758 11.6731C81.899 12.398 81.7515 13.17 81.7407 13.9508C81.7001 18.2025 81.7122 22.4549 81.7251 26.7069C81.7335 29.485 81.1243 32.0794 79.6789 34.4242C77.7992 37.4736 75.1915 39.5209 71.8183 40.375C68.416 41.2366 65.1483 40.7668 62.1073 38.9085C60.4653 37.9063 59.0521 36.5402 57.9667 34.9057C56.8814 33.2712 56.15 31.4078 55.8239 29.446C55.4977 27.4843 55.5847 25.4715 56.0787 23.5487C56.5726 21.6258 57.4617 19.8393 58.6836 18.3143C59.9827 16.6711 61.6267 15.487 63.4395 14.5397C65.1332 13.6546 66.9297 13.3774 68.7979 13.4799C68.8099 13.4805 68.822 13.4804 68.834 13.4809C69.5003 13.5113 69.498 13.5113 69.5013 14.2065C69.51 16.0738 69.5198 17.9411 69.5307 19.8083C69.5315 19.9568 69.5308 20.1053 69.5308 20.2509Z" fill="#196F92"/>
<path d="M14.8742 29.4421C14.8744 33.265 14.8744 37.0879 14.8742 40.9108C14.8742 41.4789 14.8732 41.4836 14.3177 41.4842C12.1506 41.4865 9.98351 41.4871 7.81641 41.4858C7.31259 41.4859 7.30977 41.4855 7.30974 40.9656C7.30939 33.4081 7.30972 25.8506 7.31073 18.2931C7.3109 17.3969 7.3147 17.3969 6.44694 17.3969C4.44836 17.3969 2.44974 17.3893 0.451265 17.4043C0.111803 17.4069 -0.00293477 17.3186 5.67956e-05 16.9442C0.0167909 14.85 0.0171663 12.7556 0.00118309 10.6612C-0.000960489 10.3294 0.0885668 10.2307 0.406887 10.2311C7.49821 10.239 14.5895 10.2381 21.6809 10.2285C22.0594 10.2279 22.145 10.3718 22.1427 10.738C22.1296 12.8071 22.13 14.8762 22.1441 16.9454C22.147 17.3265 22.0119 17.4054 21.68 17.4034C19.5852 17.3905 17.4903 17.3967 15.3954 17.3971C14.8756 17.3972 14.8743 17.3981 14.8742 17.9356C14.8738 21.7711 14.8738 25.6066 14.8742 29.4421Z" fill="#3093BB"/>
<path d="M76.7172 45.1019C76.7179 45.482 76.6471 45.8585 76.5089 46.2099C76.3706 46.5613 76.1676 46.8807 75.9115 47.1499C75.6554 47.419 75.3512 47.6327 75.0163 47.7786C74.6814 47.9245 74.3223 47.9997 73.9596 48.0001C73.5969 48.0005 73.2376 47.926 72.9024 47.7808C72.5672 47.6356 72.2626 47.4227 72.006 47.154C71.7493 46.8854 71.5457 46.5664 71.4068 46.2153C71.2679 45.8642 71.1963 45.4879 71.1963 45.1078C71.1995 44.3432 71.4913 43.6111 72.0081 43.0714C72.5248 42.5317 73.2244 42.2283 73.954 42.2275C74.6835 42.2268 75.3837 42.5287 75.9015 43.0673C76.4193 43.6059 76.7126 44.3374 76.7172 45.1019Z" fill="#196F92"/>
<path d="M65.6335 45.1134C65.7092 46.6157 64.4607 47.9901 62.8997 47.9943C62.5385 47.9933 62.181 47.9178 61.8476 47.7721C61.5141 47.6263 61.2114 47.4132 60.9566 47.1448C60.7018 46.8765 60.4999 46.5581 60.3625 46.208C60.2251 45.8579 60.1549 45.4828 60.1558 45.1043C60.1567 44.7257 60.2287 44.351 60.3678 44.0016C60.5069 43.6522 60.7103 43.335 60.9664 43.068C61.2225 42.8009 61.5262 42.5894 61.8603 42.4454C62.1944 42.3014 62.5523 42.2278 62.9136 42.2287C63.2748 42.224 63.6332 42.2957 63.9674 42.4394C64.3016 42.5831 64.6047 42.796 64.8586 43.0653C65.1125 43.3346 65.312 43.6547 65.4451 44.0066C65.5783 44.3585 65.6423 44.735 65.6335 45.1134Z" fill="#196F92"/>
<path d="M29.2391 12.2475C29.2535 12.0578 29.3388 11.8818 29.4763 11.7576C29.6138 11.6335 29.7926 11.5712 29.9737 11.5842C30.1478 11.603 30.3095 11.6877 30.4284 11.8223C30.5473 11.9569 30.6153 12.1324 30.6198 12.3158C30.615 12.4132 30.5919 12.5088 30.5517 12.5968C30.5114 12.6848 30.455 12.7636 30.3855 12.8285C30.316 12.8935 30.2349 12.9434 30.1469 12.9753C30.0588 13.0071 29.9657 13.0204 29.8727 13.0142C29.6924 12.9987 29.5251 12.9097 29.4066 12.7663C29.2882 12.623 29.228 12.4367 29.2391 12.2475Z" fill="#3093BB"/>
<path d="M49.283 12.3152C49.2869 12.4067 49.2728 12.4981 49.2417 12.5837C49.2106 12.6693 49.1632 12.7474 49.1022 12.8131C49.0413 12.8788 48.9682 12.9308 48.8875 12.9658C48.8067 13.0009 48.7199 13.0182 48.6325 13.0169C48.5427 13.0179 48.4535 13.0004 48.3702 12.9653C48.2868 12.9302 48.2108 12.8783 48.1466 12.8124C48.0824 12.7466 48.0312 12.6681 47.9959 12.5816C47.9606 12.495 47.9419 12.4019 47.941 12.3078C47.94 12.2137 47.9567 12.1202 47.9902 12.0329C48.0236 11.9455 48.0732 11.8659 48.136 11.7986C48.1989 11.7313 48.2737 11.6776 48.3564 11.6407C48.439 11.6037 48.5277 11.5841 48.6176 11.5831C48.7082 11.5817 48.7981 11.5999 48.8816 11.6366C48.9652 11.6734 49.0406 11.7279 49.1031 11.7966C49.1656 11.8654 49.2139 11.9469 49.2448 12.0362C49.2758 12.1254 49.2888 12.2204 49.283 12.3152Z" fill="#3093BB"/>
<path d="M104.835 33.7096C104.925 33.6656 105.018 33.6299 105.114 33.6025C105.24 33.5644 105.369 33.5455 105.499 33.5463C105.69 33.5394 105.88 33.5776 106.057 33.6588C106.123 33.6864 106.182 33.7311 106.229 33.7896C106.277 33.848 106.312 33.9184 106.332 33.9952C106.403 34.2943 106.471 34.5711 106.536 34.8258C106.601 35.0806 106.663 35.3269 106.722 35.5648C106.781 35.8027 106.838 36.0371 106.894 36.268C106.95 36.4989 107.005 36.7401 107.058 36.9916H107.103C107.161 36.5701 107.215 36.164 107.262 35.7733C107.309 35.3827 107.355 34.9988 107.399 34.6217C107.444 34.2445 107.487 33.8691 107.528 33.4955C107.569 33.1218 107.61 32.7379 107.652 32.344C107.842 32.2145 108.06 32.1476 108.281 32.1504C108.458 32.145 108.633 32.1961 108.786 32.2981C108.857 32.3502 108.915 32.4238 108.952 32.511C108.99 32.5981 109.006 32.6954 108.998 32.7923C108.994 33.0018 108.981 33.2109 108.958 33.4189C108.932 33.6941 108.895 34.0033 108.848 34.3465C108.8 34.6899 108.746 35.0484 108.684 35.4219C108.622 35.7957 108.557 36.1575 108.489 36.5073C108.421 36.8572 108.352 37.1765 108.281 37.4653C108.226 37.6996 108.158 37.9294 108.077 38.1531C107.961 38.2532 107.828 38.3244 107.687 38.3621C107.509 38.4201 107.324 38.4492 107.138 38.4487C106.922 38.455 106.708 38.4154 106.505 38.3317C106.433 38.308 106.366 38.2659 106.31 38.2085C106.254 38.1511 106.21 38.08 106.181 38.0003C106.098 37.7151 106.002 37.3568 105.893 36.9254C105.784 36.4939 105.67 36.0301 105.552 35.5339C105.505 35.7788 105.455 36.0234 105.402 36.268C105.349 36.5123 105.295 36.75 105.242 36.9811C105.189 37.2125 105.137 37.4283 105.087 37.6286C105.037 37.8291 104.991 38.0074 104.95 38.1635C104.841 38.2529 104.72 38.3201 104.591 38.3621C104.421 38.4222 104.243 38.4514 104.064 38.4487C103.845 38.452 103.628 38.4108 103.422 38.3268C103.265 38.2769 103.13 38.1602 103.045 38.0003C102.976 37.8187 102.918 37.6314 102.872 37.4399C102.811 37.1951 102.746 36.9147 102.678 36.5989C102.61 36.2829 102.542 35.9431 102.474 35.5797C102.406 35.2164 102.341 34.8529 102.279 34.4893C102.217 34.126 102.162 33.771 102.115 33.4243C102.068 33.0775 102.029 32.7615 102 32.4763C102.095 32.3886 102.199 32.315 102.31 32.2573C102.446 32.1843 102.594 32.1477 102.744 32.1503C102.918 32.1416 103.091 32.1969 103.236 32.3081C103.304 32.371 103.361 32.449 103.402 32.5373C103.444 32.6256 103.47 32.7226 103.479 32.8226C103.574 33.4616 103.652 34.0053 103.714 34.4535C103.776 34.9019 103.829 35.2857 103.874 35.605C103.918 35.9245 103.956 36.1929 103.989 36.4103C104.021 36.6277 104.052 36.8215 104.082 36.9915H104.126C104.185 36.7128 104.241 36.4545 104.294 36.2167C104.347 35.9788 104.402 35.7359 104.458 35.4881C104.514 35.2403 104.573 34.9752 104.635 34.6928C104.697 34.4112 104.764 34.0835 104.835 33.7096Z" fill="#3093BB"/>
<path d="M112.193 38.4192C112.062 38.4364 111.929 38.4447 111.797 38.4444C111.58 38.4673 111.362 38.4104 111.179 38.2831C111.113 38.2043 111.063 38.1113 111.033 38.0103C111.003 37.9093 110.993 37.8027 111.005 37.6973V32.2339C111.074 32.2206 111.173 32.2039 111.302 32.1836C111.428 32.1635 111.556 32.1533 111.684 32.1531C111.898 32.1344 112.112 32.1875 112.297 32.3049C112.369 32.3821 112.424 32.4759 112.456 32.5792C112.489 32.6825 112.499 32.7925 112.486 32.9006V34.6777H114.514V32.2339C114.583 32.2206 114.682 32.2039 114.811 32.1836C114.941 32.1633 115.071 32.1531 115.202 32.1531C115.415 32.1344 115.627 32.1913 115.806 32.3148C115.878 32.3945 115.932 32.4903 115.964 32.5951C115.997 32.6999 116.007 32.8111 115.995 32.9208V38.364C115.899 38.3891 115.801 38.4076 115.702 38.4192C115.571 38.4364 115.439 38.4447 115.306 38.4444C115.089 38.4673 114.871 38.4104 114.688 38.2831C114.622 38.2043 114.572 38.1113 114.542 38.0103C114.512 37.9093 114.502 37.8027 114.514 37.6973V35.9301H112.486V38.364C112.389 38.3891 112.292 38.4076 112.193 38.4192Z" fill="#3093BB"/>
<path d="M117.209 38.2152C117.139 38.1321 117.084 38.0336 117.048 37.9259C117.013 37.8182 116.997 37.7034 117.002 37.5886V33.0112C116.994 32.8962 117.009 32.7806 117.045 32.6725C117.081 32.5644 117.137 32.4662 117.209 32.3847C117.282 32.3031 117.369 32.2401 117.465 32.1998C117.561 32.1596 117.664 32.1431 117.766 32.1516H120.814C120.855 32.2336 120.889 32.3204 120.915 32.4105C120.947 32.5242 120.962 32.6431 120.961 32.7624C120.974 32.9444 120.926 33.1254 120.827 33.2701C120.78 33.3266 120.721 33.3706 120.657 33.3993C120.593 33.4279 120.523 33.4404 120.454 33.436H118.411V34.5955H120.546C120.588 34.6776 120.622 34.7643 120.648 34.8544C120.68 34.9684 120.695 35.0874 120.694 35.2069C120.707 35.3864 120.661 35.5651 120.565 35.709C120.518 35.7642 120.46 35.8071 120.396 35.8348C120.333 35.8624 120.265 35.8742 120.197 35.8693H118.411V37.1639H120.85C120.893 37.2491 120.927 37.3395 120.952 37.4334C120.983 37.5509 120.999 37.6732 120.998 37.796C121.012 37.9748 120.964 38.1528 120.864 38.2931C120.816 38.3459 120.759 38.3871 120.697 38.4138C120.634 38.4405 120.567 38.4523 120.5 38.4483H117.766C117.664 38.454 117.562 38.4363 117.466 38.3962C117.371 38.3561 117.283 38.2945 117.209 38.2152Z" fill="#3093BB"/>
<path d="M126.792 34.2614C126.797 34.6296 126.692 34.9908 126.491 35.298C126.285 35.6072 126.004 35.8578 125.674 36.0255C125.945 36.3842 126.204 36.7214 126.451 37.0369C126.647 37.2812 126.83 37.5357 127 37.7995C126.952 37.9959 126.834 38.1678 126.669 38.2828C126.513 38.3907 126.328 38.4481 126.139 38.4472C125.935 38.4615 125.732 38.4033 125.566 38.2828C125.417 38.1532 125.29 38.0002 125.19 37.8297L124.24 36.3443H123.558V38.348C123.457 38.3728 123.354 38.3909 123.251 38.4024C123.113 38.4193 122.975 38.4277 122.836 38.4273C122.608 38.4499 122.38 38.3938 122.188 38.2681C122.118 38.1903 122.066 38.0985 122.035 37.9989C122.003 37.8992 121.993 37.7939 122.005 37.69V32.8559C121.998 32.7431 122.035 32.6321 122.109 32.5468C122.193 32.465 122.297 32.4067 122.41 32.3775C122.656 32.2897 122.912 32.2328 123.172 32.2081C123.481 32.1742 123.791 32.1575 124.102 32.158C124.819 32.1044 125.532 32.3036 126.12 32.7215C126.342 32.9087 126.518 33.145 126.635 33.4121C126.752 33.6792 126.805 33.9699 126.792 34.2614ZM124.151 35.1383C124.424 35.1507 124.694 35.0758 124.923 34.9242C125.022 34.8491 125.102 34.7499 125.154 34.6358C125.206 34.5217 125.228 34.3963 125.219 34.2711C125.219 33.6997 124.84 33.4141 124.082 33.4141C123.986 33.4135 123.89 33.4185 123.795 33.4292C123.709 33.4389 123.624 33.4504 123.538 33.4637V35.1383H124.151Z" fill="#3093BB"/>
<path d="M128.209 38.2152C128.139 38.1321 128.084 38.0336 128.048 37.9259C128.013 37.8182 127.997 37.7034 128.002 37.5886V33.0112C127.994 32.8962 128.009 32.7806 128.045 32.6725C128.081 32.5644 128.137 32.4662 128.209 32.3847C128.282 32.3031 128.369 32.2401 128.465 32.1998C128.561 32.1596 128.664 32.1431 128.766 32.1516H131.814C131.855 32.2336 131.889 32.3204 131.915 32.4105C131.947 32.5242 131.962 32.6431 131.961 32.7624C131.974 32.9444 131.926 33.1254 131.827 33.2701C131.78 33.3266 131.721 33.3706 131.657 33.3993C131.593 33.4279 131.523 33.4404 131.454 33.436H129.411V34.5955H131.546C131.588 34.6776 131.622 34.7643 131.648 34.8544C131.68 34.9684 131.695 35.0874 131.694 35.2069C131.707 35.3864 131.661 35.5651 131.565 35.709C131.518 35.7642 131.46 35.8071 131.396 35.8348C131.333 35.8624 131.265 35.8742 131.197 35.8693H129.411V37.1639H131.85C131.893 37.2491 131.927 37.3395 131.952 37.4334C131.983 37.5509 131.999 37.6732 131.998 37.796C132.012 37.9748 131.964 38.1528 131.864 38.2931C131.816 38.3459 131.759 38.3871 131.697 38.4138C131.634 38.4405 131.567 38.4523 131.5 38.4483H128.766C128.664 38.454 128.562 38.4363 128.466 38.3962C128.371 38.3561 128.283 38.2945 128.209 38.2152Z" fill="#3093BB"/>
<path d="M135.955 38.4192C135.849 38.4364 135.744 38.4448 135.638 38.4444C135.464 38.4673 135.29 38.4105 135.143 38.2831C135.09 38.2043 135.051 38.1113 135.026 38.0103C135.002 37.9093 134.995 37.8027 135.004 37.6973V32.2339C135.059 32.2206 135.138 32.2039 135.241 32.1836C135.343 32.1635 135.445 32.1533 135.547 32.1531C135.718 32.1344 135.89 32.1875 136.038 32.3049C136.095 32.3821 136.139 32.4759 136.165 32.5792C136.191 32.6825 136.199 32.7925 136.189 32.9006V34.6777H137.811V32.2339C137.866 32.2206 137.946 32.2039 138.049 32.1836C138.153 32.1633 138.257 32.1531 138.362 32.1531C138.532 32.1344 138.702 32.1913 138.845 32.3148C138.902 32.3945 138.945 32.4903 138.971 32.5951C138.998 32.6999 139.006 32.8111 138.996 32.9208V38.364C138.919 38.3891 138.841 38.4076 138.762 38.4192C138.657 38.4364 138.551 38.4448 138.445 38.4444C138.271 38.4673 138.097 38.4104 137.951 38.2831C137.898 38.2043 137.858 38.1113 137.834 38.0103C137.81 37.9093 137.802 37.8027 137.811 37.6973V35.9301H136.189V38.364C136.112 38.3891 136.033 38.4076 135.955 38.4192Z" fill="#3093BB"/>
<path d="M141.209 38.2152C141.139 38.1321 141.084 38.0336 141.048 37.9259C141.013 37.8182 140.997 37.7034 141.002 37.5886V33.0112C140.994 32.8962 141.009 32.7806 141.045 32.6725C141.081 32.5644 141.137 32.4662 141.209 32.3847C141.282 32.3031 141.369 32.24 141.465 32.1998C141.561 32.1596 141.664 32.1431 141.766 32.1516H144.814C144.855 32.2336 144.889 32.3204 144.915 32.4105C144.947 32.5242 144.962 32.6431 144.961 32.7624C144.974 32.9444 144.926 33.1254 144.827 33.2701C144.78 33.3266 144.721 33.3707 144.657 33.3993C144.593 33.4279 144.523 33.4405 144.454 33.436H142.411V34.5955H144.547C144.588 34.6776 144.622 34.7643 144.648 34.8544C144.68 34.9684 144.695 35.0874 144.694 35.2069C144.707 35.3864 144.661 35.5651 144.565 35.709C144.518 35.7642 144.46 35.8071 144.396 35.8348C144.333 35.8624 144.265 35.8742 144.197 35.8693H142.411V37.1639H144.85C144.893 37.2491 144.927 37.3395 144.952 37.4334C144.983 37.5509 144.999 37.6732 144.998 37.796C145.012 37.9748 144.964 38.1528 144.864 38.2931C144.816 38.3459 144.759 38.3871 144.697 38.4138C144.634 38.4405 144.567 38.4523 144.5 38.4483H141.766C141.664 38.454 141.562 38.4363 141.466 38.3962C141.371 38.3561 141.283 38.2945 141.209 38.2152Z" fill="#3093BB"/>
<path d="M149.319 37.0045H147.621C147.557 37.2465 147.498 37.4849 147.443 37.7196C147.388 37.9547 147.34 38.1629 147.3 38.3443C147.225 38.3708 147.147 38.3943 147.066 38.4146C146.969 38.4366 146.87 38.4468 146.772 38.4451C146.57 38.4606 146.37 38.4061 146.196 38.2887C146.133 38.2399 146.081 38.173 146.047 38.0945C146.013 38.016 145.997 37.9285 146 37.8406C146 37.7485 146.012 37.6568 146.035 37.5687C146.058 37.4816 146.084 37.381 146.113 37.2667C146.153 37.0852 146.211 36.8601 146.286 36.5914C146.361 36.3234 146.444 36.0331 146.533 35.7204C146.623 35.4081 146.717 35.0874 146.815 34.7584C146.913 34.4294 147.008 34.1154 147.101 33.8166C147.193 33.518 147.277 33.2444 147.352 32.9957C147.427 32.7473 147.491 32.5493 147.543 32.4016C147.67 32.3234 147.805 32.2658 147.946 32.2305C148.123 32.1775 148.305 32.1504 148.487 32.1498C148.721 32.1449 148.955 32.1875 149.176 32.2757C149.264 32.3057 149.345 32.3591 149.411 32.4316C149.478 32.5042 149.53 32.5939 149.562 32.6937C149.671 33.0498 149.79 33.4628 149.917 33.9326C150.044 34.4028 150.172 34.8863 150.303 35.383C150.432 35.8798 150.558 36.37 150.679 36.8536C150.801 37.337 150.908 37.7702 151 38.153C150.923 38.2503 150.826 38.3231 150.718 38.3645C150.575 38.4218 150.424 38.4491 150.272 38.4451C150.088 38.4654 149.903 38.4122 149.748 38.2941C149.634 38.1667 149.557 38.0012 149.527 37.8205L149.319 37.0045ZM148.479 33.5598C148.398 33.8618 148.298 34.2059 148.18 34.5922C148.061 34.9782 147.95 35.3728 147.846 35.776H149.085C148.987 35.3525 148.887 34.9479 148.786 34.5622C148.685 34.1761 148.6 33.842 148.53 33.5598H148.479Z" fill="#3093BB"/>
<path d="M152.218 38.219C152.144 38.1373 152.087 38.0405 152.049 37.9345C152.012 37.8286 151.996 37.7157 152.001 37.6028V32.2347C152.072 32.2213 152.173 32.2043 152.305 32.1839C152.435 32.1637 152.565 32.1534 152.696 32.1531C152.915 32.1343 153.135 32.1878 153.324 32.3063C153.397 32.3841 153.453 32.4788 153.487 32.583C153.52 32.6871 153.53 32.7981 153.517 32.9071V37.1547H155.834C155.879 37.2387 155.916 37.3273 155.945 37.4193C155.981 37.5342 155.999 37.6547 155.998 37.7759C156.011 37.9563 155.961 38.1356 155.858 38.2802C155.81 38.3363 155.751 38.3805 155.685 38.4095C155.619 38.4386 155.548 38.4519 155.477 38.4483H152.802C152.695 38.4539 152.588 38.4365 152.488 38.3971C152.388 38.3576 152.296 38.2971 152.218 38.219Z" fill="#3093BB"/>
<path d="M159.254 33.4443V38.3628C159.154 38.3883 159.053 38.4071 158.951 38.419C158.814 38.4364 158.677 38.4449 158.539 38.4445C158.313 38.4672 158.085 38.4095 157.893 38.2806C157.823 38.2013 157.77 38.107 157.738 38.0042C157.706 37.9013 157.695 37.7924 157.707 37.6849V33.4443H156.169C156.123 33.3595 156.085 33.27 156.057 33.177C156.02 33.0612 156.001 32.9397 156.003 32.8175C155.987 32.6347 156.04 32.4526 156.15 32.3096C156.202 32.2553 156.265 32.213 156.334 32.1856C156.404 32.1581 156.477 32.1461 156.551 32.1502H160.831C160.883 32.2326 160.923 32.3227 160.949 32.4174C160.982 32.5338 160.999 32.6549 160.998 32.7764C161.012 32.9577 160.959 33.1378 160.851 33.2798C160.799 33.3355 160.736 33.3789 160.667 33.4073C160.598 33.4356 160.523 33.4483 160.449 33.4443H159.254Z" fill="#3093BB"/>
<path d="M163.193 38.4192C163.062 38.4364 162.929 38.4448 162.797 38.4444C162.58 38.4673 162.362 38.4104 162.179 38.2831C162.113 38.2043 162.063 38.1113 162.033 38.0103C162.003 37.9093 161.993 37.8027 162.005 37.6973V32.2339C162.074 32.2206 162.173 32.2039 162.302 32.1836C162.428 32.1635 162.556 32.1533 162.684 32.1531C162.898 32.1344 163.112 32.1875 163.297 32.3049C163.369 32.3821 163.424 32.4759 163.456 32.5792C163.489 32.6825 163.499 32.7925 163.486 32.9006V34.6777H165.514V32.2339C165.583 32.2206 165.682 32.2039 165.811 32.1836C165.941 32.1633 166.071 32.1531 166.202 32.1531C166.415 32.1344 166.627 32.1913 166.806 32.3148C166.878 32.3945 166.932 32.4903 166.964 32.5951C166.997 32.6999 167.007 32.8111 166.995 32.9208V38.364C166.899 38.3891 166.801 38.4076 166.702 38.4192C166.571 38.4364 166.439 38.4447 166.306 38.4444C166.089 38.4673 165.871 38.4105 165.688 38.2831C165.622 38.2043 165.572 38.1113 165.542 38.0103C165.512 37.9093 165.502 37.8027 165.514 37.6973V35.9301H163.486V38.364C163.389 38.3891 163.292 38.4076 163.193 38.4192Z" fill="#3093BB"/>
<path d="M173.662 36.8279C173.581 36.9019 173.489 36.9572 173.391 36.9906C173.268 37.0333 173.141 37.0539 173.014 37.0518C172.855 37.057 172.696 37.0294 172.546 36.9702C172.488 36.9484 172.435 36.9113 172.392 36.8618C172.349 36.8124 172.316 36.7519 172.296 36.6851C172.109 36.0534 171.95 35.5287 171.819 35.1112C171.688 34.6933 171.584 34.3317 171.508 34.0262H171.473C171.456 34.4471 171.441 34.8325 171.43 35.1823C171.418 35.532 171.407 35.8733 171.399 36.2061C171.39 36.5389 171.379 36.8752 171.368 37.2149C171.356 37.5547 171.342 37.9283 171.324 38.3357C171.24 38.3685 171.154 38.394 171.066 38.4118C170.955 38.436 170.842 38.448 170.729 38.4476C170.543 38.4593 170.359 38.4116 170.195 38.3098C170.129 38.2585 170.076 38.1874 170.042 38.104C170.008 38.0206 169.994 37.9281 170.002 37.8363C170.002 37.7074 170.006 37.5288 170.015 37.3015C170.024 37.0742 170.036 36.8125 170.05 36.517C170.065 36.2216 170.082 35.9042 170.103 35.5644C170.123 35.2247 170.143 34.8799 170.164 34.5302C170.184 34.1805 170.203 33.8341 170.221 33.491C170.239 33.1483 170.256 32.8307 170.273 32.5384C170.353 32.4338 170.45 32.3491 170.558 32.2892C170.745 32.1862 170.951 32.1389 171.158 32.1514C171.381 32.1387 171.604 32.1912 171.806 32.3041C171.971 32.4171 172.098 32.5937 172.165 32.8035C172.229 32.9871 172.296 33.1926 172.366 33.4199C172.436 33.6477 172.506 33.8804 172.576 34.1178C172.646 34.3556 172.715 34.5916 172.782 34.8257C172.849 35.06 172.912 35.2758 172.97 35.4729H173.014C173.178 34.875 173.341 34.2959 173.504 33.7358C173.668 33.1752 173.811 32.7047 173.934 32.3245C174.033 32.2701 174.137 32.2292 174.244 32.2026C174.381 32.167 174.521 32.1498 174.66 32.1514C174.876 32.1411 175.092 32.1862 175.291 32.2837C175.361 32.317 175.423 32.3697 175.472 32.4372C175.521 32.5047 175.555 32.585 175.571 32.6712C175.594 32.807 175.62 33.0142 175.65 33.2926C175.679 33.5711 175.708 33.8903 175.737 34.2502C175.767 34.6103 175.796 34.9891 175.825 35.3864C175.854 35.7833 175.88 36.167 175.904 36.5375C175.927 36.9076 175.947 37.2455 175.965 37.5513C175.982 37.8567 175.994 38.0943 176 38.2641C175.913 38.3251 175.818 38.3715 175.72 38.4019C175.597 38.4354 175.47 38.4508 175.343 38.4477C175.172 38.4532 175.003 38.4112 174.849 38.3253C174.777 38.2772 174.718 38.2071 174.679 38.1226C174.64 38.0382 174.621 37.9427 174.625 37.8468C174.584 37.0588 174.557 36.3372 174.542 35.6818C174.527 35.0262 174.511 34.4878 174.494 34.0666H174.45C174.38 34.3521 174.279 34.7121 174.148 35.1466C174.017 35.5813 173.854 36.1418 173.662 36.8279Z" fill="#3093BB"/>
<path d="M177.209 38.2152C177.138 38.132 177.084 38.0336 177.048 37.9259C177.012 37.8181 176.997 37.7034 177.002 37.5886V33.0112C176.994 32.8962 177.009 32.7807 177.045 32.6726C177.08 32.5644 177.136 32.4662 177.209 32.3846C177.281 32.303 177.369 32.24 177.465 32.1998C177.561 32.1596 177.663 32.1431 177.766 32.1516H180.813C180.855 32.2336 180.889 32.3204 180.915 32.4105C180.947 32.5243 180.962 32.6431 180.961 32.7624C180.974 32.9444 180.926 33.1254 180.827 33.2701C180.779 33.3265 180.721 33.3706 180.657 33.3992C180.593 33.4279 180.524 33.4404 180.455 33.436H178.41V34.5955H180.546C180.588 34.6776 180.622 34.7644 180.648 34.8544C180.68 34.9684 180.695 35.0874 180.694 35.2069C180.707 35.3864 180.661 35.5651 180.565 35.709C180.517 35.7642 180.46 35.8071 180.396 35.8348C180.333 35.8625 180.265 35.8743 180.196 35.8693H178.41V37.1639H180.85C180.893 37.2491 180.927 37.3395 180.952 37.4334C180.983 37.551 180.999 37.6732 180.998 37.796C181.012 37.9749 180.964 38.1529 180.864 38.2931C180.816 38.3459 180.759 38.3871 180.697 38.4138C180.634 38.4405 180.567 38.4523 180.5 38.4483H177.766C177.664 38.454 177.562 38.4362 177.466 38.3961C177.37 38.3561 177.283 38.2945 177.209 38.2152Z" fill="#3093BB"/>
<path d="M182.261 38.2152C182.173 38.132 182.104 38.0336 182.06 37.9259C182.016 37.8181 181.996 37.7034 182.002 37.5886V33.0112C181.993 32.8962 182.011 32.7807 182.056 32.6726C182.1 32.5644 182.17 32.4662 182.261 32.3846C182.352 32.303 182.461 32.24 182.581 32.1998C182.701 32.1596 182.829 32.1431 182.957 32.1516H186.767C186.819 32.2336 186.862 32.3204 186.894 32.4105C186.933 32.5243 186.953 32.6431 186.951 32.7624C186.967 32.9444 186.908 33.1254 186.784 33.2701C186.724 33.3265 186.652 33.3706 186.571 33.3992C186.491 33.4279 186.405 33.4404 186.318 33.436H183.763V34.5955H186.433C186.485 34.6776 186.528 34.7644 186.56 34.8544C186.6 34.9684 186.619 35.0874 186.617 35.2069C186.634 35.3864 186.576 35.5651 186.456 35.709C186.397 35.7642 186.325 35.8071 186.245 35.8348C186.166 35.8625 186.081 35.8743 185.996 35.8693H183.763V37.1639H186.813C186.866 37.2491 186.909 37.3395 186.94 37.4334C186.979 37.551 186.998 37.6732 186.997 37.796C187.015 37.9749 186.955 38.1529 186.83 38.2931C186.77 38.3459 186.699 38.3871 186.621 38.4138C186.543 38.4405 186.459 38.4523 186.375 38.4483H182.957C182.83 38.454 182.702 38.4362 182.582 38.3961C182.463 38.3561 182.353 38.2945 182.261 38.2152Z" fill="#3093BB"/>
<path d="M190.254 33.4443V38.3628C190.154 38.3884 190.053 38.4072 189.951 38.419C189.814 38.4364 189.677 38.4449 189.539 38.4446C189.312 38.4672 189.085 38.4094 188.893 38.2806C188.823 38.2013 188.77 38.107 188.738 38.0041C188.706 37.9013 188.695 37.7924 188.707 37.685V33.4443H187.169C187.123 33.3595 187.085 33.2699 187.057 33.177C187.02 33.0612 187.001 32.9397 187.003 32.8175C186.987 32.6347 187.04 32.4528 187.149 32.3096C187.202 32.2553 187.265 32.213 187.334 32.1856C187.403 32.1581 187.477 32.1461 187.551 32.1502H191.831C191.883 32.2327 191.923 32.3227 191.949 32.4174C191.982 32.5338 191.999 32.6549 191.998 32.7764C192.012 32.9577 191.959 33.1378 191.851 33.2798C191.799 33.3355 191.736 33.3789 191.667 33.4073C191.598 33.4356 191.523 33.4482 191.449 33.4443H190.254Z" fill="#3093BB"/>
<path d="M194.783 37.1922C195.009 37.2157 195.235 37.1517 195.426 37.0105C195.485 36.9597 195.534 36.8937 195.567 36.8178C195.6 36.7419 195.618 36.6582 195.618 36.5732C195.62 36.5012 195.608 36.4297 195.582 36.3642C195.556 36.2986 195.518 36.2409 195.469 36.1953C195.335 36.0804 195.183 35.9954 195.021 35.945L194.586 35.7878C194.365 35.7106 194.149 35.6171 193.938 35.5078C193.758 35.4164 193.592 35.294 193.444 35.1448C193.308 35.0052 193.199 34.8346 193.124 34.6437C193.042 34.422 193.003 34.1826 193.009 33.9418C193.001 33.6899 193.046 33.4395 193.14 33.212C193.234 32.9846 193.375 32.7868 193.55 32.6357C193.992 32.2872 194.521 32.1178 195.055 32.1543C195.282 32.1527 195.509 32.1724 195.733 32.2132C195.917 32.2446 196.097 32.3058 196.266 32.395C196.4 32.4648 196.519 32.567 196.616 32.6946C196.7 32.8098 196.746 32.9563 196.744 33.107C196.746 33.2478 196.712 33.3862 196.646 33.5045C196.584 33.6144 196.508 33.7124 196.42 33.7946C196.26 33.6745 196.084 33.585 195.9 33.5294C195.669 33.4551 195.431 33.4187 195.192 33.4211C194.982 33.4044 194.772 33.4555 194.586 33.5688C194.528 33.6055 194.479 33.6594 194.445 33.7249C194.41 33.7904 194.391 33.8652 194.39 33.9418C194.388 34.0001 194.398 34.0582 194.42 34.1106C194.443 34.1629 194.476 34.2078 194.518 34.241C194.643 34.3315 194.778 34.4026 194.919 34.4525L195.38 34.6289C195.621 34.7216 195.856 34.8349 196.083 34.9679C196.269 35.0761 196.44 35.215 196.59 35.3802C196.724 35.53 196.829 35.7107 196.897 35.9106C196.968 36.1286 197.003 36.36 197 36.5929C197.003 36.8523 196.955 37.1092 196.859 37.3442C196.762 37.5746 196.619 37.775 196.441 37.9287C196.236 38.1035 196.005 38.2333 195.759 38.3113C195.455 38.4081 195.14 38.4545 194.825 38.4489C194.582 38.4508 194.339 38.4263 194.1 38.3756C193.901 38.3349 193.708 38.2637 193.525 38.1641C193.377 38.0852 193.246 37.9695 193.141 37.8256C193.049 37.6971 192.999 37.5353 193 37.3687C192.995 37.2077 193.043 37.0504 193.132 36.9271C193.216 36.8136 193.315 36.7173 193.427 36.6422C193.602 36.8008 193.795 36.9298 194.002 37.0253C194.25 37.1404 194.515 37.1971 194.783 37.1922Z" fill="#3093BB"/>
<path d="M203.976 33.1551C203.978 33.2968 203.945 33.4359 203.881 33.5532C203.823 33.6612 203.747 33.7532 203.658 33.8231C203.516 33.7088 203.365 33.6103 203.209 33.5287C203.026 33.4384 202.83 33.3948 202.633 33.4007C202.448 33.3881 202.263 33.4261 202.091 33.5119C201.919 33.5977 201.765 33.7292 201.639 33.897C201.382 34.2954 201.254 34.7979 201.281 35.3063C201.265 35.5619 201.291 35.8188 201.355 36.0623C201.42 36.3057 201.523 36.531 201.659 36.7253C201.796 36.8884 201.959 37.0149 202.137 37.0969C202.316 37.1788 202.506 37.2144 202.696 37.2014C202.895 37.2074 203.093 37.1692 203.281 37.0888C203.437 37.0166 203.587 36.926 203.73 36.8183C203.811 36.9 203.878 37.0022 203.925 37.118C203.976 37.2445 204.002 37.3843 204 37.5256C204 37.6555 203.971 37.783 203.916 37.8939C203.845 38.0242 203.744 38.1251 203.626 38.1835C203.489 38.2626 203.345 38.3236 203.197 38.3653C202.978 38.426 202.754 38.454 202.529 38.4487C202.192 38.452 201.856 38.3891 201.535 38.2622C201.238 38.1451 200.964 37.9509 200.732 37.6925C200.495 37.4214 200.312 37.0872 200.195 36.7152C200.058 36.2653 199.992 35.787 200.001 35.3063C199.994 34.8431 200.06 34.3827 200.195 33.9507C200.314 33.5796 200.494 33.2434 200.724 32.9638C200.947 32.6983 201.213 32.4927 201.503 32.3601C201.809 32.2205 202.132 32.1505 202.458 32.1534C202.845 32.1278 203.231 32.2259 203.579 32.4382C203.692 32.5007 203.789 32.6008 203.859 32.7273C203.93 32.8539 203.97 33.002 203.976 33.1551Z" fill="#3093BB"/>
<path d="M210.999 35.2947C211.008 35.7572 210.931 36.2172 210.773 36.6508C210.639 37.0184 210.428 37.3515 210.154 37.6266C209.881 37.9018 209.551 38.1122 209.189 38.243C208.416 38.5181 207.574 38.5181 206.801 38.243C206.446 38.1126 206.123 37.9066 205.853 37.6388C205.577 37.3591 205.364 37.0221 205.227 36.6508C205.069 36.2172 204.992 35.7572 205.001 35.2947C204.992 34.8333 205.07 34.3745 205.231 33.9433C205.373 33.5734 205.589 33.2384 205.867 32.9605C206.139 32.6939 206.462 32.4881 206.815 32.3564C207.193 32.2159 207.593 32.1458 207.995 32.1496C208.399 32.1461 208.8 32.2161 209.179 32.3564C209.535 32.4874 209.86 32.6932 210.133 32.9605C210.411 33.2384 210.627 33.5734 210.768 33.9433C210.93 34.3744 211.008 34.8332 210.999 35.2947ZM209.439 35.2947C209.476 34.7894 209.338 34.2871 209.05 33.8747C208.917 33.7245 208.754 33.6045 208.573 33.5223C208.392 33.4402 208.196 33.3977 207.998 33.3977C207.799 33.3977 207.603 33.4402 207.422 33.5223C207.241 33.6045 207.079 33.7245 206.946 33.8747C206.654 34.2857 206.514 34.7886 206.551 35.2947C206.514 35.8031 206.651 36.3089 206.94 36.7247C207.074 36.8748 207.237 36.9947 207.418 37.0768C207.6 37.1588 207.796 37.2012 207.995 37.2012C208.194 37.2012 208.39 37.1588 208.572 37.0768C208.753 36.9947 208.916 36.8748 209.05 36.7247C209.339 36.3089 209.477 35.8031 209.439 35.2947Z" fill="#3093BB"/>
<path d="M215.662 36.8279C215.582 36.9019 215.489 36.9572 215.391 36.9906C215.269 37.0333 215.142 37.0539 215.014 37.0518C214.855 37.057 214.697 37.0294 214.546 36.9702C214.488 36.9484 214.436 36.9113 214.392 36.8618C214.349 36.8124 214.316 36.7519 214.296 36.6851C214.109 36.0534 213.95 35.5287 213.819 35.1112C213.688 34.6933 213.584 34.3317 213.508 34.0262H213.473C213.456 34.4471 213.441 34.8325 213.43 35.1823C213.418 35.532 213.407 35.8733 213.399 36.2061C213.39 36.5389 213.38 36.8752 213.368 37.2149C213.357 37.5547 213.342 37.9283 213.324 38.3357C213.24 38.3685 213.154 38.394 213.066 38.4118C212.955 38.436 212.842 38.448 212.729 38.4476C212.543 38.4593 212.359 38.4116 212.195 38.3098C212.129 38.2586 212.076 38.1875 212.042 38.1041C212.008 38.0207 211.994 37.9281 212.002 37.8363C212.002 37.7074 212.007 37.5288 212.015 37.3015C212.024 37.0742 212.036 36.8127 212.05 36.517C212.065 36.2215 212.082 35.904 212.103 35.5644C212.123 35.2247 212.144 34.8799 212.164 34.5302C212.185 34.1805 212.204 33.8341 212.221 33.491C212.239 33.1483 212.256 32.8307 212.274 32.5384C212.353 32.4338 212.45 32.3491 212.558 32.2892C212.745 32.1862 212.951 32.1389 213.158 32.1514C213.382 32.1388 213.604 32.1913 213.806 32.3041C213.972 32.4171 214.099 32.5937 214.165 32.8035C214.229 32.9871 214.296 33.1926 214.366 33.4199C214.436 33.6477 214.506 33.8804 214.576 34.1178C214.646 34.3556 214.715 34.5916 214.782 34.8257C214.849 35.06 214.912 35.2758 214.97 35.4729H215.014C215.178 34.875 215.341 34.2959 215.504 33.7358C215.668 33.1752 215.811 32.7047 215.934 32.3245C216.033 32.2701 216.137 32.2292 216.245 32.2026C216.381 32.167 216.521 32.1498 216.661 32.1514C216.876 32.1411 217.092 32.1862 217.291 32.2837C217.361 32.317 217.423 32.3697 217.472 32.4372C217.521 32.5047 217.555 32.585 217.571 32.6712C217.594 32.807 217.62 33.0142 217.65 33.2926C217.679 33.5711 217.708 33.8903 217.737 34.2502C217.767 34.6103 217.796 34.9891 217.825 35.3864C217.854 35.7833 217.88 36.167 217.904 36.5375C217.927 36.9076 217.947 37.2455 217.965 37.5513C217.982 37.8567 217.994 38.0943 218 38.2641C217.913 38.3251 217.818 38.3715 217.72 38.4019C217.597 38.4354 217.47 38.4508 217.343 38.4477C217.172 38.4532 217.003 38.4112 216.849 38.3253C216.777 38.2772 216.718 38.2071 216.679 38.1226C216.64 38.0382 216.621 37.9427 216.625 37.8468C216.584 37.0588 216.557 36.3372 216.542 35.6818C216.528 35.0262 216.512 34.4878 216.494 34.0666H216.45C216.38 34.3521 216.279 34.7121 216.148 35.1466C216.017 35.5813 215.855 36.1418 215.662 36.8279Z" fill="#3093BB"/>
<path d="M223.812 32.1516C223.866 32.236 223.909 32.3256 223.94 32.4187C223.979 32.5351 223.999 32.6561 223.997 32.7776C224.014 32.958 223.954 33.1374 223.83 33.2809C223.77 33.3367 223.697 33.3803 223.616 33.4087C223.535 33.4371 223.449 33.4496 223.362 33.4453H220.796V34.7897H223.42C223.471 34.8757 223.515 34.965 223.552 35.0568C223.597 35.1724 223.619 35.294 223.616 35.4162C223.633 35.5958 223.571 35.7744 223.443 35.914C223.382 35.9676 223.31 36.0094 223.231 36.0368C223.151 36.0641 223.066 36.0764 222.981 36.0729H220.82V38.3626C220.702 38.3882 220.582 38.4069 220.461 38.4187C220.3 38.4362 220.138 38.4447 219.976 38.4443C219.71 38.4676 219.443 38.4098 219.219 38.2804C219.138 38.2001 219.077 38.1056 219.04 38.0029C219.004 37.9003 218.992 37.7919 219.006 37.6849V33.0037C218.996 32.8897 219.014 32.7752 219.059 32.668C219.104 32.5608 219.174 32.4634 219.265 32.3826C219.356 32.3017 219.466 32.2392 219.586 32.1993C219.707 32.1595 219.836 32.1432 219.964 32.1516H223.812Z" fill="#3093BB"/>
<path d="M229.999 35.2947C230.008 35.7572 229.931 36.2172 229.773 36.6508C229.639 37.0184 229.428 37.3515 229.154 37.6266C228.881 37.9018 228.551 38.1122 228.189 38.243C227.416 38.5181 226.574 38.5181 225.801 38.243C225.446 38.1126 225.123 37.9066 224.853 37.6388C224.577 37.3591 224.364 37.0221 224.227 36.6508C224.069 36.2172 223.992 35.7572 224.001 35.2947C223.992 34.8333 224.07 34.3745 224.231 33.9433C224.373 33.5734 224.589 33.2384 224.867 32.9605C225.139 32.6939 225.462 32.4881 225.815 32.3564C226.193 32.2159 226.593 32.1458 226.995 32.1496C227.399 32.1461 227.8 32.2161 228.179 32.3564C228.535 32.4874 228.86 32.6932 229.133 32.9605C229.411 33.2384 229.627 33.5734 229.768 33.9433C229.93 34.3744 230.008 34.8332 229.999 35.2947ZM228.439 35.2947C228.476 34.7894 228.338 34.2871 228.05 33.8747C227.917 33.7245 227.754 33.6045 227.573 33.5223C227.392 33.4402 227.196 33.3977 226.998 33.3977C226.799 33.3977 226.603 33.4402 226.422 33.5223C226.241 33.6045 226.079 33.7245 225.946 33.8747C225.654 34.2857 225.514 34.7886 225.551 35.2947C225.514 35.8031 225.651 36.3089 225.94 36.7247C226.074 36.8748 226.237 36.9947 226.418 37.0768C226.6 37.1588 226.796 37.2012 226.995 37.2012C227.194 37.2012 227.39 37.1588 227.572 37.0768C227.753 36.9947 227.916 36.8748 228.05 36.7247C228.339 36.3089 228.477 35.8031 228.439 35.2947Z" fill="#3093BB"/>
<path d="M235.792 34.2614C235.797 34.6296 235.692 34.9909 235.49 35.298C235.285 35.6072 235.004 35.8578 234.675 36.0256C234.945 36.3842 235.203 36.7214 235.451 37.0369C235.647 37.2812 235.83 37.5357 236 37.7995C235.952 37.9959 235.834 38.1678 235.669 38.2828C235.513 38.3907 235.328 38.4481 235.139 38.4472C234.935 38.4615 234.732 38.4033 234.565 38.2828C234.417 38.1532 234.29 38.0001 234.19 37.8297L233.24 36.3443H232.558V38.3479C232.457 38.3727 232.354 38.3909 232.251 38.4024C232.113 38.4193 231.974 38.4276 231.836 38.4273C231.608 38.4499 231.379 38.3937 231.187 38.2681C231.118 38.1902 231.066 38.0984 231.035 37.9987C231.003 37.8991 230.993 37.7939 231.005 37.69V32.8559C230.998 32.7431 231.035 32.632 231.109 32.5468C231.193 32.4651 231.297 32.4067 231.41 32.3775C231.656 32.2898 231.912 32.2329 232.172 32.2081C232.48 32.1742 232.791 32.1575 233.101 32.158C233.819 32.1043 234.532 32.3035 235.119 32.7216C235.342 32.9087 235.518 33.145 235.635 33.4121C235.752 33.6792 235.805 33.9698 235.792 34.2614ZM233.151 35.1384C233.424 35.1508 233.694 35.0758 233.923 34.9242C234.022 34.8491 234.102 34.75 234.154 34.6358C234.206 34.5217 234.228 34.3963 234.22 34.2711C234.22 33.6998 233.84 33.4141 233.082 33.4141C232.986 33.4135 232.89 33.4185 232.795 33.4292C232.709 33.4389 232.623 33.4506 232.538 33.4637V35.1384H233.151Z" fill="#3093BB"/>
<path d="M238.603 33.4443V38.3628C238.523 38.3884 238.442 38.4072 238.361 38.419C238.251 38.4364 238.141 38.4449 238.031 38.4446C237.85 38.4672 237.668 38.4094 237.514 38.2806C237.458 38.2013 237.416 38.107 237.39 38.0041C237.365 37.9013 237.356 37.7924 237.366 37.685V33.4443H236.135C236.098 33.3595 236.068 33.2699 236.045 33.177C236.016 33.0612 236.001 32.9397 236.002 32.8175C235.99 32.6347 236.032 32.4528 236.12 32.3096C236.162 32.2553 236.212 32.213 236.267 32.1856C236.323 32.1581 236.382 32.1461 236.441 32.1502H239.865C239.906 32.2327 239.938 32.3227 239.959 32.4174C239.986 32.5338 239.999 32.6549 239.998 32.7764C240.009 32.9577 239.967 33.1378 239.881 33.2798C239.839 33.3355 239.789 33.3789 239.734 33.4073C239.678 33.4356 239.619 33.4482 239.559 33.4443H238.603Z" fill="#3093BB"/>
<path d="M107.866 10.5277V20.1312C107.685 20.1816 107.503 20.2183 107.318 20.2413C107.072 20.2755 106.825 20.2924 106.577 20.2917C106.168 20.3358 105.758 20.2227 105.412 19.9706C105.285 19.8159 105.19 19.6318 105.132 19.4311C105.074 19.2304 105.055 19.0178 105.076 18.808V10.5277H102.305C102.222 10.3623 102.154 10.1877 102.102 10.0065C102.035 9.78029 102.003 9.5431 102.005 9.30466C101.977 8.94744 102.072 8.59182 102.269 8.31221C102.365 8.20625 102.478 8.12391 102.603 8.07043C102.727 8.01695 102.86 7.99349 102.993 8.00155H110.708C110.801 8.16219 110.872 8.33792 110.92 8.52279C110.98 8.75015 111.01 8.98664 111.008 9.22417C111.033 9.57803 110.938 9.92943 110.743 10.2066C110.649 10.3154 110.536 10.4003 110.412 10.4557C110.287 10.5111 110.153 10.5356 110.019 10.5277H107.866Z" fill="#3093BB"/>
<path d="M123.627 14.1413C123.643 15.0445 123.493 15.9427 123.185 16.7895C122.924 17.5072 122.512 18.1575 121.977 18.6947C121.443 19.2319 120.8 19.6428 120.093 19.8983C118.583 20.4353 116.94 20.4353 115.43 19.8983C114.738 19.6437 114.106 19.2414 113.578 18.7181C113.04 18.1721 112.623 17.5144 112.356 16.7895C112.048 15.9427 111.898 15.0445 111.914 14.1413C111.897 13.2403 112.051 12.3445 112.366 11.5026C112.641 10.7803 113.064 10.1262 113.607 9.58363C114.137 9.06309 114.767 8.66112 115.458 8.40341C116.196 8.12944 116.976 7.9929 117.761 8.00028C118.55 7.99348 119.333 8.12998 120.074 8.40341C120.768 8.65949 121.403 9.06157 121.935 9.58363C122.478 10.1262 122.901 10.7803 123.176 11.5026C123.491 12.3444 123.644 13.2403 123.627 14.1413ZM120.582 14.1413C120.582 12.9132 120.328 11.9888 119.82 11.3682C119.561 11.0751 119.244 10.8409 118.89 10.6805C118.536 10.5202 118.153 10.4374 117.766 10.4374C117.379 10.4374 116.996 10.5202 116.643 10.6805C116.289 10.8409 115.972 11.0751 115.712 11.3682C115.198 11.9891 114.941 12.9135 114.941 14.1413C114.941 15.3823 115.195 16.313 115.703 16.9332C115.963 17.2263 116.281 17.4606 116.636 17.6209C116.99 17.7812 117.374 17.864 117.761 17.864C118.149 17.864 118.533 17.7812 118.887 17.6209C119.242 17.4606 119.56 17.2263 119.82 16.9332C120.328 16.3131 120.582 15.3825 120.582 14.1413H120.582Z" fill="#3093BB"/>
<path d="M130.982 10.5277V20.1312C130.784 20.1816 130.583 20.2183 130.38 20.2413C130.109 20.2755 129.837 20.2924 129.564 20.2917C129.114 20.3358 128.663 20.2228 128.283 19.9706C128.144 19.8159 128.039 19.6318 127.975 19.4311C127.911 19.2304 127.89 19.0178 127.914 18.808V10.5277H124.865C124.774 10.3623 124.699 10.1877 124.642 10.0065C124.569 9.78029 124.533 9.5431 124.535 9.30466C124.504 8.94744 124.609 8.59182 124.826 8.31221C124.931 8.20625 125.056 8.12391 125.193 8.07043C125.33 8.01695 125.476 7.99349 125.622 8.00155H134.108C134.211 8.16219 134.29 8.33792 134.341 8.52279C134.408 8.75015 134.441 8.98664 134.438 9.22417C134.466 9.57803 134.362 9.92943 134.147 10.2066C134.044 10.3154 133.92 10.4003 133.783 10.4557C133.645 10.5111 133.498 10.5356 133.351 10.5277H130.982Z" fill="#3093BB"/>
<path d="M142.22 17.4801H138.24C138.091 17.9521 137.953 18.4176 137.824 18.8766C137.695 19.3358 137.584 19.7423 137.489 20.0959C137.313 20.148 137.131 20.194 136.941 20.2338C136.714 20.2764 136.482 20.2962 136.251 20.2927C135.78 20.3227 135.31 20.2167 134.901 19.988C134.753 19.8924 134.634 19.7617 134.554 19.6083C134.474 19.455 134.436 19.2842 134.444 19.1126C134.443 18.9327 134.471 18.7537 134.525 18.5816C134.579 18.4113 134.64 18.2146 134.708 17.9914C134.802 17.6376 134.938 17.1984 135.114 16.6738C135.29 16.1497 135.483 15.5826 135.693 14.9726C135.902 14.3631 136.122 13.7371 136.352 13.0946C136.582 12.4523 136.806 11.8393 137.022 11.2555C137.239 10.6721 137.435 10.1379 137.611 9.65289C137.787 9.16761 137.936 8.78078 138.058 8.49241C138.355 8.33986 138.673 8.22729 139.002 8.15779C139.416 8.05459 139.843 8.00183 140.271 8.00073C140.819 7.99126 141.365 8.07445 141.885 8.24657C142.09 8.30493 142.279 8.40913 142.436 8.55082C142.593 8.69251 142.714 8.86777 142.788 9.06262C143.045 9.75788 143.323 10.5643 143.621 11.4817C143.918 12.3998 144.219 13.3438 144.524 14.3136C144.829 15.2841 145.123 16.2413 145.407 17.1851C145.691 18.1292 145.942 18.9749 146.158 19.7221C145.979 19.9124 145.751 20.0547 145.499 20.1352C145.162 20.2473 144.808 20.3006 144.453 20.2927C144.021 20.3326 143.588 20.2286 143.225 19.9978C142.957 19.749 142.776 19.426 142.707 19.0733L142.22 17.4801ZM140.25 10.7541C140.061 11.3439 139.827 12.0158 139.55 12.7699C139.272 13.524 139.012 14.2944 138.768 15.081H141.672C141.441 14.2547 141.208 13.4647 140.971 12.711C140.734 11.9572 140.535 11.3049 140.372 10.7541H140.25Z" fill="#3093BB"/>
<path d="M147.502 19.8514C147.352 19.6918 147.235 19.5028 147.159 19.296C147.084 19.0892 147.05 18.8688 147.061 18.6484V8.16613C147.205 8.13981 147.41 8.10671 147.678 8.06686C147.94 8.02751 148.205 8.0076 148.471 8.00729C148.915 7.97033 149.36 8.07455 149.743 8.30555C149.892 8.45762 150.005 8.64255 150.073 8.84604C150.141 9.04954 150.162 9.26615 150.135 9.47917V17.7731H154.833C154.925 17.9373 155.001 18.1105 155.058 18.2902C155.132 18.5146 155.168 18.7499 155.166 18.9864C155.192 19.3387 155.091 19.6886 154.882 19.971C154.785 20.0805 154.665 20.1668 154.532 20.2235C154.398 20.2803 154.253 20.3061 154.109 20.299H148.686C148.469 20.3101 148.252 20.2761 148.048 20.1991C147.845 20.1222 147.659 20.0039 147.502 19.8514Z" fill="#3093BB"/>
<path d="M163.844 20.2418C163.583 20.2755 163.321 20.2921 163.058 20.2914C162.628 20.3361 162.196 20.2247 161.833 19.9756C161.702 19.8217 161.603 19.6402 161.544 19.4431C161.484 19.246 161.465 19.0378 161.487 18.8323V8.1647C161.624 8.1386 161.821 8.10579 162.076 8.06628C162.327 8.02727 162.58 8.00754 162.834 8.00723C163.258 7.97058 163.683 8.0739 164.049 8.30291C164.192 8.45366 164.3 8.63699 164.365 8.83872C164.43 9.04045 164.45 9.25519 164.423 9.46637V12.9366H168.445V8.1647C168.582 8.1386 168.778 8.10579 169.034 8.06628C169.291 8.02679 169.55 8.00706 169.81 8.00723C170.231 7.97063 170.652 8.08148 171.007 8.32259C171.149 8.4782 171.256 8.6651 171.32 8.86974C171.385 9.07438 171.406 9.29163 171.381 9.50574V20.1335C171.19 20.1831 170.996 20.2192 170.801 20.2418C170.54 20.2755 170.278 20.2921 170.016 20.2914C169.585 20.3361 169.153 20.2247 168.791 19.9756C168.659 19.8218 168.561 19.6403 168.501 19.4431C168.441 19.246 168.422 19.0378 168.445 18.8323V15.3817H164.423V20.1335C164.233 20.1831 164.039 20.2193 163.844 20.2418Z" fill="#3093BB"/>
<path d="M174.519 19.8439C174.376 19.6816 174.265 19.4895 174.192 19.2792C174.12 19.069 174.088 18.8449 174.099 18.6209V9.68239C174.083 9.45776 174.113 9.23221 174.185 9.0211C174.258 8.80999 174.372 8.61828 174.519 8.45902C174.666 8.29976 174.843 8.17671 175.038 8.09823C175.232 8.01975 175.441 7.98769 175.648 8.00424H181.827C181.912 8.16427 181.981 8.33376 182.032 8.50979C182.097 8.73194 182.129 8.964 182.126 9.19703C182.152 9.55223 182.055 9.90533 181.855 10.1879C181.758 10.298 181.64 10.3839 181.51 10.4398C181.379 10.4956 181.239 10.5201 181.099 10.5114H176.955V12.7762H181.286C181.37 12.9364 181.439 13.1059 181.491 13.2818C181.556 13.5041 181.587 13.7363 181.584 13.9695C181.611 14.3201 181.518 14.6692 181.323 14.9503C181.227 15.058 181.11 15.1419 180.982 15.196C180.853 15.2501 180.714 15.2732 180.576 15.2636H176.955V17.7914H181.902C181.989 17.9575 182.058 18.1339 182.107 18.3171C182.171 18.5466 182.203 18.7853 182.2 19.025C182.229 19.3743 182.132 19.7221 181.93 19.9957C181.833 20.099 181.717 20.1793 181.59 20.2315C181.464 20.2837 181.328 20.3067 181.192 20.299H175.648C175.441 20.3102 175.234 20.2757 175.04 20.1974C174.846 20.1192 174.669 19.9989 174.519 19.8439Z" fill="#3093BB"/>
<path d="M191.186 17.4801H187.513C187.376 17.9521 187.248 18.4176 187.129 18.8766C187.01 19.3358 186.907 19.7423 186.82 20.0959C186.657 20.148 186.489 20.194 186.314 20.2338C186.104 20.2764 185.89 20.2962 185.677 20.2927C185.242 20.3227 184.808 20.2167 184.43 19.988C184.294 19.8924 184.184 19.7617 184.11 19.6083C184.036 19.455 184.001 19.2842 184.009 19.1126C184.008 18.9327 184.033 18.7537 184.084 18.5816C184.133 18.4113 184.19 18.2146 184.252 17.9914C184.34 17.6376 184.465 17.1984 184.627 16.6738C184.789 16.1497 184.968 15.5826 185.161 14.9726C185.355 14.3631 185.558 13.7371 185.77 13.0946C185.983 12.4523 186.189 11.8393 186.389 11.2555C186.588 10.6721 186.77 10.1379 186.932 9.65289C187.095 9.16761 187.232 8.78078 187.345 8.49241C187.619 8.33986 187.912 8.22729 188.216 8.15779C188.599 8.05459 188.992 8.00183 189.387 8.00073C189.894 7.99126 190.398 8.07445 190.877 8.24657C191.067 8.30493 191.242 8.40913 191.386 8.55082C191.531 8.69251 191.642 8.86777 191.711 9.06262C191.948 9.75788 192.204 10.5643 192.479 11.4817C192.754 12.3998 193.032 13.3438 193.313 14.3136C193.595 15.2841 193.866 16.2413 194.129 17.1851C194.391 18.1292 194.622 18.9749 194.822 19.7221C194.656 19.9124 194.446 20.0547 194.213 20.1352C193.903 20.2473 193.576 20.3006 193.248 20.2927C192.849 20.3326 192.449 20.2286 192.114 19.9978C191.867 19.749 191.7 19.426 191.636 19.0733L191.186 17.4801ZM189.369 10.7541C189.193 11.3439 188.978 12.0158 188.722 12.7699C188.466 13.524 188.225 14.2944 188.001 15.081H190.68C190.468 14.2547 190.252 13.4647 190.034 12.711C189.815 11.9572 189.631 11.3049 189.481 10.7541H189.369Z" fill="#3093BB"/>
<path d="M197.067 19.8514C196.917 19.6918 196.801 19.5028 196.725 19.296C196.649 19.0892 196.616 18.8688 196.626 18.6484V8.16613C196.77 8.13981 196.976 8.10671 197.243 8.06686C197.506 8.02751 197.771 8.0076 198.036 8.00729C198.48 7.97033 198.925 8.07455 199.308 8.30555C199.458 8.45762 199.571 8.64255 199.639 8.84604C199.707 9.04954 199.728 9.26615 199.7 9.47917V17.7731H204.398C204.491 17.9373 204.566 18.1105 204.624 18.2902C204.697 18.5146 204.733 18.7499 204.731 18.9864C204.757 19.3387 204.656 19.6886 204.447 19.971C204.35 20.0805 204.231 20.1668 204.097 20.2235C203.963 20.2803 203.819 20.3061 203.674 20.299H198.251C198.034 20.3101 197.817 20.2761 197.614 20.1991C197.41 20.1222 197.224 20.0039 197.067 19.8514Z" fill="#3093BB"/>
<path d="M210.601 10.5277V20.1312C210.421 20.1816 210.238 20.2183 210.054 20.2413C209.808 20.2755 209.56 20.2924 209.312 20.2917C208.903 20.3358 208.493 20.2227 208.147 19.9706C208.021 19.8159 207.925 19.6318 207.867 19.4311C207.809 19.2304 207.79 19.0178 207.812 18.808V10.5277H205.04C204.957 10.3623 204.889 10.1877 204.837 10.0065C204.771 9.78029 204.738 9.5431 204.74 9.30466C204.712 8.94744 204.807 8.59182 205.005 8.31221C205.1 8.20625 205.213 8.12391 205.338 8.07043C205.463 8.01695 205.596 7.99349 205.729 8.00155H213.443C213.536 8.16219 213.608 8.33792 213.655 8.52279C213.716 8.75015 213.745 8.98665 213.743 9.22417C213.768 9.57802 213.674 9.92943 213.478 10.2066C213.385 10.3154 213.272 10.4003 213.147 10.4557C213.022 10.5111 212.888 10.5356 212.755 10.5277H210.601Z" fill="#3093BB"/>
<path d="M217.915 20.2418C217.654 20.2755 217.392 20.2921 217.129 20.2914C216.699 20.3361 216.267 20.2247 215.905 19.9756C215.773 19.8218 215.675 19.6403 215.615 19.4432C215.555 19.2461 215.536 19.0378 215.558 18.8323V8.16471C215.696 8.13861 215.892 8.1058 216.148 8.06629C216.398 8.02727 216.652 8.00754 216.905 8.00724C217.33 7.97056 217.754 8.07389 218.121 8.30292C218.263 8.45365 218.371 8.63697 218.436 8.8387C218.501 9.04044 218.521 9.25519 218.495 9.46638V12.9367H222.516V8.16471C222.653 8.13861 222.849 8.1058 223.105 8.06629C223.362 8.0268 223.621 8.00707 223.881 8.00724C224.302 7.97067 224.723 8.08151 225.078 8.3226C225.22 8.47819 225.327 8.66508 225.392 8.86973C225.456 9.07437 225.477 9.29162 225.452 9.50575V20.1335C225.261 20.183 225.068 20.2192 224.872 20.2418C224.612 20.2755 224.349 20.2921 224.087 20.2914C223.656 20.3361 223.224 20.2247 222.862 19.9756C222.731 19.8218 222.632 19.6403 222.572 19.4432C222.513 19.2461 222.493 19.0378 222.516 18.8323V15.3817H218.495V20.1335C218.304 20.1831 218.11 20.2193 217.915 20.2418Z" fill="#3093BB"/>
<path d="M235.787 17.844C236.296 17.8898 236.806 17.765 237.237 17.4892C237.371 17.39 237.479 17.2613 237.554 17.113C237.629 16.9648 237.669 16.8012 237.669 16.6351C237.674 16.4944 237.646 16.3545 237.588 16.2264C237.53 16.0982 237.442 15.9853 237.333 15.8964C237.03 15.6718 236.688 15.5058 236.325 15.4071L235.345 15.1002C234.847 14.9491 234.359 14.7664 233.885 14.553C233.479 14.3742 233.104 14.1348 232.77 13.843C232.465 13.5704 232.219 13.2371 232.05 12.8644C231.866 12.431 231.777 11.9632 231.79 11.4927C231.773 11.0006 231.874 10.5114 232.087 10.067C232.299 9.62253 232.616 9.23603 233.01 8.94046C233.824 8.31374 234.954 8.00031 236.401 8.00017C236.913 7.99707 237.423 8.03565 237.928 8.11552C238.343 8.17632 238.748 8.29579 239.129 8.47032C239.431 8.60663 239.7 8.80617 239.917 9.0554C240.107 9.28066 240.21 9.56693 240.206 9.8616C240.211 10.1368 240.134 10.4073 239.985 10.6386C239.846 10.8529 239.674 11.0439 239.475 11.2046C239.115 10.9708 238.719 10.7959 238.304 10.6865C237.785 10.5417 237.248 10.4706 236.709 10.4754C236.236 10.4426 235.764 10.5424 235.345 10.7636C235.213 10.8354 235.103 10.9406 235.025 11.0687C234.948 11.1968 234.906 11.3431 234.903 11.4927C234.897 11.6067 234.92 11.7203 234.971 11.8227C235.021 11.9251 235.097 12.0129 235.191 12.0778C235.473 12.2542 235.776 12.393 236.094 12.4905L237.132 12.8357C237.676 13.0163 238.206 13.2377 238.716 13.4978C239.135 13.7092 239.52 13.9807 239.86 14.3036C240.161 14.5961 240.397 14.9495 240.551 15.3401C240.711 15.766 240.79 16.2185 240.782 16.6735C240.788 17.1804 240.68 17.6822 240.465 18.1414C240.246 18.5914 239.924 18.9828 239.524 19.2832C239.062 19.6253 238.541 19.879 237.986 20.0316C237.301 20.2207 236.593 20.3112 235.883 20.3002C235.335 20.3039 234.788 20.2558 234.25 20.1565C233.801 20.077 233.365 19.9382 232.953 19.7438C232.619 19.5893 232.324 19.3632 232.089 19.0817C231.881 18.8309 231.769 18.5151 231.771 18.1897C231.76 17.875 231.866 17.5674 232.069 17.326C232.257 17.1046 232.481 16.9165 232.732 16.7697C233.126 17.0796 233.563 17.3315 234.029 17.518C234.587 17.7429 235.185 17.8538 235.787 17.844Z" fill="#3093BB"/>
<path d="M254.299 14.1413C254.315 15.0445 254.165 15.9427 253.857 16.7895C253.596 17.5072 253.184 18.1575 252.649 18.6947C252.115 19.2319 251.472 19.6428 250.765 19.8983C249.255 20.4353 247.612 20.4353 246.102 19.8983C245.41 19.6437 244.778 19.2414 244.25 18.7181C243.712 18.1722 243.295 17.5144 243.028 16.7895C242.72 15.9427 242.57 15.0445 242.586 14.1413C242.569 13.2403 242.723 12.3445 243.037 11.5026C243.313 10.7803 243.736 10.1262 244.278 9.58364C244.808 9.06313 245.439 8.66117 246.13 8.40341C246.868 8.12941 247.648 7.99287 248.433 8.00029C249.221 7.99346 250.005 8.12997 250.746 8.40341C251.44 8.65944 252.075 9.06153 252.607 9.58364C253.149 10.1262 253.572 10.7803 253.848 11.5026C254.163 12.3445 254.316 13.2403 254.299 14.1413ZM251.253 14.1413C251.253 12.9132 251 11.9888 250.492 11.3682C250.232 11.0751 249.916 10.8409 249.562 10.6805C249.208 10.5202 248.825 10.4374 248.438 10.4374C248.051 10.4374 247.668 10.5202 247.314 10.6805C246.961 10.8409 246.644 11.0751 246.384 11.3682C245.87 11.9891 245.613 12.9135 245.613 14.1413C245.613 15.3823 245.867 16.313 246.375 16.9332C246.635 17.2263 246.953 17.4606 247.307 17.6209C247.662 17.7812 248.046 17.864 248.433 17.864C248.821 17.864 249.205 17.7812 249.559 17.6209C249.914 17.4606 250.231 17.2263 250.492 16.9332C251 16.3131 251.253 15.3825 251.253 14.1413Z" fill="#3093BB"/>
<path d="M256.545 19.8514C256.395 19.6917 256.278 19.5027 256.203 19.2959C256.127 19.0891 256.094 18.8688 256.105 18.6484V8.16614C256.248 8.13981 256.453 8.10672 256.721 8.06686C256.983 8.02751 257.248 8.0076 257.514 8.0073C257.958 7.97031 258.403 8.07454 258.787 8.30556C258.936 8.45765 259.049 8.64258 259.117 8.84608C259.185 9.04957 259.205 9.26617 259.178 9.47918V17.7731H263.876C263.968 17.9372 264.044 18.1104 264.101 18.2902C264.175 18.5146 264.211 18.7499 264.209 18.9864C264.235 19.3387 264.134 19.6887 263.925 19.971C263.828 20.0805 263.709 20.1668 263.575 20.2235C263.441 20.2803 263.297 20.3061 263.152 20.299H257.729C257.512 20.3101 257.295 20.2761 257.092 20.1991C256.888 20.1221 256.702 20.0038 256.545 19.8514Z" fill="#3093BB"/>
<path d="M270.957 20.3002C270.252 20.3119 269.55 20.2004 268.881 19.9702C268.309 19.7716 267.781 19.4544 267.331 19.038C266.906 18.637 266.572 18.1427 266.355 17.5912C266.122 16.9893 266.007 16.3457 266.016 15.6976V8.16263C266.154 8.13693 266.351 8.10462 266.608 8.0657C266.866 8.02681 267.127 8.00738 267.388 8.00754C267.811 7.97021 268.235 8.07213 268.599 8.29876C268.74 8.44894 268.846 8.63 268.909 8.82841C268.973 9.02682 268.992 9.23746 268.966 9.44466V15.6395C268.948 15.9344 268.988 16.2301 269.083 16.5088C269.178 16.7875 269.327 17.0434 269.52 17.2612C269.709 17.4528 269.934 17.6024 270.181 17.7009C270.428 17.7994 270.692 17.8447 270.957 17.8339C271.225 17.8458 271.492 17.8012 271.742 17.7027C271.993 17.6042 272.221 17.454 272.413 17.2612C272.607 17.0433 272.755 16.7874 272.851 16.5087C272.946 16.2301 272.986 15.9344 272.968 15.6395V8.16266C273.105 8.13695 273.303 8.10464 273.559 8.06573C273.817 8.02686 274.078 8.00742 274.339 8.00757C274.763 7.97029 275.187 8.07221 275.551 8.29879C275.691 8.44897 275.797 8.63 275.861 8.82841C275.924 9.02682 275.944 9.23749 275.917 9.44469V15.6976C275.927 16.3457 275.812 16.9893 275.579 17.5912C275.361 18.1426 275.028 18.6369 274.602 19.038C274.149 19.4557 273.619 19.7729 273.043 19.9702C272.37 20.1998 271.665 20.3113 270.957 20.3002Z" fill="#3093BB"/>
<path d="M284.184 10.5277V20.1312C283.986 20.1816 283.785 20.2183 283.582 20.2413C283.311 20.2756 283.039 20.2924 282.766 20.2917C282.316 20.3358 281.865 20.2228 281.484 19.9706C281.345 19.8159 281.24 19.6318 281.176 19.4311C281.113 19.2304 281.092 19.0179 281.115 18.808V10.5277H278.067C277.975 10.3623 277.9 10.1877 277.843 10.0065C277.77 9.78027 277.734 9.54309 277.737 9.30466C277.706 8.94743 277.81 8.59177 278.028 8.31221C278.132 8.20625 278.257 8.12391 278.394 8.07043C278.531 8.01695 278.678 7.99349 278.824 8.00155H287.31C287.413 8.16214 287.491 8.33789 287.543 8.52279C287.61 8.75018 287.642 8.98666 287.64 9.22417C287.668 9.578 287.564 9.9294 287.349 10.2066C287.246 10.3154 287.122 10.4003 286.984 10.4557C286.847 10.511 286.7 10.5356 286.553 10.5277H284.184Z" fill="#3093BB"/>
<path d="M290.891 20.2914C290.498 20.3361 290.103 20.2247 289.771 19.9756C289.651 19.8218 289.561 19.6403 289.507 19.4432C289.452 19.2461 289.435 19.0378 289.455 18.8323V8.16512C289.58 8.13902 289.76 8.10621 289.994 8.0667C290.229 8.02722 290.466 8.00749 290.703 8.00765C291.089 7.96976 291.475 8.07323 291.807 8.30332C291.935 8.45584 292.031 8.63968 292.089 8.84112C292.146 9.04256 292.164 9.25641 292.14 9.46675V20.1335C291.966 20.1831 291.788 20.2193 291.61 20.2418C291.372 20.2755 291.132 20.2921 290.891 20.2914Z" fill="#3093BB"/>
<path d="M305.667 14.1413C305.683 15.0445 305.533 15.9427 305.225 16.7895C304.964 17.5072 304.551 18.1575 304.017 18.6947C303.483 19.2319 302.839 19.6428 302.132 19.8983C300.623 20.4353 298.979 20.4353 297.47 19.8983C296.777 19.6437 296.146 19.2414 295.618 18.7181C295.08 18.1722 294.663 17.5144 294.396 16.7895C294.088 15.9427 293.938 15.0445 293.954 14.1413C293.937 13.2403 294.09 12.3445 294.405 11.5026C294.681 10.7803 295.104 10.1262 295.646 9.58364C296.176 9.06313 296.807 8.66117 297.498 8.40341C298.236 8.12941 299.016 7.99287 299.801 8.00029C300.589 7.99346 301.372 8.12997 302.114 8.40341C302.808 8.65944 303.442 9.06153 303.975 9.58364C304.517 10.1262 304.94 10.7803 305.216 11.5026C305.531 12.3445 305.684 13.2403 305.667 14.1413ZM302.621 14.1413C302.621 12.9132 302.367 11.9888 301.86 11.3682C301.6 11.0751 301.283 10.8409 300.929 10.6805C300.576 10.5202 300.193 10.4374 299.806 10.4374C299.419 10.4374 299.036 10.5202 298.682 10.6805C298.328 10.8409 298.011 11.0751 297.752 11.3682C297.238 11.9891 296.981 12.9135 296.981 14.1413C296.981 15.3823 297.235 16.313 297.742 16.9332C298.003 17.2263 298.321 17.4606 298.675 17.6209C299.03 17.7812 299.413 17.864 299.801 17.864C300.189 17.864 300.572 17.7812 300.927 17.6209C301.281 17.4606 301.599 17.2263 301.86 16.9332C302.367 16.3131 302.621 15.3825 302.621 14.1413H302.621Z" fill="#3093BB"/>
<path d="M317.575 20.1525C317.233 20.2577 316.878 20.3076 316.523 20.3004C316.12 20.3031 315.72 20.2297 315.341 20.0836C314.926 19.8932 314.596 19.5408 314.418 19.0988L312.275 14.6865C312.066 14.2663 311.873 13.8461 311.694 13.4259C311.515 13.0057 311.34 12.5657 311.168 12.1059L311.039 12.1456C311.1 12.9334 311.137 13.6852 311.15 14.4009C311.162 15.1165 311.168 15.8091 311.168 16.4788V20.1426C311.045 20.1687 310.863 20.1982 310.623 20.2311C310.375 20.2646 310.125 20.2812 309.875 20.2807C309.466 20.323 309.056 20.2152 308.712 19.9751C308.587 19.8287 308.492 19.6554 308.435 19.4669C308.378 19.2784 308.359 19.079 308.38 18.882V8.73786C308.56 8.48957 308.809 8.30721 309.091 8.21592C309.426 8.0895 309.778 8.02614 310.134 8.02869C310.54 8.02411 310.943 8.09752 311.325 8.24542C311.731 8.43429 312.057 8.77855 312.239 9.21064L314.399 13.6426C314.608 14.0628 314.802 14.483 314.981 14.9032C315.159 15.3234 315.334 15.7633 315.507 16.2228L315.581 16.2031C315.519 15.3234 315.485 14.4895 315.479 13.7016C315.473 12.9138 315.47 12.1587 315.47 11.4364V8.16634C315.593 8.14026 315.775 8.10749 316.015 8.06802C316.268 8.02763 316.525 8.00791 316.781 8.00903C317.19 7.96665 317.6 8.07431 317.944 8.31424C318.069 8.46068 318.164 8.63394 318.221 8.82244C318.278 9.01095 318.297 9.21035 318.276 9.40727V19.7682C318.069 19.9455 317.831 20.0763 317.575 20.1525Z" fill="#3093BB"/>
<path d="M325.004 17.844C325.514 17.8898 326.024 17.765 326.455 17.4892C326.588 17.39 326.697 17.2613 326.772 17.113C326.847 16.9648 326.886 16.8012 326.887 16.6351C326.892 16.4945 326.864 16.3546 326.806 16.2264C326.748 16.0983 326.661 15.9853 326.551 15.8964C326.248 15.6719 325.906 15.5059 325.542 15.4071L324.563 15.1002C324.065 14.9491 323.577 14.7664 323.102 14.553C322.697 14.3742 322.322 14.1348 321.988 13.843C321.683 13.5707 321.437 13.2373 321.268 12.8644C321.084 12.4311 320.995 11.9633 321.009 11.4927C320.991 11.0006 321.092 10.5113 321.305 10.0669C321.517 9.62244 321.834 9.23596 322.229 8.94046C323.042 8.31374 324.172 8.00031 325.619 8.00017C326.131 7.9971 326.642 8.03568 327.147 8.11552C327.562 8.17643 327.966 8.2959 328.347 8.47031C328.649 8.60673 328.917 8.80626 329.135 9.05539C329.325 9.28056 329.428 9.56689 329.423 9.86159C329.429 10.1368 329.352 10.4073 329.202 10.6386C329.064 10.8529 328.892 11.0439 328.693 11.2046C328.333 10.9707 327.937 10.7958 327.521 10.6865C327.002 10.5417 326.466 10.4706 325.927 10.4754C325.454 10.4426 324.981 10.5424 324.563 10.7636C324.431 10.8354 324.321 10.9406 324.243 11.0687C324.166 11.1968 324.123 11.3431 324.121 11.4927C324.115 11.6067 324.138 11.7204 324.189 11.8228C324.239 11.9252 324.315 12.013 324.409 12.0778C324.691 12.2543 324.994 12.3931 325.312 12.4905L326.349 12.8357C326.894 13.0163 327.423 13.2377 327.934 13.4978C328.353 13.7091 328.738 13.9806 329.077 14.3036C329.379 14.5961 329.615 14.9494 329.769 15.3401C329.929 15.7661 330.007 16.2185 330 16.6735C330.006 17.1804 329.898 17.6823 329.683 18.1414C329.464 18.5914 329.142 18.9829 328.741 19.2832C328.28 19.6254 327.758 19.8791 327.204 20.0316C326.519 20.2207 325.811 20.3112 325.101 20.3002C324.553 20.3039 324.006 20.2558 323.468 20.1565C323.019 20.0769 322.583 19.9381 322.171 19.7438C321.837 19.5892 321.542 19.3631 321.306 19.0817C321.099 18.8309 320.986 18.5151 320.989 18.1897C320.978 17.8749 321.084 17.5673 321.287 17.326C321.475 17.1047 321.699 16.9166 321.95 16.7697C322.344 17.0794 322.781 17.3314 323.247 17.518C323.805 17.7429 324.403 17.8538 325.004 17.844Z" fill="#3093BB"/>
</svg>
