<svg width="177" height="24" viewBox="0 0 177 24" fill="none" xmlns="http://www.w3.org/2000/svg">
<path d="M2.69361 19.9848C2.76323 19.951 2.83503 19.9234 2.90836 19.9023C3.00516 19.873 3.10489 19.8584 3.205 19.859C3.35186 19.8536 3.49811 19.8831 3.63465 19.9457C3.68497 19.9669 3.73027 20.0015 3.76695 20.0465C3.80363 20.0915 3.83066 20.1458 3.8459 20.205C3.9005 20.4356 3.95277 20.649 4.00272 20.8452C4.05283 21.0417 4.10061 21.2315 4.14605 21.4149C4.19133 21.5983 4.23561 21.779 4.27889 21.957C4.32201 22.1349 4.36407 22.3209 4.40507 22.5147H4.4392C4.48448 22.1898 4.52538 21.8768 4.56189 21.5756C4.59818 21.2745 4.63341 20.9786 4.66759 20.688C4.70172 20.3972 4.73467 20.1078 4.76646 19.8199C4.79825 19.5318 4.83005 19.2359 4.86185 18.9322C5.00842 18.8324 5.17589 18.7808 5.3461 18.783C5.48226 18.7788 5.61675 18.8182 5.73464 18.8969C5.78956 18.937 5.83387 18.9938 5.86272 19.0609C5.89158 19.1281 5.90388 19.2031 5.89828 19.2778C5.89523 19.4393 5.88501 19.6005 5.86765 19.7608C5.84717 19.9729 5.81876 20.2112 5.78242 20.4758C5.74596 20.7405 5.7039 21.0168 5.65624 21.3048C5.60846 21.5929 5.55847 21.8718 5.50625 22.1414C5.45397 22.4111 5.40059 22.6573 5.34611 22.8799C5.30418 23.0605 5.25174 23.2376 5.18913 23.41C5.09995 23.4872 4.99778 23.5421 4.88915 23.5712C4.75163 23.6158 4.60938 23.6383 4.4665 23.6379C4.30053 23.6428 4.13522 23.6122 3.97891 23.5478C3.92343 23.5295 3.87223 23.497 3.82914 23.4528C3.78606 23.4085 3.75218 23.3537 3.73003 23.2923C3.66628 23.0725 3.59243 22.7963 3.50847 22.4637C3.42424 22.1311 3.33673 21.7736 3.24596 21.3911C3.2095 21.5798 3.17088 21.7684 3.1301 21.9569C3.08914 22.1453 3.04819 22.3285 3.00724 22.5066C2.96629 22.685 2.92651 22.8514 2.88789 23.0057C2.84927 23.1603 2.81409 23.2978 2.78235 23.4181C2.6986 23.487 2.60518 23.5388 2.50618 23.5712C2.37477 23.6175 2.23791 23.64 2.1005 23.6379C1.93217 23.6405 1.76478 23.6087 1.60609 23.5439C1.48524 23.5055 1.38162 23.4155 1.31627 23.2923C1.26267 23.1523 1.21821 23.0079 1.18326 22.8603C1.13565 22.6716 1.08566 22.4555 1.03328 22.212C0.981001 21.9684 0.928729 21.7066 0.876454 21.4264C0.824178 21.1464 0.774182 20.8662 0.726467 20.5859C0.678689 20.3059 0.636624 20.0322 0.600279 19.765C0.563821 19.4976 0.534302 19.254 0.511719 19.0342C0.58474 18.9666 0.664891 18.9099 0.750266 18.8654C0.854842 18.8091 0.96913 18.7809 1.08453 18.7829C1.21866 18.7762 1.35116 18.8188 1.46291 18.9045C1.51537 18.9531 1.55895 19.0131 1.59113 19.0812C1.6233 19.1493 1.64344 19.2241 1.65036 19.3012C1.72311 19.7937 1.78336 20.2128 1.83114 20.5583C1.87875 20.9039 1.91965 21.1998 1.95382 21.4459C1.98795 21.6922 2.01747 21.8991 2.04238 22.0666C2.06735 22.2343 2.09122 22.3836 2.11398 22.5147H2.14811C2.19356 22.2999 2.23679 22.1008 2.27778 21.9174C2.31857 21.734 2.36057 21.5468 2.4038 21.3558C2.44691 21.1647 2.49236 20.9604 2.54014 20.7428C2.5879 20.5257 2.63906 20.2731 2.69361 19.9848Z" fill="white"/>
<path d="M8.35588 23.6152C8.25472 23.6284 8.15289 23.6349 8.05098 23.6346C7.88388 23.6523 7.71614 23.6084 7.57537 23.5103C7.52444 23.4495 7.48614 23.3778 7.46297 23.3C7.43981 23.2221 7.43232 23.1399 7.44101 23.0587V18.8474C7.49419 18.8371 7.57041 18.8242 7.66968 18.8086C7.76705 18.7931 7.86534 18.7852 7.96377 18.785C8.12864 18.7707 8.29361 18.8116 8.43583 18.9021C8.49128 18.9616 8.53321 19.0339 8.55838 19.1135C8.58356 19.1932 8.5913 19.2779 8.58101 19.3613V20.7311H10.142V18.8474C10.1952 18.8371 10.2715 18.8242 10.3709 18.8086C10.4706 18.7929 10.5713 18.785 10.6721 18.785C10.8356 18.7707 10.9989 18.8145 11.1369 18.9097C11.1919 18.9712 11.2334 19.045 11.2585 19.1257C11.2836 19.2065 11.2917 19.2923 11.282 19.3768V23.5726C11.2079 23.592 11.1327 23.6062 11.0569 23.6152C10.9557 23.6284 10.8539 23.6349 10.752 23.6346C10.5849 23.6523 10.4172 23.6084 10.2764 23.5103C10.2255 23.4495 10.1872 23.3778 10.164 23.3C10.1408 23.2221 10.1333 23.1399 10.142 23.0587V21.6965H8.58101V23.5726C8.5069 23.592 8.4317 23.6062 8.35588 23.6152Z" fill="white"/>
<path d="M12.2196 23.4579C12.1652 23.3938 12.1231 23.318 12.0957 23.2349C12.0682 23.1519 12.0561 23.0634 12.0601 22.9749V19.4465C12.0543 19.3578 12.0656 19.2688 12.0931 19.1855C12.1206 19.1021 12.1638 19.0264 12.2196 18.9636C12.2754 18.9007 12.3426 18.8521 12.4165 18.8211C12.4905 18.7901 12.5695 18.7774 12.6483 18.7839H14.9938C15.026 18.8471 15.0521 18.914 15.0717 18.9834C15.0964 19.0711 15.1084 19.1628 15.1072 19.2547C15.1172 19.395 15.0805 19.5345 15.0044 19.6461C14.9677 19.6896 14.923 19.7236 14.8734 19.7457C14.8239 19.7677 14.7706 19.7774 14.7174 19.774H13.1443V20.6678H14.7883C14.8205 20.731 14.8466 20.7979 14.8662 20.8673C14.8909 20.9552 14.9029 21.0469 14.9016 21.139C14.9118 21.2774 14.8766 21.4151 14.8025 21.5261C14.766 21.5686 14.7218 21.6017 14.6728 21.623C14.6238 21.6443 14.5713 21.6534 14.519 21.6497H13.1443V22.6475H15.022C15.055 22.7132 15.0812 22.7829 15.1001 22.8553C15.1244 22.9459 15.1363 23.0401 15.1355 23.1348C15.1463 23.2726 15.1095 23.4099 15.0328 23.5179C14.9961 23.5587 14.9522 23.5904 14.904 23.611C14.8558 23.6316 14.8044 23.6407 14.7529 23.6376H12.6483C12.5697 23.642 12.4912 23.6283 12.4175 23.5974C12.3438 23.5665 12.2765 23.5191 12.2196 23.4579Z" fill="white"/>
<path d="M19.5949 20.4102C19.5987 20.694 19.5178 20.9724 19.3627 21.2092C19.2046 21.4476 18.9882 21.6408 18.7345 21.7701C18.9427 22.0466 19.1419 22.3064 19.3322 22.5496C19.4832 22.7379 19.6243 22.9341 19.7547 23.1375C19.7177 23.2889 19.627 23.4214 19.4997 23.51C19.3799 23.5932 19.2377 23.6374 19.0923 23.6368C18.935 23.6477 18.7788 23.6029 18.6508 23.51C18.5363 23.4102 18.4385 23.2922 18.3614 23.1607L17.6306 22.0158H17.1053V23.5603C17.0276 23.5794 16.9487 23.5934 16.8692 23.6023C16.7632 23.6153 16.6564 23.6217 16.5495 23.6214C16.3743 23.6389 16.1984 23.5956 16.0508 23.4987C15.9974 23.4387 15.9572 23.368 15.933 23.2912C15.9087 23.2143 15.9008 23.1332 15.9099 23.0531V19.3268C15.9046 19.2399 15.9333 19.1543 15.9899 19.0885C16.0548 19.0255 16.1349 18.9806 16.2222 18.958C16.4115 18.8904 16.6083 18.8465 16.8083 18.8275C17.046 18.8013 17.285 18.7884 17.5241 18.7888C18.0761 18.7475 18.6251 18.9011 19.0772 19.2232C19.2482 19.3675 19.3839 19.5497 19.4737 19.7556C19.5635 19.9614 19.605 20.1855 19.5949 20.4102ZM17.5622 21.0862C17.7724 21.0957 17.9802 21.038 18.1558 20.9211C18.2326 20.8632 18.2938 20.7868 18.3337 20.6988C18.3736 20.6109 18.391 20.5142 18.3843 20.4177C18.3843 19.9773 18.0925 19.7571 17.5088 19.7571C17.435 19.7566 17.3613 19.7605 17.288 19.7687C17.222 19.7762 17.156 19.7851 17.09 19.7953V21.0862H17.5622Z" fill="white"/>
<path d="M20.6844 23.4579C20.6301 23.3938 20.5879 23.318 20.5605 23.2349C20.5331 23.1519 20.521 23.0634 20.5249 22.9749V19.4465C20.5191 19.3578 20.5304 19.2688 20.5579 19.1855C20.5855 19.1021 20.6286 19.0264 20.6844 18.9636C20.7402 18.9007 20.8074 18.8521 20.8814 18.8211C20.9554 18.7901 21.0344 18.7774 21.1131 18.7839H23.4587C23.4908 18.8471 23.5169 18.914 23.5365 18.9834C23.5613 19.0711 23.5732 19.1628 23.572 19.2547C23.582 19.395 23.5454 19.5345 23.4693 19.6461C23.4325 19.6896 23.3878 19.7236 23.3383 19.7457C23.2887 19.7677 23.2355 19.7774 23.1822 19.774H21.6091V20.6678H23.2532C23.2853 20.731 23.3114 20.7979 23.331 20.8673C23.3557 20.9552 23.3677 21.0469 23.3665 21.139C23.3767 21.2774 23.3414 21.4151 23.2674 21.5261C23.2309 21.5686 23.1866 21.6017 23.1376 21.623C23.0887 21.6443 23.0362 21.6534 22.9838 21.6497H21.6091V22.6475H23.4869C23.5199 22.7132 23.5461 22.7829 23.5649 22.8553C23.5892 22.9459 23.6012 23.0401 23.6004 23.1348C23.6112 23.2726 23.5744 23.4099 23.4976 23.5179C23.4609 23.5587 23.4171 23.5904 23.3689 23.611C23.3207 23.6316 23.2692 23.6407 23.2177 23.6376H21.1131C21.0346 23.642 20.9561 23.6283 20.8824 23.5974C20.8087 23.5665 20.7413 23.5191 20.6844 23.4579Z" fill="white"/>
<path d="M26.6449 23.6152C26.5639 23.6284 26.4825 23.6349 26.4009 23.6346C26.2673 23.6523 26.1331 23.6084 26.0205 23.5103C25.9797 23.4495 25.9491 23.3778 25.9305 23.3C25.912 23.2221 25.906 23.1399 25.913 23.0587V18.8474C25.9555 18.8371 26.0165 18.8242 26.0959 18.8086C26.1738 18.7931 26.2524 18.7852 26.3312 18.785C26.4631 18.7707 26.595 18.8116 26.7088 18.9021C26.7532 18.9616 26.7867 19.0339 26.8069 19.1135C26.827 19.1932 26.8332 19.2779 26.825 19.3613V20.7311H28.0738V18.8474C28.1163 18.8371 28.1773 18.8242 28.2569 18.8086C28.3366 18.7929 28.4172 18.785 28.4978 18.785C28.6286 18.7707 28.7593 18.8145 28.8696 18.9097C28.9136 18.9712 28.9469 19.045 28.967 19.1257C28.9871 19.2065 28.9935 19.2923 28.9858 19.3768V23.5726C28.9265 23.592 28.8663 23.6062 28.8057 23.6152C28.7247 23.6284 28.6433 23.6349 28.5618 23.6346C28.4281 23.6523 28.2939 23.6084 28.1813 23.5103C28.1405 23.4495 28.1099 23.3778 28.0913 23.3C28.0728 23.2221 28.0668 23.1399 28.0738 23.0587V21.6965H26.825V23.5726C26.7657 23.592 26.7055 23.6062 26.6449 23.6152Z" fill="white"/>
<path d="M30.6922 23.4579C30.6379 23.3938 30.5957 23.318 30.5683 23.2349C30.5409 23.1519 30.5288 23.0634 30.5327 22.9749V19.4465C30.527 19.3578 30.5382 19.2688 30.5658 19.1855C30.5933 19.1021 30.6364 19.0264 30.6922 18.9636C30.748 18.9007 30.8152 18.8521 30.8892 18.8211C30.9632 18.7901 31.0422 18.7774 31.1209 18.7839H33.4665C33.4986 18.8471 33.5247 18.914 33.5444 18.9835C33.5691 19.0711 33.581 19.1628 33.5798 19.2547C33.5898 19.395 33.5532 19.5345 33.4771 19.6461C33.4403 19.6896 33.3956 19.7236 33.3461 19.7457C33.2965 19.7678 33.2433 19.7774 33.1901 19.774H31.6169V20.6678H33.261C33.2931 20.731 33.3192 20.7979 33.3388 20.8673C33.3636 20.9552 33.3755 21.0469 33.3743 21.139C33.3845 21.2774 33.3492 21.4151 33.2752 21.5261C33.2387 21.5686 33.1944 21.6017 33.1455 21.623C33.0965 21.6443 33.044 21.6534 32.9916 21.6497H31.6169V22.6475H33.4947C33.5277 22.7132 33.5539 22.7829 33.5727 22.8553C33.597 22.9459 33.609 23.0401 33.6082 23.1348C33.619 23.2726 33.5822 23.4099 33.5054 23.5179C33.4687 23.5587 33.4249 23.5904 33.3767 23.611C33.3285 23.6316 33.277 23.6407 33.2255 23.6376H31.121C31.0424 23.642 30.9639 23.6283 30.8902 23.5974C30.8165 23.5665 30.7491 23.5191 30.6922 23.4579Z" fill="white"/>
<path d="M36.9336 22.5247H35.6265C35.5774 22.7112 35.5319 22.895 35.4897 23.0759C35.4474 23.2572 35.4107 23.4176 35.3796 23.5574C35.3218 23.5779 35.2618 23.596 35.1996 23.6116C35.1249 23.6286 35.0488 23.6365 34.9727 23.6351C34.818 23.6471 34.6636 23.6051 34.5294 23.5146C34.4809 23.477 34.4416 23.4254 34.4153 23.3649C34.389 23.3044 34.3766 23.2369 34.3793 23.1692C34.379 23.0982 34.388 23.0275 34.406 22.9596C34.4237 22.8925 34.4437 22.8149 34.466 22.7268C34.497 22.5869 34.5414 22.4134 34.5994 22.2063C34.657 21.9997 34.7204 21.7759 34.7894 21.5349C34.8583 21.2941 34.9305 21.0469 35.0061 20.7933C35.0817 20.5397 35.1551 20.2977 35.2263 20.0673C35.2972 19.8372 35.3617 19.6263 35.4197 19.4346C35.4773 19.2431 35.5262 19.0905 35.5664 18.9766C35.6641 18.9164 35.7685 18.872 35.8766 18.8447C36.0128 18.8039 36.1528 18.783 36.2934 18.7825C36.4736 18.7787 36.653 18.8116 36.8235 18.8796C36.8911 18.9027 36.9532 18.9438 37.0047 18.9998C37.0563 19.0557 37.0959 19.1249 37.1204 19.2018C37.2047 19.4763 37.2958 19.7946 37.3937 20.1568C37.4914 20.5192 37.5904 20.8919 37.6906 21.2748C37.7905 21.6577 37.8872 22.0356 37.9806 22.4083C38.074 22.781 38.1563 23.1149 38.2274 23.41C38.1683 23.485 38.0937 23.5411 38.0107 23.573C37.9002 23.6172 37.7839 23.6382 37.6671 23.6352C37.5252 23.6508 37.3829 23.6098 37.2636 23.5188C37.1759 23.4205 37.1165 23.2929 37.0936 23.1537L36.9336 22.5247ZM36.2867 19.8694C36.2243 20.1022 36.1476 20.3674 36.0565 20.6652C35.9653 20.9628 35.8798 21.2669 35.7999 21.5777H36.7535C36.6778 21.2513 36.6011 20.9394 36.5235 20.642C36.4456 20.3444 36.38 20.0869 36.3266 19.8694H36.2867Z" fill="white"/>
<path d="M39.1641 23.4609C39.1072 23.3979 39.063 23.3232 39.0342 23.2416C39.0054 23.1599 38.9927 23.0729 38.9969 22.9858V18.8479C39.0513 18.8376 39.1293 18.8246 39.2309 18.8088C39.3305 18.7932 39.4311 18.7853 39.5319 18.7851C39.7006 18.7706 39.8694 18.8118 40.015 18.9032C40.0717 18.9631 40.1146 19.0361 40.1404 19.1164C40.1662 19.1967 40.1741 19.2822 40.1636 19.3663V22.6404H41.9469C41.9819 22.7052 42.0105 22.7735 42.0323 22.8444C42.0603 22.933 42.0742 23.0259 42.0733 23.1193C42.0832 23.2584 42.045 23.3966 41.9656 23.508C41.9288 23.5513 41.8834 23.5853 41.8326 23.6077C41.7819 23.6301 41.727 23.6404 41.6721 23.6376H39.6137C39.5314 23.6419 39.449 23.6285 39.3717 23.5981C39.2944 23.5677 39.2238 23.521 39.1641 23.4609Z" fill="white"/>
<path d="M44.5791 19.7803V23.5717C44.5022 23.5914 44.4241 23.6058 44.3454 23.615C44.2403 23.6284 44.1346 23.635 44.0288 23.6347C43.8542 23.6522 43.679 23.6077 43.5313 23.5083C43.4773 23.4472 43.4365 23.3745 43.4117 23.2952C43.387 23.216 43.3788 23.132 43.388 23.0492V19.7803H42.2046C42.169 19.715 42.1399 19.646 42.1179 19.5743C42.0893 19.4851 42.0753 19.3914 42.0763 19.2972C42.0643 19.1563 42.1049 19.0159 42.1895 18.9057C42.23 18.8638 42.2784 18.8312 42.3316 18.8101C42.3848 18.7889 42.4417 18.7797 42.4985 18.7828H45.7929C45.8327 18.8464 45.8631 18.9158 45.8833 18.9888C45.9091 19.0785 45.9218 19.1718 45.921 19.2656C45.9318 19.4053 45.8913 19.5441 45.8078 19.6536C45.7678 19.6965 45.7196 19.73 45.6663 19.7518C45.613 19.7737 45.5559 19.7834 45.4988 19.7803H44.5791Z" fill="white"/>
<path d="M47.6137 23.6152C47.5125 23.6284 47.4107 23.6349 47.3088 23.6346C47.1417 23.6523 46.9739 23.6084 46.8332 23.5103C46.7823 23.4495 46.7439 23.3778 46.7208 23.3C46.6976 23.2221 46.6901 23.1399 46.6988 23.0587V18.8474C46.752 18.8371 46.8282 18.8242 46.9275 18.8086C47.0249 18.7931 47.1231 18.7852 47.2216 18.785C47.3865 18.7707 47.5514 18.8116 47.6936 18.9021C47.7491 18.9616 47.791 19.0339 47.8162 19.1135C47.8414 19.1931 47.8491 19.2779 47.8388 19.3613V20.7311H49.3998V18.8474C49.453 18.8371 49.5293 18.8242 49.6287 18.8086C49.7284 18.7929 49.8291 18.785 49.9299 18.785C50.0934 18.7707 50.2567 18.8145 50.3947 18.9097C50.4497 18.9712 50.4912 19.045 50.5163 19.1257C50.5415 19.2065 50.5495 19.2923 50.5398 19.3768V23.5726C50.4657 23.592 50.3905 23.6062 50.3147 23.6152C50.2135 23.6284 50.1117 23.6349 50.0098 23.6346C49.8427 23.6523 49.675 23.6084 49.5342 23.5103C49.4833 23.4495 49.445 23.3778 49.4218 23.3C49.3986 23.2221 49.3912 23.1399 49.3998 23.0587V21.6965H47.8388V23.5726C47.7647 23.592 47.6895 23.6062 47.6137 23.6152Z" fill="white"/>
<path d="M55.6702 22.3886C55.6081 22.4456 55.5372 22.4882 55.4612 22.5139C55.3672 22.5468 55.2695 22.5628 55.1713 22.5611C55.0489 22.5652 54.9269 22.5439 54.811 22.4982C54.7665 22.4814 54.726 22.4528 54.6927 22.4147C54.6593 22.3766 54.634 22.33 54.6188 22.2785C54.475 21.7915 54.3525 21.3871 54.2515 21.0653C54.1505 20.7432 54.0708 20.4644 54.0124 20.2289H53.9854C53.9719 20.5533 53.9607 20.8504 53.9518 21.1201C53.9426 21.3897 53.9347 21.6527 53.9282 21.9092C53.9212 22.1658 53.9133 22.425 53.9045 22.6869C53.8956 22.9488 53.8844 23.2368 53.8709 23.5508C53.806 23.5761 53.7395 23.5957 53.6721 23.6095C53.5865 23.6281 53.4996 23.6374 53.4125 23.6371C53.2697 23.6461 53.1275 23.6093 53.0014 23.5309C52.9507 23.4913 52.9101 23.4365 52.884 23.3722C52.8579 23.3079 52.8472 23.2366 52.8532 23.1658C52.8532 23.0665 52.8565 22.9288 52.8632 22.7536C52.8699 22.5784 52.879 22.3767 52.8902 22.1489C52.9014 21.9212 52.9149 21.6765 52.9307 21.4146C52.9463 21.1527 52.962 20.887 52.9777 20.6174C52.9935 20.3478 53.0081 20.0808 53.0215 19.8164C53.0353 19.5522 53.0488 19.3074 53.062 19.0821C53.1232 19.0015 53.1977 18.9361 53.2812 18.89C53.4252 18.8106 53.5838 18.7741 53.7429 18.7837C53.9148 18.774 54.0862 18.8145 54.2413 18.9015C54.3689 18.9886 54.4667 19.1247 54.5177 19.2864C54.5671 19.4279 54.6188 19.5863 54.6727 19.7616C54.7267 19.9372 54.7806 20.1165 54.8343 20.2996C54.8883 20.4828 54.9412 20.6647 54.993 20.8452C55.0446 21.0258 55.0929 21.1921 55.1378 21.3441H55.1713C55.2974 20.8832 55.4232 20.4368 55.5488 20.0051C55.6745 19.5729 55.7847 19.2103 55.8792 18.9172C55.9556 18.8753 56.0359 18.8438 56.1185 18.8233C56.2236 18.7958 56.331 18.7825 56.4387 18.7838C56.6049 18.7758 56.7705 18.8106 56.9238 18.8858C56.9778 18.9114 57.0258 18.952 57.0634 19.0041C57.101 19.0561 57.1272 19.118 57.1397 19.1845C57.1574 19.2892 57.1776 19.4488 57.2002 19.6634C57.2226 19.8781 57.2451 20.1242 57.2677 20.4016C57.2901 20.6792 57.3125 20.9711 57.3351 21.2774C57.3575 21.5834 57.3777 21.8791 57.3957 22.1647C57.4135 22.45 57.4292 22.7105 57.4428 22.9461C57.4563 23.1816 57.4652 23.3648 57.4697 23.4956C57.4025 23.5426 57.33 23.5784 57.2542 23.6019C57.1592 23.6277 57.0618 23.6395 56.9643 23.6371C56.8327 23.6414 56.7022 23.609 56.5835 23.5428C56.5285 23.5057 56.4833 23.4517 56.453 23.3866C56.4226 23.3215 56.4084 23.2479 56.4117 23.1739C56.3801 22.5665 56.3587 22.0103 56.3475 21.5051C56.3363 20.9997 56.3241 20.5847 56.3107 20.2601H56.2768C56.2228 20.4802 56.1454 20.7577 56.0444 21.0925C55.9431 21.4276 55.8183 21.8596 55.6702 22.3886Z" fill="white"/>
<path d="M58.399 23.4579C58.3447 23.3938 58.3026 23.3179 58.2753 23.2349C58.2479 23.1519 58.2358 23.0634 58.2398 22.9749V19.4465C58.2339 19.3579 58.2451 19.2688 58.2726 19.1855C58.3001 19.1021 58.3432 19.0264 58.399 18.9635C58.4548 18.9006 58.522 18.852 58.5959 18.821C58.6699 18.79 58.749 18.7774 58.8277 18.7839H61.1733C61.2056 18.8471 61.2318 18.914 61.2515 18.9835C61.2761 19.0712 61.288 19.1628 61.2868 19.2548C61.2968 19.3951 61.2602 19.5345 61.1841 19.6461C61.1473 19.6896 61.1027 19.7235 61.0531 19.7456C61.0036 19.7677 60.9504 19.7774 60.8972 19.774H59.3239V20.6678H60.9678C61 20.731 61.0262 20.7979 61.046 20.8673C61.0706 20.9552 61.0825 21.0469 61.0813 21.139C61.0915 21.2774 61.0561 21.4152 60.982 21.5261C60.9455 21.5686 60.9013 21.6017 60.8524 21.623C60.8034 21.6444 60.751 21.6535 60.6986 21.6497H59.3239V22.6475H61.2017C61.2347 22.7132 61.2609 22.7829 61.2799 22.8553C61.3041 22.9459 61.316 23.0402 61.3152 23.1348C61.3261 23.2727 61.2893 23.4099 61.2125 23.518C61.1757 23.5587 61.1319 23.5904 61.0837 23.611C61.0355 23.6316 60.984 23.6407 60.9325 23.6376H58.8277C58.7492 23.642 58.6706 23.6283 58.5969 23.5974C58.5232 23.5665 58.4559 23.5191 58.399 23.4579Z" fill="white"/>
<path d="M62.2868 23.4579C62.219 23.3938 62.1664 23.3179 62.1322 23.2349C62.098 23.1519 62.0829 23.0634 62.0878 22.9749V19.4465C62.0805 19.3579 62.0945 19.2688 62.1289 19.1855C62.1632 19.1021 62.2171 19.0264 62.2868 18.9635C62.3566 18.9006 62.4405 18.852 62.533 18.821C62.6255 18.79 62.7243 18.7774 62.8227 18.7839H65.7547C65.7951 18.8471 65.8278 18.914 65.8525 18.9835C65.8832 19.0712 65.8981 19.1628 65.8966 19.2548C65.9091 19.3951 65.8633 19.5345 65.7682 19.6461C65.7223 19.6896 65.6664 19.7235 65.6045 19.7456C65.5426 19.7677 65.4761 19.7774 65.4096 19.774H63.4429V20.6678H65.4978C65.5381 20.731 65.5708 20.7979 65.5956 20.8673C65.6263 20.9552 65.6412 21.0469 65.6397 21.139C65.6524 21.2774 65.6082 21.4152 65.5156 21.5261C65.47 21.5686 65.4147 21.6017 65.3535 21.623C65.2924 21.6444 65.2268 21.6535 65.1613 21.6497H63.4429V22.6475H65.7902C65.8314 22.7132 65.8642 22.7829 65.888 22.8553C65.9183 22.9459 65.9331 23.0402 65.9321 23.1348C65.9457 23.2727 65.8997 23.4099 65.8036 23.518C65.7577 23.5587 65.7029 23.5904 65.6427 23.611C65.5824 23.6316 65.5181 23.6407 65.4537 23.6376H62.8227C62.7245 23.642 62.6264 23.6283 62.5343 23.5974C62.4421 23.5665 62.3579 23.5191 62.2868 23.4579Z" fill="white"/>
<path d="M68.4422 19.7803V23.5717C68.3654 23.5914 68.2874 23.6059 68.2088 23.615C68.1037 23.6284 67.9978 23.635 67.8919 23.6347C67.7173 23.6521 67.5422 23.6076 67.3946 23.5083C67.3406 23.4472 67.2998 23.3745 67.2751 23.2952C67.2503 23.216 67.2423 23.132 67.2514 23.0492V19.7803H66.0676C66.0322 19.715 66.0032 19.6459 65.9811 19.5743C65.9527 19.485 65.9386 19.3914 65.9395 19.2972C65.9277 19.1563 65.9682 19.016 66.0525 18.9057C66.0931 18.8638 66.1416 18.8313 66.1948 18.8101C66.248 18.7889 66.3049 18.7797 66.3617 18.7828H69.6562C69.6959 18.8464 69.7265 18.9158 69.7467 18.9888C69.7725 19.0785 69.7852 19.1718 69.7843 19.2655C69.7951 19.4053 69.7547 19.5441 69.6713 19.6536C69.6312 19.6965 69.5829 19.73 69.5296 19.7518C69.4763 19.7737 69.4192 19.7834 69.3621 19.7803H68.4422Z" fill="white"/>
<path d="M71.9267 22.6693C72.1007 22.6875 72.2751 22.6382 72.4222 22.5293C72.4677 22.4901 72.5048 22.4393 72.5304 22.3808C72.5561 22.3223 72.5696 22.2577 72.5699 22.1922C72.5715 22.1367 72.562 22.0816 72.5421 22.0311C72.5222 21.9806 72.4924 21.936 72.4552 21.901C72.3517 21.8123 72.2347 21.7469 72.1103 21.708L71.7757 21.5868C71.6055 21.5273 71.4389 21.4552 71.2767 21.3709C71.1383 21.3005 71.01 21.2062 70.8963 21.0912C70.7918 20.9836 70.708 20.852 70.6501 20.7049C70.5871 20.534 70.5568 20.3495 70.5614 20.1638C70.5552 19.9697 70.5899 19.7767 70.6625 19.6013C70.7352 19.426 70.8435 19.2736 70.9783 19.157C71.318 18.8885 71.7255 18.7579 72.1366 18.786C72.3113 18.7848 72.4858 18.8 72.6584 18.8314C72.8001 18.8556 72.9383 18.9028 73.0686 18.9715C73.1717 19.0254 73.2635 19.1041 73.3378 19.2025C73.4028 19.2913 73.4378 19.4042 73.4362 19.5204C73.4382 19.6289 73.4119 19.7356 73.3609 19.8268C73.3136 19.9115 73.2548 19.987 73.1869 20.0504C73.0638 19.9578 72.9287 19.8888 72.7866 19.846C72.6093 19.7887 72.4258 19.7606 72.2417 19.7625C72.0802 19.7496 71.9188 19.789 71.7757 19.8763C71.7308 19.9046 71.6932 19.9461 71.6667 19.9966C71.6402 20.0471 71.6257 20.1048 71.6248 20.1639C71.6227 20.2088 71.6307 20.2536 71.6479 20.2939C71.6651 20.3343 71.691 20.3689 71.7232 20.3945C71.8194 20.4643 71.9231 20.5191 72.0318 20.5575L72.3863 20.6935C72.5721 20.765 72.753 20.8523 72.9276 20.9548C73.0705 21.0382 73.2022 21.1453 73.3183 21.2726C73.4212 21.3881 73.5017 21.5274 73.5545 21.6814C73.6092 21.8495 73.6359 22.0279 73.6333 22.2074C73.6355 22.4074 73.5985 22.6053 73.525 22.7865C73.4504 22.9641 73.3401 23.1186 73.2032 23.2371C73.0455 23.3719 72.8675 23.4719 72.6782 23.532C72.4442 23.6067 72.2021 23.6424 71.9594 23.6381C71.7723 23.6395 71.5856 23.6206 71.4017 23.5815C71.2483 23.5502 71.0993 23.4953 70.9585 23.4185C70.8446 23.3577 70.7438 23.2686 70.6633 23.1576C70.5923 23.0586 70.5539 22.9338 70.5549 22.8054C70.5512 22.6813 70.5874 22.5601 70.6565 22.465C70.7208 22.3776 70.7974 22.3033 70.8831 22.2454C71.0178 22.3677 71.167 22.4671 71.3261 22.5408C71.5168 22.6294 71.721 22.6732 71.9267 22.6693Z" fill="white"/>
<path d="M79.0019 19.5575C79.0036 19.6667 78.9779 19.7739 78.9284 19.8643C78.8836 19.9476 78.8253 20.0185 78.7572 20.0724C78.6475 19.9843 78.5317 19.9083 78.4112 19.8454C78.2702 19.7758 78.1194 19.7422 77.9677 19.7467C77.8253 19.7371 77.6829 19.7664 77.5507 19.8325C77.4185 19.8986 77.2997 19.9999 77.2027 20.1293C77.0048 20.4364 76.9066 20.8238 76.9272 21.2157C76.9152 21.4127 76.9347 21.6107 76.9846 21.7984C77.0345 21.986 77.1138 22.1597 77.218 22.3094C77.3235 22.4352 77.4489 22.5327 77.5863 22.5959C77.7237 22.659 77.8701 22.6865 78.0164 22.6765C78.1694 22.681 78.3218 22.6516 78.4664 22.5896C78.5868 22.534 78.7026 22.4642 78.8122 22.3811C78.8748 22.4441 78.926 22.5229 78.9622 22.6122C79.0015 22.7097 79.0214 22.8174 79.0201 22.9264C79.0203 23.0265 78.998 23.1247 78.9559 23.2102C78.9012 23.3107 78.8235 23.3884 78.7327 23.4335C78.6268 23.4945 78.516 23.5415 78.4022 23.5736C78.2335 23.6204 78.0608 23.642 77.8879 23.6379C77.6284 23.6405 77.3702 23.592 77.1229 23.4941C76.894 23.4039 76.6833 23.2542 76.505 23.055C76.3227 22.846 76.1814 22.5884 76.0917 22.3017C75.986 21.9549 75.9351 21.5862 75.942 21.2157C75.9367 20.8586 75.9875 20.5037 76.0917 20.1707C76.1828 19.8847 76.3215 19.6255 76.4987 19.41C76.6705 19.2053 76.8747 19.0469 77.0985 18.9446C77.3335 18.837 77.5823 18.7831 77.8329 18.7853C78.1311 18.7656 78.4283 18.8412 78.6959 19.0049C78.7832 19.053 78.858 19.1302 78.912 19.2277C78.966 19.3253 78.9971 19.4394 79.0019 19.5575Z" fill="white"/>
<path d="M84.4067 21.2067C84.4131 21.5632 84.3539 21.9178 84.2323 22.252C84.1295 22.5354 83.9671 22.7922 83.7565 23.0042C83.5458 23.2163 83.2922 23.3785 83.0135 23.4794C82.4183 23.6914 81.7704 23.6914 81.1752 23.4794C80.9023 23.3788 80.6535 23.2201 80.4453 23.0136C80.2331 22.798 80.0688 22.5383 79.9636 22.252C79.8421 21.9178 79.7831 21.5632 79.7896 21.2067C79.7829 20.851 79.8433 20.4974 79.9672 20.165C80.0759 19.8799 80.2427 19.6217 80.4565 19.4075C80.6654 19.2019 80.914 19.0433 81.1864 18.9418C81.4773 18.8334 81.7848 18.7794 82.0943 18.7823C82.4051 18.7797 82.7138 18.8337 83.0059 18.9418C83.2798 19.0427 83.5298 19.2014 83.7398 19.4075C83.9535 19.6217 84.1202 19.8799 84.2287 20.165C84.353 20.4973 84.4134 20.851 84.4067 21.2067ZM83.206 21.2067C83.234 20.8172 83.1279 20.43 82.906 20.1121C82.8037 19.9964 82.6788 19.9038 82.5393 19.8405C82.3999 19.7772 82.249 19.7445 82.0963 19.7445C81.9437 19.7445 81.7928 19.7772 81.6533 19.8405C81.5139 19.9038 81.3889 19.9964 81.2866 20.1121C81.0622 20.4289 80.9546 20.8166 80.9827 21.2067C80.954 21.5986 81.0601 21.9885 81.2827 22.309C81.3854 22.4247 81.5107 22.5171 81.6505 22.5804C81.7903 22.6436 81.9415 22.6763 82.0943 22.6763C82.2472 22.6763 82.3984 22.6436 82.5382 22.5804C82.678 22.5171 82.8033 22.4247 82.906 22.309C83.1286 21.9885 83.2347 21.5986 83.206 21.2067Z" fill="white"/>
<path d="M87.9985 22.3886C87.9364 22.4456 87.8655 22.4882 87.7895 22.5139C87.6955 22.5468 87.5978 22.5628 87.4996 22.5611C87.3773 22.5652 87.2553 22.5439 87.1393 22.4982C87.0948 22.4814 87.0544 22.4528 87.021 22.4147C86.9877 22.3766 86.9624 22.33 86.9471 22.2785C86.8033 21.7915 86.6809 21.3871 86.5799 21.0653C86.4788 20.7432 86.3991 20.4644 86.3406 20.2289H86.3136C86.3001 20.5533 86.2889 20.8504 86.2801 21.1201C86.2709 21.3897 86.263 21.6527 86.2564 21.9092C86.2495 22.1658 86.2416 22.425 86.2327 22.6869C86.2238 22.9488 86.2126 23.2368 86.1991 23.5508C86.1342 23.5761 86.0678 23.5957 86.0004 23.6095C85.9147 23.6281 85.8278 23.6374 85.7407 23.6371C85.598 23.6461 85.4558 23.6093 85.3297 23.5309C85.2789 23.4914 85.2383 23.4366 85.2121 23.3723C85.186 23.308 85.1753 23.2366 85.1813 23.1658C85.1813 23.0665 85.1849 22.9288 85.1915 22.7536C85.1984 22.5784 85.2074 22.3768 85.2185 22.1489C85.2297 21.9212 85.2432 21.6764 85.2589 21.4146C85.2747 21.1527 85.2904 20.887 85.306 20.6174C85.3218 20.3478 85.3364 20.0808 85.3498 19.8164C85.3633 19.5522 85.3768 19.3074 85.3902 19.0821C85.4514 19.0015 85.526 18.9361 85.6094 18.89C85.7534 18.8106 85.912 18.7741 86.0711 18.7837C86.2431 18.774 86.4145 18.8145 86.5696 18.9015C86.6973 18.9886 86.795 19.1247 86.8461 19.2864C86.8954 19.4279 86.9471 19.5863 87.0011 19.7616C87.055 19.9372 87.1089 20.1165 87.1626 20.2996C87.2166 20.4828 87.2695 20.6647 87.3213 20.8452C87.3729 21.0258 87.4212 21.1921 87.4661 21.3441H87.4996C87.6256 20.8832 87.7515 20.4368 87.8771 20.0051C88.0028 19.5729 88.1129 19.2103 88.2075 18.9172C88.2838 18.8753 88.3641 18.8438 88.4467 18.8233C88.5518 18.7958 88.6592 18.7825 88.7669 18.7838C88.933 18.7758 89.0987 18.8106 89.2519 18.8858C89.306 18.9114 89.3539 18.952 89.3915 19.0041C89.4291 19.0561 89.4553 19.118 89.4678 19.1845C89.4856 19.2892 89.5058 19.4488 89.5284 19.6634C89.5507 19.8781 89.5732 20.1242 89.5958 20.4016C89.6182 20.6792 89.6407 20.9711 89.6633 21.2774C89.6857 21.5834 89.7058 21.8791 89.7238 22.1647C89.7416 22.45 89.7573 22.7105 89.7709 22.9461C89.7844 23.1816 89.7934 23.3648 89.7979 23.4956C89.7307 23.5426 89.6581 23.5784 89.5823 23.6019C89.4873 23.6277 89.3899 23.6395 89.2924 23.6371C89.1609 23.6414 89.0304 23.609 88.9117 23.5428C88.8566 23.5057 88.8115 23.4517 88.7812 23.3866C88.7508 23.3215 88.7366 23.2479 88.7399 23.1739C88.7083 22.5665 88.6869 22.0103 88.6757 21.5051C88.6645 20.9997 88.6523 20.5847 88.6389 20.2601H88.605C88.551 20.4802 88.4736 20.7577 88.3727 21.0925C88.2713 21.4276 88.1466 21.8596 87.9985 22.3886Z" fill="white"/>
<path d="M94.2704 18.7839C94.3119 18.849 94.3448 18.9181 94.3686 18.9898C94.399 19.0795 94.4139 19.1728 94.4129 19.2665C94.4254 19.4055 94.3794 19.5438 94.2839 19.6544C94.2377 19.6974 94.1817 19.731 94.1195 19.7529C94.0574 19.7748 93.9906 19.7844 93.9239 19.7811H91.9491V20.8174H93.9681C94.0077 20.8838 94.0418 20.9526 94.0702 21.0234C94.1047 21.1124 94.1213 21.2062 94.1193 21.3004C94.1326 21.4388 94.0848 21.5765 93.9859 21.6841C93.9395 21.7254 93.8839 21.7576 93.8226 21.7787C93.7614 21.7998 93.6959 21.8093 93.6303 21.8066H91.9669V23.5715C91.8761 23.5912 91.784 23.6057 91.6912 23.6148C91.5672 23.6282 91.4425 23.6348 91.3177 23.6345C91.1129 23.6525 90.9074 23.6079 90.7348 23.5082C90.6726 23.4463 90.6258 23.3734 90.5975 23.2943C90.5692 23.2152 90.5601 23.1316 90.5707 23.0492V19.4407C90.5634 19.3528 90.5774 19.2646 90.6119 19.1819C90.6464 19.0993 90.7005 19.0243 90.7705 18.962C90.8405 18.8996 90.9248 18.8514 91.0177 18.8207C91.1105 18.79 91.2097 18.7774 91.3085 18.7839H94.2704Z" fill="white"/>
<path d="M99.0317 21.2067C99.0381 21.5632 98.9789 21.9178 98.8573 22.252C98.7545 22.5354 98.5921 22.7922 98.3815 23.0042C98.1708 23.2163 97.9172 23.3785 97.6385 23.4794C97.0433 23.6914 96.3954 23.6914 95.8002 23.4794C95.5273 23.3788 95.2785 23.2201 95.0703 23.0136C94.8581 22.798 94.6939 22.5383 94.5886 22.252C94.4671 21.9178 94.4081 21.5632 94.4146 21.2067C94.4079 20.851 94.4683 20.4974 94.5922 20.165C94.7009 19.8799 94.8677 19.6217 95.0815 19.4075C95.2904 19.2019 95.539 19.0433 95.8114 18.9418C96.1023 18.8334 96.4098 18.7794 96.7193 18.7823C97.0301 18.7797 97.3388 18.8337 97.6309 18.9418C97.9048 19.0427 98.1548 19.2014 98.3648 19.4075C98.5785 19.6217 98.7452 19.8799 98.8537 20.165C98.978 20.4973 99.0384 20.851 99.0317 21.2067ZM97.831 21.2067C97.859 20.8172 97.7529 20.43 97.531 20.1121C97.4287 19.9964 97.3038 19.9038 97.1643 19.8405C97.0249 19.7772 96.874 19.7445 96.7213 19.7445C96.5687 19.7445 96.4178 19.7772 96.2783 19.8405C96.1389 19.9038 96.0139 19.9964 95.9116 20.1121C95.6872 20.4289 95.5796 20.8166 95.6077 21.2067C95.579 21.5986 95.6851 21.9885 95.9077 22.309C96.0104 22.4247 96.1357 22.5171 96.2755 22.5804C96.4153 22.6436 96.5665 22.6763 96.7193 22.6763C96.8722 22.6763 97.0234 22.6436 97.1632 22.5804C97.303 22.5171 97.4283 22.4247 97.531 22.309C97.7536 21.9885 97.8597 21.5986 97.831 21.2067Z" fill="white"/>
<path d="M103.489 20.4102C103.493 20.6941 103.412 20.9725 103.257 21.2092C103.099 21.4476 102.883 21.6408 102.629 21.7701C102.837 22.0466 103.036 22.3064 103.227 22.5496C103.378 22.738 103.519 22.9342 103.649 23.1375C103.612 23.2889 103.521 23.4214 103.394 23.51C103.274 23.5932 103.132 23.6374 102.987 23.6368C102.829 23.6477 102.673 23.6029 102.545 23.51C102.431 23.4101 102.333 23.2922 102.256 23.1607L101.525 22.0158H101V23.5602C100.922 23.5794 100.843 23.5934 100.764 23.6022C100.658 23.6153 100.551 23.6217 100.444 23.6214C100.269 23.6388 100.093 23.5955 99.945 23.4987C99.8917 23.4386 99.8517 23.3679 99.8274 23.2911C99.8032 23.2142 99.7954 23.1331 99.8044 23.0531V19.3268C99.799 19.2399 99.8277 19.1543 99.8844 19.0886C99.9492 19.0255 100.029 18.9806 100.116 18.958C100.306 18.8904 100.503 18.8466 100.703 18.8275C100.94 18.8014 101.179 18.7885 101.418 18.7889C101.97 18.7474 102.519 18.901 102.972 19.2233C103.143 19.3675 103.278 19.5496 103.368 19.7555C103.458 19.9614 103.5 20.1855 103.489 20.4102ZM101.457 21.0862C101.667 21.0958 101.875 21.038 102.05 20.9211C102.127 20.8632 102.188 20.7868 102.228 20.6988C102.268 20.6109 102.286 20.5142 102.279 20.4177C102.279 19.9773 101.987 19.7571 101.403 19.7571C101.329 19.7566 101.256 19.7605 101.182 19.7687C101.116 19.7762 101.05 19.7852 100.984 19.7954V21.0862H101.457Z" fill="white"/>
<path d="M105.656 19.7803V23.5717C105.595 23.5914 105.532 23.6059 105.469 23.615C105.385 23.6284 105.301 23.635 105.216 23.6347C105.076 23.6521 104.936 23.6076 104.818 23.5083C104.775 23.4472 104.742 23.3745 104.722 23.2952C104.703 23.216 104.696 23.132 104.703 23.0492V19.7803H103.756C103.728 19.715 103.705 19.6459 103.687 19.5743C103.664 19.485 103.653 19.3914 103.654 19.2972C103.644 19.1563 103.677 19.016 103.744 18.9057C103.777 18.8638 103.816 18.8313 103.858 18.8101C103.901 18.7889 103.946 18.7797 103.992 18.7828H106.627C106.659 18.8464 106.684 18.9158 106.7 18.9888C106.72 19.0785 106.73 19.1718 106.73 19.2655C106.738 19.4053 106.706 19.5441 106.639 19.6536C106.607 19.6965 106.569 19.73 106.526 19.7518C106.483 19.7737 106.438 19.7834 106.392 19.7803H105.656Z" fill="white"/>
<path d="M5.02643 2.11544V9.51808C4.88783 9.55693 4.74711 9.58527 4.60522 9.60294C4.41587 9.62937 4.22526 9.64236 4.0345 9.64184C3.71967 9.67583 3.40392 9.58867 3.13781 9.39433C3.0404 9.27504 2.96688 9.13318 2.92231 8.97847C2.87774 8.82376 2.86319 8.65989 2.87964 8.49817V2.11544H0.746422C0.682352 1.98796 0.629984 1.85332 0.590142 1.71365C0.538979 1.53929 0.513717 1.35646 0.515393 1.17267C0.493949 0.897307 0.56696 0.623183 0.719148 0.407651C0.792341 0.325976 0.879669 0.262506 0.975586 0.221281C1.0715 0.180056 1.17391 0.161975 1.2763 0.168185H7.21404C7.28587 0.292012 7.34084 0.427472 7.37709 0.569978C7.42372 0.74523 7.44664 0.927529 7.44506 1.11062C7.4644 1.38338 7.39147 1.65426 7.24116 1.86792C7.16909 1.9518 7.08214 2.01725 6.9861 2.05993C6.89006 2.10261 6.78713 2.12154 6.68415 2.11544H5.02643Z" fill="white"/>
<path d="M17.157 4.90091C17.1694 5.5971 17.054 6.28949 16.8169 6.94224C16.6158 7.49541 16.2985 7.99673 15.8871 8.4108C15.4758 8.82486 14.9806 9.14159 14.4365 9.33861C13.2745 9.75251 12.0097 9.75251 10.8477 9.33861C10.3147 9.14235 9.82873 8.83221 9.42224 8.42885C9.00811 8.00796 8.68734 7.50096 8.4817 6.94224C8.24448 6.28951 8.12912 5.59709 8.1416 4.90089C8.12857 4.2064 8.24649 3.51584 8.48892 2.86694C8.70099 2.31016 9.02659 1.8059 9.44407 1.38771C9.8521 0.986452 10.3375 0.676603 10.8693 0.477953C11.4373 0.266772 12.0377 0.161521 12.6421 0.167211C13.2487 0.161964 13.8514 0.267187 14.422 0.477953C14.9566 0.675348 15.4447 0.985286 15.8546 1.38771C16.2721 1.80591 16.5976 2.31017 16.8096 2.86694C17.0521 3.51583 17.1701 4.20641 17.157 4.90091V4.90091ZM14.8127 4.90091C14.8127 3.95424 14.6174 3.24169 14.2267 2.76327C14.0269 2.53738 13.7829 2.35682 13.5106 2.23324C13.2383 2.10966 12.9437 2.04581 12.6458 2.04581C12.3478 2.04581 12.0532 2.10966 11.7809 2.23324C11.5086 2.35682 11.2646 2.53738 11.0648 2.76327C10.6691 3.24191 10.4713 3.95445 10.4714 4.90091C10.4714 5.85753 10.6668 6.57489 11.0574 7.05299C11.258 7.27894 11.5026 7.4595 11.7755 7.58306C12.0484 7.70662 12.3436 7.77045 12.6421 7.77045C12.9405 7.77045 13.2357 7.70662 13.5086 7.58306C13.7815 7.4595 14.0261 7.27894 14.2267 7.05299C14.6174 6.575 14.8127 5.85764 14.8127 4.90091H14.8127Z" fill="white"/>
<path d="M22.8216 2.11544V9.51808C22.6692 9.55693 22.5144 9.58527 22.3583 9.60294C22.15 9.62937 21.9404 9.64236 21.7305 9.64184C21.3842 9.67583 21.0369 9.58867 20.7442 9.39433C20.637 9.27504 20.5561 9.13318 20.5071 8.97847C20.4581 8.82376 20.4421 8.65989 20.4602 8.49817V2.11544H18.1136C18.0432 1.98796 17.9856 1.85332 17.9417 1.71365C17.8855 1.53929 17.8577 1.35646 17.8595 1.17267C17.8359 0.897307 17.9162 0.623184 18.0836 0.407651C18.1641 0.325976 18.2602 0.262506 18.3657 0.221281C18.4712 0.180056 18.5839 0.161976 18.6965 0.168185H25.228C25.307 0.292012 25.3675 0.427472 25.4074 0.569978C25.4587 0.74523 25.4839 0.927529 25.4821 1.11062C25.5034 1.38338 25.4232 1.65426 25.2579 1.86792C25.1786 1.9518 25.0829 2.01725 24.9773 2.05993C24.8716 2.10261 24.7584 2.12154 24.6451 2.11544H22.8216Z" fill="white"/>
<path d="M31.4662 7.47454H28.4035C28.2887 7.83841 28.1819 8.19723 28.083 8.55101C27.984 8.90501 27.8981 9.21831 27.8253 9.49093C27.6898 9.53106 27.5492 9.56648 27.4034 9.59719C27.2284 9.63005 27.0503 9.64527 26.872 9.64259C26.5093 9.66573 26.1476 9.58398 25.8328 9.40769C25.7193 9.33406 25.6273 9.23328 25.5658 9.11507C25.5042 8.99686 25.4751 8.86523 25.4813 8.73292C25.4808 8.59423 25.5018 8.45626 25.5437 8.32365C25.5852 8.19238 25.6321 8.04072 25.6844 7.86865C25.7572 7.59592 25.8613 7.25738 25.9969 6.85305C26.1322 6.44904 26.2807 6.01192 26.4424 5.54168C26.6038 5.07187 26.7731 4.58935 26.9502 4.0941C27.1272 3.59896 27.2991 3.12641 27.4658 2.67646C27.6323 2.22673 27.7834 1.81494 27.919 1.44109C28.0544 1.06702 28.1689 0.768843 28.2627 0.546554C28.4918 0.428965 28.7363 0.342192 28.9895 0.288622C29.3086 0.209073 29.6367 0.168402 29.9661 0.167552C30.3884 0.160252 30.8088 0.224378 31.2083 0.357053C31.3668 0.402042 31.5122 0.482365 31.633 0.591585C31.7537 0.700804 31.8465 0.835896 31.9039 0.98609C32.1016 1.52202 32.3151 2.1436 32.5445 2.85083C32.7735 3.5585 33.0053 4.28612 33.2398 5.03371C33.4743 5.78184 33.7009 6.51967 33.9196 7.24718C34.1383 7.97492 34.3311 8.62677 34.4978 9.20273C34.3595 9.34947 34.1846 9.45915 33.99 9.52119C33.7312 9.60757 33.4588 9.64868 33.1852 9.64259C32.8526 9.67337 32.5191 9.59318 32.2398 9.41526C32.034 9.22352 31.8948 8.97451 31.8413 8.70265L31.4662 7.47454ZM29.9505 2.28992C29.8044 2.74459 29.6247 3.26253 29.4113 3.84376C29.1977 4.42509 28.9972 5.01893 28.8098 5.62526H31.0444C30.867 4.98833 30.6873 4.37936 30.5052 3.79836C30.3229 3.21735 30.1693 2.71454 30.0443 2.28992H29.9505Z" fill="white"/>
<path d="M35.532 9.30243C35.4166 9.1794 35.327 9.03373 35.2687 8.8743C35.2104 8.71488 35.1846 8.54503 35.1929 8.37514V0.295053C35.3035 0.274758 35.4617 0.24925 35.6676 0.218528C35.8697 0.188197 36.0736 0.172853 36.2779 0.172612C36.6199 0.144118 36.9621 0.224458 37.2573 0.402521C37.3723 0.519741 37.4592 0.662289 37.5115 0.819148C37.5637 0.976007 37.5798 1.14298 37.5586 1.30719V7.70039H41.175C41.2459 7.82696 41.3039 7.9605 41.3483 8.09898C41.4049 8.27198 41.4329 8.45334 41.431 8.63566C41.4512 8.90723 41.3735 9.17697 41.2126 9.39459C41.1381 9.47903 41.046 9.54554 40.9431 9.58927C40.8401 9.63301 40.7289 9.65289 40.6175 9.64746H36.4435C36.2765 9.65598 36.1096 9.62978 35.9529 9.57046C35.7961 9.51113 35.653 9.41994 35.532 9.30243V9.30243Z" fill="white"/>
<path d="M48.1098 9.60333C47.9093 9.62933 47.7074 9.64211 47.5053 9.6416C47.1739 9.67603 46.8413 9.59017 46.5624 9.39817C46.4614 9.27956 46.3854 9.13965 46.3395 8.98771C46.2936 8.83577 46.2788 8.67528 46.296 8.51684V0.293945C46.4016 0.273826 46.5528 0.248538 46.7495 0.218082C46.9426 0.188014 47.1374 0.172802 47.3326 0.172564C47.6593 0.144316 47.9863 0.22396 48.2682 0.400483C48.3781 0.516688 48.4612 0.658003 48.5111 0.813504C48.561 0.969005 48.5764 1.13453 48.5561 1.29732V3.97231H51.6512V0.293945C51.7566 0.273826 51.9078 0.248538 52.1047 0.218082C52.3024 0.187646 52.5021 0.172434 52.702 0.172564C53.0261 0.144355 53.3499 0.229798 53.6234 0.415656C53.7324 0.5356 53.8149 0.679674 53.8647 0.837417C53.9144 0.99516 53.9304 1.16262 53.9113 1.32766V9.51988C53.7644 9.55807 53.6153 9.58595 53.465 9.60333C53.2644 9.62933 53.0625 9.64211 52.8604 9.6416C52.529 9.67602 52.1964 9.59015 51.9175 9.39817C51.8165 9.27958 51.7406 9.13967 51.6946 8.98773C51.6487 8.83579 51.6339 8.67528 51.6512 8.51684V5.85702H48.5561V9.51988C48.4093 9.5581 48.2602 9.58598 48.1098 9.60333Z" fill="white"/>
<path d="M56.3303 9.29666C56.2202 9.17157 56.1347 9.02347 56.0791 8.86138C56.0235 8.69929 55.999 8.52661 56.0069 8.35388V1.46383C55.9952 1.29068 56.018 1.11682 56.0738 0.95409C56.1295 0.791358 56.217 0.643578 56.3302 0.520819C56.4433 0.39806 56.5796 0.303207 56.7296 0.242712C56.8796 0.182218 57.0398 0.157501 57.1994 0.170257H61.9554C62.0208 0.293614 62.0738 0.424268 62.1135 0.559953C62.1635 0.731196 62.1878 0.910072 62.1853 1.0897C62.2055 1.3635 62.1313 1.63568 61.977 1.85353C61.9025 1.93837 61.8118 2.00461 61.7113 2.04766C61.6108 2.09071 61.5029 2.10953 61.395 2.10284H58.2053V3.84867H61.5388C61.604 3.97216 61.657 4.10279 61.6969 4.23837C61.7468 4.40976 61.771 4.58873 61.7686 4.76845C61.7894 5.03871 61.7178 5.30784 61.5675 5.5245C61.4936 5.60755 61.4039 5.67219 61.3046 5.71389C61.2054 5.7556 61.099 5.77338 60.9928 5.76603H58.2053V7.71451H62.0129C62.0798 7.84254 62.1329 7.97853 62.171 8.11977C62.2203 8.29665 62.2445 8.48063 62.2429 8.66541C62.2649 8.93466 62.1902 9.20273 62.0344 9.41368C61.96 9.49327 61.8711 9.55516 61.7734 9.5954C61.6757 9.63565 61.5713 9.65336 61.4669 9.64743H57.1994C57.0402 9.6561 56.881 9.62947 56.7315 9.56916C56.5821 9.50885 56.4456 9.41613 56.3303 9.29666Z" fill="white"/>
<path d="M69.1581 7.47454H66.331C66.225 7.83841 66.1264 8.19723 66.0352 8.55101C65.9438 8.90501 65.8645 9.21831 65.7973 9.49093C65.6722 9.53106 65.5424 9.56648 65.4078 9.59719C65.2463 9.63005 65.0819 9.64527 64.9173 9.64259C64.5825 9.66573 64.2486 9.58398 63.958 9.40769C63.8533 9.33406 63.7684 9.23328 63.7115 9.11507C63.6547 8.99686 63.6278 8.86523 63.6336 8.73292C63.6331 8.59423 63.6525 8.45626 63.6912 8.32365C63.7295 8.19238 63.7728 8.04072 63.8211 7.86865C63.8882 7.59592 63.9844 7.25738 64.1095 6.85305C64.2344 6.44904 64.3715 6.01192 64.5207 5.54168C64.6697 5.07187 64.826 4.58935 64.9895 4.0941C65.1529 3.59896 65.3115 3.12641 65.4654 2.67646C65.6191 2.22673 65.7586 1.81494 65.8838 1.44109C66.0087 1.06702 66.1145 0.768843 66.2011 0.546554C66.4125 0.428965 66.6382 0.342192 66.8719 0.288622C67.1665 0.209073 67.4693 0.168402 67.7734 0.167552C68.1632 0.160252 68.5512 0.224378 68.9201 0.357053C69.0663 0.402042 69.2006 0.482365 69.3121 0.591585C69.4235 0.700804 69.5092 0.835896 69.5621 0.98609C69.7446 1.52202 69.9417 2.1436 70.1534 2.85083C70.3649 3.5585 70.5788 4.28612 70.7953 5.03371C71.0118 5.78184 71.2209 6.51967 71.4228 7.24718C71.6247 7.97492 71.8026 8.62677 71.9565 9.20273C71.8289 9.34947 71.6674 9.45915 71.4877 9.52119C71.2489 9.60757 70.9974 9.64868 70.7449 9.64259C70.4378 9.67337 70.13 9.59318 69.8722 9.41526C69.6823 9.22352 69.5537 8.97451 69.5043 8.70265L69.1581 7.47454ZM67.759 2.28992C67.6241 2.74459 67.4582 3.26253 67.2613 3.84376C67.0641 4.42509 66.879 5.01893 66.706 5.62526H68.7687C68.605 4.98833 68.4391 4.37936 68.271 3.79836C68.1027 3.21735 67.9609 2.71454 67.8456 2.28992H67.759Z" fill="white"/>
<path d="M73.6844 9.30243C73.5689 9.1794 73.4793 9.03373 73.421 8.8743C73.3627 8.71488 73.337 8.54503 73.3453 8.37514V0.295053C73.4558 0.274758 73.614 0.24925 73.8199 0.218528C74.022 0.188197 74.226 0.172853 74.4303 0.172612C74.7722 0.144118 75.1145 0.224458 75.4096 0.402521C75.5246 0.519741 75.6116 0.662289 75.6638 0.819148C75.7161 0.976007 75.7322 1.14298 75.7109 1.30719V7.70039H79.3274C79.3982 7.82696 79.4563 7.9605 79.5007 8.09898C79.5572 8.27198 79.5852 8.45334 79.5834 8.63566C79.6035 8.90723 79.5259 9.17697 79.365 9.39459C79.2904 9.47903 79.1983 9.54554 79.0954 9.58927C78.9925 9.63301 78.8812 9.65289 78.7698 9.64746H74.5959C74.4289 9.65598 74.2619 9.62978 74.1052 9.57046C73.9485 9.51113 73.8053 9.41994 73.6844 9.30243V9.30243Z" fill="white"/>
<path d="M84.1007 2.11544V9.51808C83.9621 9.55693 83.8214 9.58527 83.6795 9.60294C83.4901 9.62937 83.2995 9.64236 83.1087 9.64184C82.7939 9.67583 82.4782 9.58867 82.212 9.39433C82.1146 9.27504 82.0411 9.13318 81.9965 8.97847C81.952 8.82376 81.9374 8.65989 81.9539 8.49817V2.11544H79.8206C79.7566 1.98796 79.7042 1.85332 79.6644 1.71365C79.6132 1.53929 79.5879 1.35646 79.5896 1.17267C79.5682 0.897308 79.6412 0.623184 79.7934 0.407651C79.8666 0.325975 79.9539 0.262506 80.0498 0.221281C80.1457 0.180056 80.2481 0.161975 80.3505 0.168185H86.2883C86.3601 0.292013 86.4151 0.427472 86.4513 0.569978C86.4979 0.74523 86.5209 0.927529 86.5193 1.11062C86.5386 1.38338 86.4657 1.65426 86.3154 1.86792C86.2433 1.9518 86.1564 2.01725 86.0603 2.05993C85.9643 2.10261 85.8613 2.12154 85.7584 2.11544H84.1007Z" fill="white"/>
<path d="M89.7309 9.60334C89.5304 9.62934 89.3285 9.64212 89.1264 9.6416C88.7951 9.67602 88.4625 9.59016 88.1836 9.39818C88.0826 9.2796 88.0066 9.1397 87.9606 8.98776C87.9147 8.83581 87.8999 8.6753 87.9171 8.51685V0.293953C88.0227 0.273834 88.1739 0.248546 88.3707 0.21809C88.5638 0.188016 88.7586 0.172804 88.9537 0.172572C89.2804 0.144301 89.6073 0.223947 89.8893 0.400491C89.9992 0.516681 90.0823 0.657989 90.1322 0.813491C90.1822 0.968993 90.1976 1.13453 90.1773 1.29732V3.97232H93.2722V0.293953C93.3778 0.273834 93.529 0.248546 93.7258 0.21809C93.9236 0.187654 94.1232 0.172442 94.3231 0.172572C94.6471 0.144382 94.9709 0.229825 95.2443 0.415663C95.3534 0.535593 95.4359 0.67966 95.4857 0.837404C95.5355 0.995148 95.5515 1.16261 95.5324 1.32767V9.51989C95.3855 9.55806 95.2363 9.58594 95.086 9.60334C94.8854 9.62933 94.6835 9.64211 94.4815 9.6416C94.1501 9.67602 93.8176 9.59016 93.5387 9.39818C93.4377 9.2796 93.3617 9.1397 93.3157 8.98776C93.2698 8.83582 93.2549 8.6753 93.2722 8.51685V5.85702H90.1773V9.51989C90.0304 9.55812 89.8813 9.586 89.7309 9.60334V9.60334Z" fill="white"/>
<path d="M103.486 7.75508C103.878 7.79037 104.271 7.69415 104.602 7.48159C104.705 7.40513 104.788 7.30586 104.846 7.19161C104.904 7.07736 104.934 6.95125 104.935 6.82323C104.939 6.71477 104.917 6.60692 104.872 6.50814C104.827 6.40935 104.76 6.3223 104.676 6.25379C104.443 6.08063 104.18 5.95269 103.9 5.87662L103.146 5.64005C102.762 5.5236 102.387 5.38271 102.022 5.21826C101.71 5.0804 101.421 4.89587 101.164 4.67099C100.929 4.46086 100.74 4.20394 100.609 3.91665C100.468 3.58258 100.4 3.22199 100.41 2.8593C100.396 2.47993 100.474 2.10286 100.638 1.76028C100.801 1.41769 101.045 1.11976 101.349 0.89193C101.975 0.408832 102.845 0.167231 103.959 0.167126C104.352 0.164733 104.745 0.19447 105.134 0.256041C105.454 0.302901 105.765 0.394993 106.058 0.529528C106.291 0.634599 106.497 0.788412 106.665 0.980524C106.811 1.15417 106.89 1.37483 106.887 1.60197C106.891 1.81409 106.832 2.02261 106.717 2.20094C106.61 2.36611 106.478 2.51334 106.325 2.63717C106.047 2.45694 105.743 2.32214 105.423 2.23786C105.024 2.12619 104.61 2.0714 104.196 2.07511C103.832 2.04982 103.468 2.12675 103.146 2.29724C103.044 2.3526 102.96 2.43373 102.9 2.53245C102.84 2.63116 102.808 2.74393 102.805 2.8593C102.801 2.94715 102.819 3.0347 102.858 3.11363C102.897 3.19256 102.955 3.26025 103.027 3.3103C103.244 3.44628 103.478 3.55322 103.722 3.6284L104.521 3.89451C104.94 4.03375 105.348 4.20436 105.741 4.40489C106.063 4.56783 106.359 4.77709 106.621 5.02601C106.853 5.25149 107.034 5.52386 107.153 5.82496C107.276 6.15329 107.337 6.50204 107.331 6.8528C107.336 7.24354 107.252 7.63035 107.087 7.98431C106.918 8.33114 106.67 8.63287 106.362 8.86447C106.007 9.12812 105.605 9.32368 105.179 9.4413C104.652 9.58712 104.106 9.65684 103.56 9.64834C103.138 9.65121 102.717 9.61413 102.303 9.5376C101.957 9.47631 101.622 9.36933 101.305 9.21949C101.048 9.10036 100.821 8.92609 100.639 8.70911C100.48 8.51578 100.393 8.27233 100.395 8.02154C100.387 7.77896 100.468 7.54186 100.624 7.3558C100.769 7.1851 100.941 7.04011 101.134 6.92695C101.438 7.16579 101.774 7.36003 102.133 7.50378C102.562 7.67713 103.023 7.76258 103.486 7.75508V7.75508Z" fill="white"/>
<path d="M117.735 4.90091C117.748 5.59711 117.632 6.28951 117.395 6.94224C117.194 7.49541 116.877 7.99673 116.465 8.4108C116.054 8.82486 115.559 9.14159 115.015 9.33861C113.853 9.7525 112.588 9.7525 111.426 9.33861C110.893 9.14232 110.407 8.83218 110 8.42885C109.586 8.008 109.265 7.501 109.06 6.94224C108.823 6.28951 108.707 5.59709 108.72 4.90089C108.707 4.2064 108.825 3.51585 109.067 2.86694C109.279 2.31017 109.605 1.80591 110.022 1.38771C110.43 0.986484 110.916 0.676641 111.447 0.477955C112.015 0.266747 112.616 0.161496 113.22 0.167213C113.827 0.161952 114.43 0.267176 115 0.477955C115.535 0.675312 116.023 0.985255 116.433 1.38771C116.85 1.80591 117.176 2.31017 117.388 2.86694C117.63 3.51585 117.748 4.20642 117.735 4.90091V4.90091ZM115.391 4.90091C115.391 3.95424 115.195 3.24169 114.805 2.76328C114.605 2.53738 114.361 2.35682 114.089 2.23324C113.816 2.10966 113.522 2.04581 113.224 2.04581C112.926 2.04581 112.631 2.10966 112.359 2.23324C112.087 2.35682 111.843 2.53738 111.643 2.76328C111.247 3.24191 111.049 3.95445 111.05 4.90091C111.05 5.85753 111.245 6.57489 111.636 7.05299C111.836 7.27894 112.081 7.4595 112.354 7.58306C112.627 7.70663 112.922 7.77045 113.22 7.77045C113.519 7.77045 113.814 7.70663 114.087 7.58306C114.36 7.4595 114.604 7.27894 114.805 7.05299C115.195 6.575 115.391 5.85764 115.391 4.90091Z" fill="white"/>
<path d="M119.465 9.30243C119.35 9.17936 119.26 9.03367 119.202 8.87425C119.144 8.71483 119.118 8.54501 119.127 8.37515V0.295058C119.237 0.274764 119.395 0.249255 119.601 0.218533C119.803 0.188197 120.007 0.172852 120.211 0.172618C120.553 0.144108 120.896 0.224447 121.191 0.402527C121.306 0.519761 121.393 0.662316 121.445 0.819175C121.497 0.976033 121.513 1.143 121.492 1.30719V7.70039H125.108C125.179 7.82686 125.237 7.96043 125.282 8.09899C125.338 8.27195 125.366 8.45332 125.365 8.63567C125.385 8.90723 125.307 9.17697 125.146 9.3946C125.072 9.47905 124.979 9.54555 124.876 9.58928C124.773 9.63302 124.662 9.65289 124.551 9.64746H120.377C120.21 9.65597 120.043 9.62976 119.886 9.57044C119.729 9.51112 119.586 9.41993 119.465 9.30243V9.30243Z" fill="white"/>
<path d="M130.557 9.64839C130.015 9.65741 129.475 9.57141 128.96 9.39402C128.519 9.24091 128.113 8.99641 127.767 8.67543C127.439 8.36632 127.182 7.98528 127.015 7.56018C126.836 7.09622 126.747 6.60014 126.754 6.10058V0.292356C126.86 0.272541 127.012 0.247635 127.21 0.217638C127.409 0.187661 127.609 0.172679 127.81 0.172807C128.136 0.144026 128.462 0.22259 128.743 0.397287C128.851 0.513052 128.932 0.652617 128.981 0.805556C129.03 0.958496 129.045 1.12087 129.025 1.28059V6.05573C129.011 6.28309 129.041 6.51102 129.115 6.72583C129.188 6.94065 129.302 7.13792 129.451 7.30579C129.597 7.4535 129.77 7.56885 129.96 7.64477C130.15 7.72068 130.354 7.75557 130.557 7.74728C130.763 7.75647 130.969 7.72206 131.162 7.64615C131.355 7.57024 131.53 7.45442 131.678 7.30579C131.827 7.13787 131.941 6.9406 132.015 6.72579C132.088 6.51099 132.119 6.28308 132.105 6.05573V0.292377C132.211 0.272561 132.363 0.247655 132.56 0.217658C132.759 0.187693 132.96 0.172711 133.16 0.172827C133.486 0.144092 133.813 0.222653 134.093 0.397307C134.201 0.513072 134.283 0.652617 134.332 0.805556C134.381 0.958496 134.395 1.12089 134.375 1.28061V6.10058C134.382 6.60014 134.294 7.09622 134.115 7.56018C133.947 7.98522 133.691 8.36623 133.363 8.67543C133.014 8.99737 132.606 9.24193 132.163 9.39402C131.645 9.57098 131.102 9.65696 130.557 9.64839V9.64839Z" fill="white"/>
<path d="M140.736 2.11544V9.51808C140.583 9.55693 140.429 9.58528 140.273 9.60294C140.064 9.62938 139.854 9.64237 139.645 9.64184C139.298 9.67583 138.951 9.58867 138.658 9.39433C138.551 9.27506 138.47 9.13318 138.421 8.97847C138.372 8.82376 138.356 8.65991 138.374 8.49817V2.11544H136.028C135.957 1.98796 135.899 1.85332 135.856 1.71365C135.799 1.53928 135.772 1.35646 135.774 1.17267C135.75 0.897299 135.83 0.623144 135.998 0.407651C136.078 0.325977 136.174 0.262507 136.28 0.221281C136.385 0.180056 136.498 0.161975 136.61 0.168185H143.142C143.221 0.291974 143.282 0.427445 143.322 0.569978C143.373 0.745257 143.398 0.927543 143.396 1.11062C143.418 1.38336 143.337 1.65423 143.172 1.86792C143.093 1.95178 142.997 2.01721 142.891 2.05989C142.786 2.10257 142.673 2.1215 142.559 2.11544H140.736Z" fill="white"/>
<path d="M145.901 9.6416C145.598 9.67602 145.294 9.59016 145.039 9.39819C144.947 9.27958 144.877 9.1397 144.835 8.98776C144.793 8.83582 144.78 8.67531 144.795 8.51689V0.294269C144.892 0.274151 145.03 0.248864 145.21 0.218409C145.391 0.187974 145.573 0.172763 145.756 0.172893C146.053 0.143681 146.35 0.223443 146.605 0.400804C146.704 0.518368 146.778 0.66008 146.822 0.815357C146.867 0.970634 146.88 1.13547 146.862 1.29761V9.5199C146.728 9.5581 146.591 9.58597 146.454 9.60334C146.271 9.62934 146.086 9.64212 145.901 9.6416V9.6416Z" fill="white"/>
<path d="M157.274 4.90091C157.287 5.59711 157.171 6.28951 156.934 6.94224C156.733 7.49541 156.416 7.99673 156.004 8.4108C155.593 8.82486 155.098 9.14159 154.554 9.33861C153.392 9.75251 152.127 9.75251 150.965 9.33861C150.432 9.14232 149.946 8.83218 149.539 8.42886C149.125 8.00801 148.804 7.501 148.599 6.94224C148.362 6.28951 148.246 5.59709 148.259 4.90089C148.246 4.2064 148.364 3.51585 148.606 2.86694C148.818 2.31017 149.144 1.80591 149.561 1.38771C149.969 0.986484 150.455 0.676641 150.987 0.477955C151.554 0.266746 152.155 0.161495 152.759 0.167213C153.366 0.161952 153.969 0.267176 154.539 0.477955C155.074 0.675312 155.562 0.985255 155.972 1.38771C156.389 1.80591 156.715 2.31017 156.927 2.86694C157.169 3.51585 157.287 4.20642 157.274 4.90091V4.90091ZM154.93 4.90091C154.93 3.95424 154.735 3.24169 154.344 2.76328C154.144 2.53738 153.9 2.35682 153.628 2.23324C153.355 2.10966 153.061 2.04581 152.763 2.04581C152.465 2.04581 152.17 2.10966 151.898 2.23324C151.626 2.35682 151.382 2.53738 151.182 2.76328C150.786 3.24191 150.588 3.95445 150.589 4.90091C150.589 5.85753 150.784 6.57489 151.175 7.05299C151.375 7.27894 151.62 7.4595 151.893 7.58306C152.166 7.70663 152.461 7.77045 152.759 7.77045C153.058 7.77045 153.353 7.70663 153.626 7.58306C153.899 7.4595 154.143 7.27894 154.344 7.05299C154.735 6.575 154.93 5.85764 154.93 4.90091H154.93Z" fill="white"/>
<path d="M166.439 9.53449C166.176 9.61564 165.903 9.65408 165.629 9.6485C165.319 9.65061 165.011 9.59405 164.72 9.48144C164.401 9.33465 164.147 9.06301 164.009 8.72227L162.36 5.32113C162.199 4.99723 162.05 4.67333 161.913 4.34942C161.775 4.02552 161.64 3.68635 161.508 3.33192L161.408 3.36256C161.455 3.96983 161.484 4.54932 161.494 5.10102C161.503 5.65261 161.508 6.18652 161.508 6.70274V9.52691C161.413 9.54702 161.273 9.56975 161.088 9.59512C160.897 9.62096 160.705 9.63373 160.513 9.63334C160.198 9.66594 159.882 9.58283 159.618 9.39775C159.521 9.28491 159.448 9.15135 159.404 9.00603C159.36 8.86072 159.346 8.707 159.362 8.55521V0.735757C159.501 0.544372 159.692 0.403796 159.909 0.333433C160.167 0.23598 160.438 0.187144 160.712 0.18911C161.024 0.185573 161.335 0.242164 161.628 0.356168C161.942 0.501758 162.192 0.767123 162.332 1.10019L163.995 4.51648C164.156 4.84038 164.305 5.16429 164.442 5.48819C164.58 5.81209 164.715 6.15115 164.847 6.50537L164.904 6.49021C164.857 5.81209 164.831 5.16934 164.826 4.56195C164.821 3.95468 164.819 3.37266 164.819 2.81591V0.29521C164.914 0.275112 165.054 0.24985 165.238 0.219424C165.434 0.188288 165.631 0.173088 165.828 0.173953C166.143 0.141282 166.459 0.224269 166.724 0.409218C166.82 0.522096 166.892 0.655651 166.937 0.800957C166.981 0.946264 166.995 1.09997 166.979 1.25176V9.23827C166.82 9.37499 166.636 9.47576 166.439 9.53449V9.53449Z" fill="white"/>
<path d="M172.158 7.75508C172.55 7.79037 172.943 7.69415 173.274 7.48159C173.377 7.40513 173.46 7.30586 173.518 7.19161C173.576 7.07737 173.606 6.95126 173.607 6.82323C173.611 6.71479 173.589 6.60697 173.544 6.50818C173.499 6.40939 173.432 6.32232 173.348 6.25379C173.115 6.0807 172.852 5.95277 172.572 5.87662L171.817 5.64005C171.434 5.5236 171.059 5.38271 170.694 5.21826C170.382 5.0804 170.093 4.89587 169.836 4.67099C169.601 4.46103 169.412 4.20407 169.282 3.91665C169.14 3.58263 169.072 3.222 169.082 2.8593C169.068 2.47992 169.146 2.10281 169.31 1.76022C169.473 1.41762 169.717 1.11971 170.021 0.891928C170.647 0.408829 171.517 0.167228 172.631 0.167123C173.025 0.164756 173.418 0.194492 173.806 0.256038C174.126 0.302991 174.437 0.395079 174.731 0.529525C174.963 0.634681 175.169 0.788486 175.337 0.980522C175.483 1.15409 175.562 1.3748 175.559 1.60197C175.563 1.81409 175.504 2.02261 175.389 2.20094C175.282 2.3661 175.15 2.51333 174.997 2.63717C174.719 2.45689 174.415 2.32208 174.095 2.23786C173.695 2.12619 173.282 2.0714 172.867 2.07511C172.504 2.04986 172.14 2.12679 171.817 2.29724C171.716 2.3526 171.631 2.43373 171.572 2.53245C171.512 2.63116 171.479 2.74393 171.477 2.8593C171.473 2.94718 171.491 3.03477 171.53 3.11371C171.569 3.19265 171.627 3.26032 171.699 3.3103C171.916 3.44635 172.15 3.5533 172.394 3.6284L173.193 3.89451C173.612 4.03375 174.019 4.20436 174.413 4.40489C174.735 4.56775 175.031 4.77702 175.293 5.02601C175.525 5.25148 175.706 5.52384 175.825 5.82496C175.948 6.15336 176.008 6.50208 176.002 6.85281C176.008 7.24356 175.924 7.6304 175.759 7.98431C175.59 8.33121 175.342 8.63296 175.034 8.86448C174.679 9.12818 174.277 9.32376 173.851 9.4413C173.324 9.5871 172.779 9.65682 172.232 9.64834C171.81 9.65123 171.389 9.61415 170.975 9.5376C170.629 9.47626 170.294 9.36929 169.976 9.21949C169.72 9.10028 169.493 8.92603 169.311 8.70911C169.151 8.51578 169.065 8.27233 169.067 8.02154C169.059 7.7789 169.14 7.54175 169.296 7.3558C169.441 7.18517 169.614 7.04019 169.806 6.92694C170.11 7.16571 170.446 7.35994 170.805 7.50376C171.234 7.67712 171.694 7.76257 172.158 7.75508V7.75508Z" fill="white"/>
</svg>
