<svg width="68" height="37" viewBox="0 0 68 37" fill="none" xmlns="http://www.w3.org/2000/svg">
<path d="M31.3691 0C31.5287 0.0603638 31.6874 0.123658 31.848 0.180559C32.3884 0.371905 32.9534 0.507611 33.4662 0.760217C35.6039 1.81324 37.0003 3.55934 37.6729 5.92673C37.8029 6.46236 37.8869 7.00912 37.9239 7.56047C37.9499 7.80952 38.0248 7.90047 38.2619 7.8928C38.6785 7.87931 39.0959 7.89547 39.5128 7.88913C39.7011 7.88627 39.785 7.96172 39.777 8.16385C39.7685 8.37742 39.7758 8.59167 39.7758 8.80562C39.7755 16.3234 39.7751 23.8412 39.7748 31.359C39.7701 31.4561 39.7706 31.5534 39.7763 31.6505C39.8036 31.9056 39.7038 31.9847 39.4597 31.9834C37.6712 31.9737 35.8827 31.9735 34.0942 31.9828C33.8596 31.9841 33.7775 31.8925 33.7808 31.6673C33.7825 31.5507 33.7761 31.434 33.7761 31.3173C33.7758 28.4775 33.7756 25.6377 33.7757 22.7978C33.7756 22.239 33.8045 22.3044 33.3193 22.3041C31.225 22.3025 29.1307 22.3082 27.0364 22.2968C26.7672 22.2954 26.6963 22.3751 26.6972 22.6556C26.7067 25.6219 26.7032 28.5882 26.7029 31.5544C26.7029 31.9766 26.7018 31.9774 26.2923 31.9775C24.5502 31.9779 22.808 31.9724 21.0659 31.9833C20.7932 31.985 20.6989 31.9135 20.6992 31.6092C20.7062 23.8483 20.7075 16.0874 20.7031 8.32651C20.703 7.89779 20.7036 7.89523 21.1219 7.89065C21.474 7.8868 21.8263 7.88313 22.1782 7.89238C22.3823 7.89774 22.461 7.83386 22.4795 7.59768C22.701 4.76851 23.9745 2.61121 26.2765 1.12414C27.0095 0.667893 27.8084 0.339758 28.6418 0.152576C28.7243 0.115169 28.8003 0.0636081 28.8668 4.01237e-06L31.3691 0ZM26.7021 12.2628H26.703C26.703 13.5755 26.703 14.8882 26.703 16.2009C26.7029 16.6273 26.7026 16.6275 27.1106 16.6274C29.2138 16.6268 31.317 16.6263 33.4201 16.6258C33.8001 16.6258 33.7991 16.628 33.799 16.2185C33.7984 13.632 33.7987 11.0455 33.8 8.45902C33.8011 7.83721 33.7171 7.89423 34.3295 7.89167C35.1356 7.8883 35.9418 7.88123 36.7477 7.89412C36.9991 7.89814 37.07 7.80054 37.0569 7.55148C37.0151 6.77378 36.8363 6.01094 36.5297 5.3016C35.6462 3.23701 34.1821 1.83992 32.1073 1.19827C31.1333 0.90232 30.1089 0.83667 29.1078 1.00604C28.1067 1.17541 27.1538 1.57558 26.3177 2.17777C25.4816 2.77995 24.7832 3.56916 24.2726 4.48861C23.762 5.40805 23.4519 6.43486 23.3647 7.49513C23.3338 7.88746 23.3506 7.88949 23.7161 7.88976C24.5777 7.89042 25.4394 7.89082 26.3011 7.89096C26.7004 7.8914 26.7017 7.89238 26.7019 8.32472C26.7025 9.63741 26.7026 10.9501 26.7021 12.2628ZM22.5041 9.44081C22.4955 9.58669 22.5418 9.73028 22.633 9.84077C22.7242 9.95126 22.853 10.0199 22.9918 10.0318C23.0633 10.0366 23.135 10.0264 23.2028 10.0018C23.2705 9.97724 23.3329 9.93879 23.3864 9.88871C23.4399 9.83863 23.4834 9.77791 23.5144 9.71006C23.5453 9.64221 23.5631 9.56859 23.5668 9.49346C23.5634 9.35209 23.511 9.21686 23.4195 9.11307C23.3279 9.00928 23.2035 8.94404 23.0695 8.92956C22.9301 8.91948 22.7925 8.96751 22.6867 9.06323C22.5808 9.15895 22.5152 9.29463 22.5041 9.44081H22.5041ZM37.9319 9.49307C37.9363 9.42002 37.9263 9.3468 37.9025 9.278C37.8786 9.20921 37.8415 9.14634 37.7934 9.09334C37.7453 9.04034 37.6873 8.99836 37.6229 8.97003C37.5586 8.9417 37.4894 8.92765 37.4197 8.92875C37.3505 8.92954 37.2822 8.94462 37.2186 8.97312C37.155 9.00162 37.0974 9.04299 37.049 9.09487C37.0007 9.14674 36.9625 9.2081 36.9368 9.27545C36.911 9.3428 36.8981 9.41481 36.8989 9.48738C36.8996 9.55995 36.914 9.63165 36.9412 9.69839C36.9683 9.76513 37.0078 9.82561 37.0572 9.87636C37.1066 9.92711 37.1651 9.96715 37.2292 9.99419C37.2934 10.0212 37.362 10.0347 37.4312 10.0339C37.4985 10.035 37.5652 10.0216 37.6274 9.9946C37.6896 9.96759 37.7458 9.92753 37.7927 9.87688C37.8396 9.82623 37.8762 9.76606 37.9001 9.70006C37.924 9.63406 37.9348 9.56362 37.9319 9.49307Z" fill="white"/>
<path d="M53.5155 15.6098C52.9591 15.6594 52.4482 15.6693 51.9493 15.7556C49.8106 16.1259 48.2483 17.8453 47.9276 20.0924C47.5305 22.8749 49.1404 25.3623 51.6603 26.0033C52.8956 26.3338 54.2048 26.1515 55.3151 25.4942C56.4255 24.837 57.2515 23.7556 57.6211 22.4751C57.7839 21.8987 57.8712 21.3016 57.8806 20.7005C57.9033 18.0748 57.8733 15.4486 57.8815 12.8227C57.8851 11.6966 57.8773 10.5649 57.9792 9.44622C58.1083 8.02787 58.5918 6.71132 59.301 5.49389C60.4593 3.50577 62.0396 2.02301 64.1033 1.13557C65.1758 0.673672 66.3183 0.416294 67.4771 0.375529C67.6817 0.367873 67.7312 0.442744 67.7307 0.6393C67.7259 2.22465 67.7261 3.81 67.7311 5.39535C67.7317 5.58389 67.6667 5.64482 67.4937 5.66409C65.4505 5.89177 64.0164 7.00636 63.2484 8.99776C63.0353 9.55654 62.9218 10.1516 62.9134 10.7534C62.8822 14.0308 62.8915 17.3086 62.9014 20.5863C62.9079 22.7277 62.439 24.7276 61.3265 26.535C59.8797 28.8856 57.8725 30.4637 55.2762 31.1221C52.6575 31.7862 50.1423 31.4241 47.8017 29.9916C46.5378 29.2191 45.4501 28.1661 44.6147 26.9061C43.7793 25.6462 43.2164 24.2099 42.9653 22.6977C42.7143 21.1855 42.7812 19.634 43.1615 18.1518C43.5417 16.6696 44.226 15.2925 45.1665 14.117C46.1664 12.8504 47.4318 11.9376 48.8271 11.2074C50.1307 10.5251 51.5135 10.3115 52.9514 10.3904C52.9607 10.3909 52.97 10.3908 52.9792 10.3912C53.492 10.4147 53.4903 10.4147 53.4928 10.9506C53.4995 12.3899 53.5071 13.8293 53.5155 15.2686C53.5161 15.3831 53.5155 15.4976 53.5155 15.6098Z" fill="white"/>
<path d="M11.4486 22.6942C11.4487 25.6411 11.4488 28.5879 11.4486 31.5347C11.4486 31.9725 11.4479 31.9762 11.0203 31.9766C9.35229 31.9784 7.68428 31.9789 6.01626 31.9779C5.62848 31.9779 5.62631 31.9776 5.62629 31.5769C5.62602 25.7513 5.62627 19.9258 5.62705 14.1003C5.62717 13.4094 5.6301 13.4094 4.96219 13.4094C3.42389 13.4094 1.88555 13.4035 0.347338 13.4151C0.0860541 13.4171 -0.00225888 13.349 4.37154e-05 13.0605C0.0129239 11.4461 0.0132129 9.83176 0.000910617 8.21728C-0.000739286 7.96157 0.0681696 7.88549 0.31318 7.88576C5.77135 7.89184 11.2295 7.89118 16.6877 7.88379C16.9791 7.88335 17.045 7.99427 17.0432 8.27653C17.0331 9.87143 17.0334 11.4664 17.0442 13.0614C17.0465 13.3551 16.9425 13.416 16.687 13.4144C15.0747 13.4045 13.4622 13.4093 11.8498 13.4096C11.4497 13.4097 11.4487 13.4104 11.4486 13.8246C11.4483 16.7812 11.4483 19.7377 11.4486 22.6942Z" fill="white"/>
<path d="M59.0463 34.7664C59.0469 35.0594 58.9924 35.3496 58.8859 35.6205C58.7795 35.8914 58.6233 36.1376 58.4262 36.3451C58.2291 36.5526 57.9949 36.7172 57.7371 36.8297C57.4793 36.9421 57.2029 37.0002 56.9238 37.0005C56.6446 37.0008 56.3681 36.9433 56.1101 36.8314C55.8521 36.7195 55.6176 36.5553 55.4201 36.3483C55.2225 36.1412 55.0658 35.8953 54.9589 35.6247C54.852 35.354 54.7969 35.0639 54.7969 34.7709C54.7993 34.1816 55.024 33.6173 55.4217 33.2013C55.8194 32.7852 56.3579 32.5514 56.9195 32.5508C57.481 32.5502 58.0199 32.7829 58.4185 33.1981C58.817 33.6132 59.0427 34.1771 59.0463 34.7664Z" fill="white"/>
<path d="M50.517 34.7746C50.5752 35.9326 49.6143 36.992 48.4128 36.9952C48.1348 36.9945 47.8596 36.9363 47.6029 36.8239C47.3463 36.7116 47.1133 36.5473 46.9172 36.3404C46.7211 36.1336 46.5657 35.8882 46.4599 35.6183C46.3542 35.3484 46.3001 35.0593 46.3008 34.7675C46.3015 34.4757 46.3569 34.1869 46.464 33.9175C46.571 33.6482 46.7276 33.4037 46.9247 33.1978C47.1218 32.992 47.3556 32.829 47.6128 32.718C47.8699 32.607 48.1454 32.5502 48.4235 32.5509C48.7015 32.5473 48.9773 32.6025 49.2346 32.7133C49.4918 32.8241 49.7251 32.9882 49.9205 33.1958C50.1159 33.4034 50.2695 33.6502 50.372 33.9214C50.4745 34.1927 50.5238 34.4828 50.517 34.7746Z" fill="white"/>
<path d="M22.5049 9.44128C22.516 9.2951 22.5816 9.15942 22.6875 9.0637C22.7933 8.96798 22.9309 8.91995 23.0703 8.93003C23.2043 8.94451 23.3288 9.00975 23.4203 9.11354C23.5118 9.21733 23.5642 9.35256 23.5676 9.49393C23.564 9.56906 23.5461 9.64268 23.5152 9.71053C23.4842 9.77838 23.4408 9.83911 23.3873 9.88919C23.3338 9.93927 23.2714 9.9777 23.2036 10.0023C23.1359 10.0268 23.0641 10.0371 22.9926 10.0323C22.8538 10.0203 22.725 9.95173 22.6338 9.84124C22.5427 9.73075 22.4964 9.58716 22.5049 9.44128Z" fill="white"/>
<path d="M37.9315 9.4931C37.9344 9.56365 37.9236 9.63409 37.8997 9.70009C37.8757 9.76609 37.8392 9.82626 37.7923 9.87691C37.7454 9.92756 37.6892 9.96762 37.627 9.99462C37.5648 10.0216 37.498 10.035 37.4308 10.034C37.3616 10.0348 37.293 10.0213 37.2288 9.99421C37.1647 9.96718 37.1062 9.92714 37.0568 9.87639C37.0073 9.82563 36.9679 9.76516 36.9407 9.69842C36.9136 9.63168 36.8992 9.55998 36.8985 9.48741C36.8977 9.41484 36.9106 9.34283 36.9363 9.27548C36.9621 9.20813 37.0003 9.14677 37.0486 9.09489C37.097 9.04302 37.1546 9.00165 37.2182 8.97315C37.2818 8.94464 37.3501 8.92956 37.4193 8.92877C37.489 8.92767 37.5582 8.94173 37.6225 8.97005C37.6868 8.99838 37.7449 9.04036 37.793 9.09337C37.8411 9.14637 37.8782 9.20924 37.9021 9.27803C37.9259 9.34682 37.9359 9.42005 37.9315 9.4931Z" fill="white"/>
</svg>
