<svg width="22" height="22" viewBox="0 0 22 22" fill="none" xmlns="http://www.w3.org/2000/svg">
    <path fill-rule="evenodd" clip-rule="evenodd" d="M0.916016 7.01431C0.916016 4.63708 2.76284 2.70996 5.04102 2.70996C7.31919 2.70996 9.16602 4.63708 9.16602 7.01431V14.9853C9.16602 17.3626 7.31919 19.2897 5.04102 19.2897C2.76284 19.2897 0.916016 17.3625 0.916016 14.9853V7.01431ZM5.04102 4.623C3.77536 4.623 2.74935 5.69363 2.74935 7.01431V14.9853C2.74935 16.306 3.77536 17.3766 5.04102 17.3766C6.30667 17.3766 7.33268 16.306 7.33268 14.9853V7.01431C7.33268 5.69363 6.30667 4.623 5.04102 4.623Z" fill="#9393AA"/>
    <path fill-rule="evenodd" clip-rule="evenodd" d="M15.582 7.373C13.5198 7.373 11.9154 9.03474 11.9154 10.9998C11.9154 12.9649 13.5198 14.6266 15.582 14.6266C17.6442 14.6266 19.2487 12.9649 19.2487 10.9998C19.2487 9.03474 17.6442 7.373 15.582 7.373ZM10.082 10.9998C10.082 7.90228 12.5816 5.45996 15.582 5.45996C18.5824 5.45996 21.082 7.90228 21.082 10.9998C21.082 14.0974 18.5824 16.5397 15.582 16.5397C12.5816 16.5397 10.082 14.0974 10.082 10.9998Z" fill="#9393AA"/>
    <path fill-rule="evenodd" clip-rule="evenodd" d="M15.5827 5.45996C16.0889 5.45996 16.4993 5.88821 16.4993 6.41648V15.5831C16.4993 16.1114 16.0889 16.5397 15.5827 16.5397C15.0764 16.5397 14.666 16.1114 14.666 15.5831V6.41648C14.666 5.88821 15.0764 5.45996 15.5827 5.45996Z" fill="#9393AA"/>
    <path fill-rule="evenodd" clip-rule="evenodd" d="M0.916016 10.9995C0.916016 10.4712 1.32642 10.043 1.83268 10.043H8.24935C8.75561 10.043 9.16602 10.4712 9.16602 10.9995C9.16602 11.5278 8.75561 11.956 8.24935 11.956H1.83268C1.32642 11.956 0.916016 11.5278 0.916016 10.9995Z" fill="#9393AA"/>
    </svg>