<svg width="20" height="20" viewBox="0 0 20 20" fill="none" xmlns="http://www.w3.org/2000/svg">
<path fill-rule="evenodd" clip-rule="evenodd" d="M1.66602 5C1.66602 3.61929 2.7853 2.5 4.16602 2.5H15.8327C17.2134 2.5 18.3327 3.61929 18.3327 5V16.6667C18.3327 16.974 18.1635 17.2564 17.8926 17.4014C17.6216 17.5464 17.2928 17.5305 17.0371 17.36L13.497 15H4.16602C2.7853 15 1.66602 13.8807 1.66602 12.5V5ZM5.83268 7.08333C4.91221 7.08333 4.16602 7.82953 4.16602 8.75C4.16602 9.67047 4.91221 10.4167 5.83268 10.4167C6.75316 10.4167 7.49935 9.67047 7.49935 8.75C7.49935 7.82953 6.75316 7.08333 5.83268 7.08333ZM8.33268 8.75C8.33268 7.82953 9.07887 7.08333 9.99935 7.08333C10.9198 7.08333 11.666 7.82953 11.666 8.75C11.666 9.67047 10.9198 10.4167 9.99935 10.4167C9.07887 10.4167 8.33268 9.67047 8.33268 8.75ZM14.166 7.08333C13.2455 7.08333 12.4993 7.82953 12.4993 8.75C12.4993 9.67047 13.2455 10.4167 14.166 10.4167C15.0865 10.4167 15.8327 9.67047 15.8327 8.75C15.8327 7.82953 15.0865 7.08333 14.166 7.08333Z" fill="#24B2B2"/>
</svg>
