<svg className="tab-title tabprofile_option_icon" width="18" height="21" viewBox="0 0 18 21" fill="none" xmlns="http://www.w3.org/2000/svg">
    <svg className="profile_option_icon" width="14" height="22" viewBox="0 0 14 22" fill="none" xmlns="http://www.w3.org/2000/svg">
        <path fill-rule="evenodd" clip-rule="evenodd" d="M0.583984 3.66699C0.583984 2.14821 1.8152 0.916992 3.33398 0.916992H10.6673C12.1861 0.916992 13.4173 2.14821 13.4173 3.66699V18.3337C13.4173 19.8524 12.1861 21.0837 10.6673 21.0837H3.33398C1.8152 21.0837 0.583984 19.8524 0.583984 18.3337V3.66699ZM3.33398 2.75033C2.82772 2.75033 2.41732 3.16073 2.41732 3.66699V18.3337C2.41732 18.8399 2.82772 19.2503 3.33398 19.2503H10.6673C11.1736 19.2503 11.584 18.8399 11.584 18.3337V3.66699C11.584 3.16073 11.1736 2.75033 10.6673 2.75033H3.33398Z" fill="#9393AA" />
        <path fill-rule="evenodd" clip-rule="evenodd" d="M8.375 18.7923H5.625V16.959H8.375V18.7923Z" fill="#9393AA" />
        <path fill-rule="evenodd" clip-rule="evenodd" d="M3.33398 1.83366C3.33398 1.3274 3.74439 0.916992 4.25065 0.916992H9.75065C10.2569 0.916992 10.6673 1.3274 10.6673 1.83366V2.29199C10.6673 3.81078 9.4361 5.04199 7.91732 5.04199H6.08398C4.5652 5.04199 3.33398 3.81078 3.33398 2.29199V1.83366ZM5.28995 2.75033C5.44845 3.02432 5.74469 3.20866 6.08398 3.20866H7.91732C8.25661 3.20866 8.55286 3.02432 8.71135 2.75033H5.28995Z" fill="#9393AA" />
    </svg>
</svg>