<svg width="32" height="32" viewBox="0 0 32 32" fill="none" xmlns="http://www.w3.org/2000/svg">
<rect opacity="0.01" width="32" height="32" fill="#1E1F20"/>
<path fill-rule="evenodd" clip-rule="evenodd" d="M29.1073 4.46897L28.0315 3.50008C27.6793 3.16675 27.0336 3.2223 26.6227 3.66675L20.753 9.2223V7.05564C20.753 4.61119 18.6986 2.66675 16.116 2.66675H15.9986C13.4159 2.66675 11.3615 4.61119 11.3615 7.05564V15.1112C11.3615 15.9445 11.5963 16.7779 12.0659 17.4445L10.0115 19.389C9.01361 18.2223 8.42664 16.7223 8.42664 15.1112V12.889C8.42664 12.1112 7.78097 11.5556 6.95921 11.5556C6.13746 11.5556 5.49179 12.1112 5.49179 12.889V15.1112C5.49179 17.5001 6.43094 19.6667 7.95706 21.3334L3.02651 26.0001C2.61563 26.389 2.55694 27.0001 2.85042 27.3334L3.74574 28.3668C4.09793 28.7001 4.74359 28.6446 5.15447 28.2001L28.9312 5.8023C29.4007 5.41341 29.4594 4.8023 29.1073 4.46897ZM23.6879 14.4445V15.1112C23.6879 19.0001 20.2834 22.2223 16.0573 22.2223H15.529L13.2398 24.5001C13.7094 24.6112 14.2963 24.7223 14.8833 24.8334V26.5556H12.2419C11.4202 26.5556 10.7745 27.1667 10.7745 27.9445C10.7745 28.7223 11.4202 29.3334 12.2419 29.3334H19.9313C20.753 29.3334 21.3987 28.7223 21.3987 27.9445C21.3987 27.1667 20.6943 26.5556 19.8726 26.5556H17.2312V24.7779C22.5139 24.1112 26.6227 20.0001 26.6227 15.1112V12.889C26.6227 12.5556 26.4466 12.2223 26.2705 12.0001L23.6879 14.4445Z" fill="#9393AA"/>
</svg>
