<svg width="22" height="22" viewBox="0 0 22 22" fill="none" xmlns="http://www.w3.org/2000/svg">
    <path fill-rule="evenodd" clip-rule="evenodd" d="M3.66602 3.66667C3.66602 3.16041 4.07642 2.75 4.58268 2.75H17.416C17.9223 2.75 18.3327 3.16041 18.3327 3.66667V18.3333C18.3327 19.8521 17.1015 21.0833 15.5827 21.0833H6.41602C4.89723 21.0833 3.66602 19.8521 3.66602 18.3333V3.66667ZM5.49935 4.58333V18.3333C5.49935 18.8396 5.90975 19.25 6.41602 19.25H15.5827C16.0889 19.25 16.4993 18.8396 16.4993 18.3333V4.58333H5.49935Z" fill="#3093BB"/>
    <path fill-rule="evenodd" clip-rule="evenodd" d="M14.4375 10.9993H7.5625V9.16602H14.4375V10.9993Z" fill="#3093BB"/>
    <path fill-rule="evenodd" clip-rule="evenodd" d="M14.4375 15.1243H7.5625V13.291H14.4375V15.1243Z" fill="#3093BB"/>
    <path fill-rule="evenodd" clip-rule="evenodd" d="M13.75 5.95801V1.83301H15.5833V5.95801H13.75Z" fill="#3093BB"/>
    <path fill-rule="evenodd" clip-rule="evenodd" d="M10.082 5.95801V1.83301H11.9154V5.95801H10.082Z" fill="#3093BB"/>
    <path fill-rule="evenodd" clip-rule="evenodd" d="M6.41602 5.95801V1.83301H8.24935V5.95801H6.41602Z" fill="#3093BB"/>
    </svg>