<svg
                  className="personal_profile_btn_icon"
                  width="18"
                  height="19"
                  viewBox="0 0 18 19"
                  fill="none"
                  xmlns="http://www.w3.org/2000/svg"
                >
                  <path
                    fill-rule="evenodd"
                    clip-rule="evenodd"
                    d="M11.7434 1.07709C12.0689 0.751649 12.5965 0.751649 12.922 1.07709L15.422 3.57709C15.7474 3.90252 15.7474 4.43016 15.422 4.7556L5.42196 14.7556C5.31516 14.8624 5.18134 14.9382 5.03481 14.9748L1.70148 15.8081C1.4175 15.8791 1.11709 15.7959 0.910111 15.5889C0.703127 15.3819 0.61992 15.0815 0.690915 14.7976L1.52425 11.4642C1.56088 11.3177 1.63665 11.1839 1.74344 11.0771L11.7434 1.07709ZM3.08517 12.0924L2.64467 13.8544L4.40666 13.4139L13.6542 4.16634L12.3327 2.84485L3.08517 12.0924Z"
                    fill="#3093BB"
                  />
                  <path
                    fill-rule="evenodd"
                    clip-rule="evenodd"
                    d="M17.3327 18.3327H0.666016V16.666H17.3327V18.3327Z"
                    fill="#3093BB"
                  />
                </svg>