<svg width="167" height="76" viewBox="0 0 167 76" fill="none" xmlns="http://www.w3.org/2000/svg">
<g filter="url(#filter0_d_1051_9111)">
<path d="M61.6993 42.2157C59.7304 42.2157 57.9231 43.2157 56.609 44.6819C52.033 49.7876 45.3882 53 37.9934 53C24.1899 53 13 41.8071 13 28C13 14.1929 24.1899 3 37.9934 3C45.7449 3 52.6722 6.52969 57.2565 12.0699C58.5753 13.6636 60.4575 14.7647 62.5261 14.7647H140.278C147.857 14.7647 154 20.9098 154 28.4902C154 36.0706 147.857 42.2157 140.278 42.2157H61.6993Z" fill="url(#paint0_linear_1051_9111)"/>
</g>
<path d="M59.5731 34V23.425H64.0581C65.1881 23.425 66.0531 23.7 66.6531 24.25C67.2631 24.79 67.5681 25.54 67.5681 26.5C67.5681 27.46 67.2631 28.215 66.6531 28.765C66.0531 29.315 65.1881 29.59 64.0581 29.59H61.1331V34H59.5731ZM61.1331 28.345H63.8931C64.6031 28.345 65.1381 28.185 65.4981 27.865C65.8581 27.545 66.0381 27.09 66.0381 26.5C66.0381 25.92 65.8581 25.47 65.4981 25.15C65.1381 24.83 64.6031 24.67 63.8931 24.67H61.1331V28.345ZM69.1347 34V28.315C69.1347 28.005 69.1247 27.695 69.1047 27.385C69.0947 27.065 69.0747 26.75 69.0447 26.44H70.5147L70.6797 28.39H70.4397C70.5397 27.92 70.7097 27.53 70.9497 27.22C71.1897 26.91 71.4797 26.68 71.8197 26.53C72.1697 26.38 72.5347 26.305 72.9147 26.305C73.0747 26.305 73.2097 26.315 73.3197 26.335C73.4297 26.345 73.5397 26.365 73.6497 26.395L73.6347 27.745C73.4647 27.675 73.3147 27.635 73.1847 27.625C73.0647 27.605 72.9147 27.595 72.7347 27.595C72.2947 27.595 71.9197 27.695 71.6097 27.895C71.2997 28.085 71.0647 28.345 70.9047 28.675C70.7447 29.005 70.6647 29.36 70.6647 29.74V34H69.1347ZM78.2114 34.135C76.9914 34.135 76.0314 33.79 75.3314 33.1C74.6314 32.41 74.2814 31.455 74.2814 30.235C74.2814 29.445 74.4314 28.755 74.7314 28.165C75.0414 27.575 75.4664 27.12 76.0064 26.8C76.5564 26.47 77.1914 26.305 77.9114 26.305C78.6214 26.305 79.2164 26.455 79.6964 26.755C80.1764 27.055 80.5414 27.48 80.7914 28.03C81.0414 28.57 81.1664 29.21 81.1664 29.95V30.43H75.4664V29.56H80.1314L79.8764 29.755C79.8764 29.005 79.7064 28.425 79.3664 28.015C79.0364 27.595 78.5564 27.385 77.9264 27.385C77.2264 27.385 76.6864 27.63 76.3064 28.12C75.9264 28.6 75.7364 29.265 75.7364 30.115V30.265C75.7364 31.155 75.9514 31.825 76.3814 32.275C76.8214 32.725 77.4414 32.95 78.2414 32.95C78.6814 32.95 79.0914 32.89 79.4714 32.77C79.8614 32.64 80.2314 32.43 80.5814 32.14L81.0764 33.175C80.7264 33.485 80.3014 33.725 79.8014 33.895C79.3014 34.055 78.7714 34.135 78.2114 34.135ZM85.4999 34.135C84.8699 34.135 84.2899 34.055 83.7599 33.895C83.2299 33.735 82.7899 33.51 82.4399 33.22L82.9049 32.185C83.2749 32.465 83.6849 32.675 84.1349 32.815C84.5849 32.955 85.0449 33.025 85.5149 33.025C86.0649 33.025 86.4799 32.93 86.7599 32.74C87.0399 32.54 87.1799 32.27 87.1799 31.93C87.1799 31.67 87.0899 31.46 86.9099 31.3C86.7399 31.14 86.4549 31.02 86.0549 30.94L84.6149 30.655C83.9749 30.515 83.4899 30.275 83.1599 29.935C82.8299 29.595 82.6649 29.16 82.6649 28.63C82.6649 28.18 82.7849 27.78 83.0249 27.43C83.2749 27.08 83.6249 26.805 84.0749 26.605C84.5349 26.405 85.0699 26.305 85.6799 26.305C86.2399 26.305 86.7599 26.385 87.2399 26.545C87.7199 26.705 88.1199 26.935 88.4399 27.235L87.9599 28.24C87.6499 27.98 87.2999 27.78 86.9099 27.64C86.5199 27.49 86.1249 27.415 85.7249 27.415C85.1649 27.415 84.7499 27.52 84.4799 27.73C84.2099 27.94 84.0749 28.215 84.0749 28.555C84.0749 28.815 84.1549 29.03 84.3149 29.2C84.4849 29.36 84.7499 29.485 85.1099 29.575L86.5499 29.86C87.2299 30 87.7399 30.23 88.0799 30.55C88.4199 30.87 88.5899 31.3 88.5899 31.84C88.5899 32.31 88.4599 32.72 88.1999 33.07C87.9399 33.42 87.5799 33.685 87.1199 33.865C86.6599 34.045 86.1199 34.135 85.4999 34.135ZM93.6906 34.135C92.9306 34.135 92.2656 33.98 91.6956 33.67C91.1356 33.35 90.7006 32.895 90.3906 32.305C90.0906 31.705 89.9406 30.995 89.9406 30.175C89.9406 29.365 90.0956 28.67 90.4056 28.09C90.7156 27.51 91.1506 27.07 91.7106 26.77C92.2706 26.46 92.9306 26.305 93.6906 26.305C94.1806 26.305 94.6556 26.39 95.1156 26.56C95.5756 26.72 95.9556 26.95 96.2556 27.25L95.7606 28.315C95.4806 28.045 95.1656 27.845 94.8156 27.715C94.4656 27.575 94.1256 27.505 93.7956 27.505C93.0756 27.505 92.5106 27.735 92.1006 28.195C91.6906 28.655 91.4856 29.32 91.4856 30.19C91.4856 31.07 91.6906 31.745 92.1006 32.215C92.5106 32.685 93.0756 32.92 93.7956 32.92C94.1156 32.92 94.4506 32.86 94.8006 32.74C95.1506 32.61 95.4706 32.405 95.7606 32.125L96.2556 33.19C95.9456 33.49 95.5556 33.725 95.0856 33.895C94.6256 34.055 94.1606 34.135 93.6906 34.135ZM97.831 34V28.315C97.831 28.005 97.821 27.695 97.801 27.385C97.791 27.065 97.771 26.75 97.741 26.44H99.211L99.376 28.39H99.136C99.236 27.92 99.406 27.53 99.646 27.22C99.886 26.91 100.176 26.68 100.516 26.53C100.866 26.38 101.231 26.305 101.611 26.305C101.771 26.305 101.906 26.315 102.016 26.335C102.126 26.345 102.236 26.365 102.346 26.395L102.331 27.745C102.161 27.675 102.011 27.635 101.881 27.625C101.761 27.605 101.611 27.595 101.431 27.595C100.991 27.595 100.616 27.695 100.306 27.895C99.996 28.085 99.761 28.345 99.601 28.675C99.441 29.005 99.361 29.36 99.361 29.74V34H97.831ZM103.515 34V26.44H105.03V34H103.515ZM103.395 24.865V23.29H105.15V24.865H103.395ZM107.251 37.24V28.255C107.251 27.965 107.236 27.67 107.206 27.37C107.186 27.06 107.161 26.75 107.131 26.44H108.601L108.751 28.15H108.586C108.746 27.58 109.066 27.13 109.546 26.8C110.036 26.47 110.616 26.305 111.286 26.305C111.956 26.305 112.541 26.465 113.041 26.785C113.541 27.095 113.926 27.54 114.196 28.12C114.476 28.7 114.616 29.4 114.616 30.22C114.616 31.03 114.476 31.73 114.196 32.32C113.926 32.91 113.541 33.36 113.041 33.67C112.541 33.98 111.956 34.135 111.286 34.135C110.626 34.135 110.051 33.975 109.561 33.655C109.081 33.325 108.761 32.88 108.601 32.32H108.766V37.24H107.251ZM110.911 32.95C111.571 32.95 112.096 32.72 112.486 32.26C112.886 31.8 113.086 31.12 113.086 30.22C113.086 29.32 112.886 28.645 112.486 28.195C112.096 27.735 111.571 27.505 110.911 27.505C110.251 27.505 109.721 27.735 109.321 28.195C108.931 28.645 108.736 29.32 108.736 30.22C108.736 31.12 108.931 31.8 109.321 32.26C109.721 32.72 110.251 32.95 110.911 32.95ZM119.258 34.135C118.438 34.135 117.818 33.915 117.398 33.475C116.978 33.025 116.768 32.355 116.768 31.465V27.61H115.298V26.44H116.768V24.445L118.283 24.04V26.44H120.383V27.61H118.283V31.33C118.283 31.89 118.383 32.29 118.583 32.53C118.783 32.77 119.073 32.89 119.453 32.89C119.643 32.89 119.808 32.875 119.948 32.845C120.098 32.805 120.233 32.76 120.353 32.71V33.94C120.203 34 120.028 34.045 119.828 34.075C119.628 34.115 119.438 34.135 119.258 34.135ZM121.767 34V26.44H123.282V34H121.767ZM121.647 24.865V23.29H123.402V24.865H121.647ZM128.743 34.135C127.993 34.135 127.343 33.98 126.793 33.67C126.243 33.35 125.818 32.9 125.518 32.32C125.218 31.73 125.068 31.03 125.068 30.22C125.068 29.41 125.218 28.715 125.518 28.135C125.818 27.545 126.243 27.095 126.793 26.785C127.343 26.465 127.993 26.305 128.743 26.305C129.493 26.305 130.143 26.465 130.693 26.785C131.253 27.095 131.683 27.545 131.983 28.135C132.293 28.715 132.448 29.41 132.448 30.22C132.448 31.03 132.293 31.73 131.983 32.32C131.683 32.9 131.253 33.35 130.693 33.67C130.143 33.98 129.493 34.135 128.743 34.135ZM128.743 32.95C129.403 32.95 129.928 32.72 130.318 32.26C130.708 31.8 130.903 31.12 130.903 30.22C130.903 29.32 130.708 28.645 130.318 28.195C129.928 27.735 129.403 27.505 128.743 27.505C128.093 27.505 127.573 27.735 127.183 28.195C126.793 28.645 126.598 29.32 126.598 30.22C126.598 31.12 126.788 31.8 127.168 32.26C127.558 32.72 128.083 32.95 128.743 32.95ZM134.218 34V28.255C134.218 27.965 134.203 27.67 134.173 27.37C134.153 27.06 134.128 26.75 134.098 26.44H135.568L135.703 28.03H135.523C135.753 27.47 136.108 27.045 136.588 26.755C137.068 26.455 137.623 26.305 138.253 26.305C139.143 26.305 139.813 26.55 140.263 27.04C140.723 27.53 140.953 28.29 140.953 29.32V34H139.438V29.41C139.438 28.74 139.303 28.26 139.033 27.97C138.773 27.67 138.373 27.52 137.833 27.52C137.193 27.52 136.683 27.72 136.303 28.12C135.923 28.51 135.733 29.04 135.733 29.71V34H134.218Z" fill="white"/>
<path d="M38 21V35" stroke="white" stroke-width="3" stroke-linecap="round" stroke-linejoin="round"/>
<path d="M31 28H45" stroke="white" stroke-width="3" stroke-linecap="round" stroke-linejoin="round"/>
<defs>
<filter id="filter0_d_1051_9111" x="0" y="0" width="167" height="76" filterUnits="userSpaceOnUse" color-interpolation-filters="sRGB">
<feFlood flood-opacity="0" result="BackgroundImageFix"/>
<feColorMatrix in="SourceAlpha" type="matrix" values="0 0 0 0 0 0 0 0 0 0 0 0 0 0 0 0 0 0 127 0" result="hardAlpha"/>
<feMorphology radius="5" operator="erode" in="SourceAlpha" result="effect1_dropShadow_1051_9111"/>
<feOffset dy="10"/>
<feGaussianBlur stdDeviation="9"/>
<feComposite in2="hardAlpha" operator="out"/>
<feColorMatrix type="matrix" values="0 0 0 0 0.021875 0 0 0 0 0.182062 0 0 0 0 0.75 0 0 0 0.25 0"/>
<feBlend mode="normal" in2="BackgroundImageFix" result="effect1_dropShadow_1051_9111"/>
<feBlend mode="normal" in="SourceGraphic" in2="effect1_dropShadow_1051_9111" result="shape"/>
</filter>
<linearGradient id="paint0_linear_1051_9111" x1="13" y1="53" x2="44.4999" y2="-35.8298" gradientUnits="userSpaceOnUse">
<stop stop-color="#3093BB"/>
<stop offset="1" stop-color="#82DBFF"/>
</linearGradient>
</defs>
</svg>
