<svg width="22" height="22" viewBox="0 0 22 22" fill="none" xmlns="http://www.w3.org/2000/svg">
    <path fill-rule="evenodd" clip-rule="evenodd" d="M17.8743 5.5C16.1024 5.5 14.666 6.93642 14.666 8.70833C14.666 10.4802 16.1024 11.9167 17.8743 11.9167C19.6463 11.9167 21.0827 10.4802 21.0827 8.70833C21.0827 6.93642 19.6463 5.5 17.8743 5.5Z" fill="#3093BB"/>
    <path fill-rule="evenodd" clip-rule="evenodd" d="M3.20768 3.66634C2.95455 3.66634 2.74935 3.87154 2.74935 4.12467V8.24967C2.74935 10.2747 4.39097 11.9163 6.41602 11.9163H7.33268C9.35773 11.9163 10.9993 10.2747 10.9993 8.24967V4.12467C10.9993 3.87154 10.7941 3.66634 10.541 3.66634H10.0827V1.83301H10.541C11.8067 1.83301 12.8327 2.85902 12.8327 4.12467V8.24967C12.8327 11.2872 10.3702 13.7497 7.33268 13.7497H6.41602C3.37845 13.7497 0.916016 11.2872 0.916016 8.24967V4.12467C0.916016 2.85902 1.94203 1.83301 3.20768 1.83301H3.66602V3.66634H3.20768Z" fill="#3093BB"/>
    <path fill-rule="evenodd" clip-rule="evenodd" d="M18.7904 11V17.875C18.7904 19.1407 17.7643 20.1667 16.4987 20.1667H8.2487C6.98305 20.1667 5.95703 19.1407 5.95703 17.875V12.8333H7.79036V17.875C7.79036 18.1281 7.99557 18.3333 8.2487 18.3333H16.4987C16.7518 18.3333 16.957 18.1281 16.957 17.875V11H18.7904Z" fill="#3093BB"/>
    </svg>