<svg width="22" height="22" viewBox="0 0 22 22" fill="none" xmlns="http://www.w3.org/2000/svg">
    <path fill-rule="evenodd" clip-rule="evenodd" d="M5.95898 3.20866C5.95898 1.94301 6.985 0.916992 8.25065 0.916992H13.7507C15.0163 0.916992 16.0423 1.94301 16.0423 3.20866C16.0423 4.47431 15.0163 5.50033 13.7507 5.50033H8.25065C6.985 5.50033 5.95898 4.47431 5.95898 3.20866ZM8.25065 2.75033C7.99752 2.75033 7.79232 2.95553 7.79232 3.20866C7.79232 3.46179 7.99752 3.66699 8.25065 3.66699H13.7507C14.0038 3.66699 14.209 3.46179 14.209 3.20866C14.209 2.95553 14.0038 2.75033 13.7507 2.75033H8.25065Z" fill="#9393AA"/>
    <path fill-rule="evenodd" clip-rule="evenodd" d="M7.33398 4.58366C7.33398 4.0774 7.74439 3.66699 8.25065 3.66699H13.7507C14.2569 3.66699 14.6673 4.0774 14.6673 4.58366V17.417C14.6673 19.442 13.0257 21.0837 11.0007 21.0837C8.97561 21.0837 7.33398 19.442 7.33398 17.417V4.58366ZM9.16732 5.50033V17.417C9.16732 18.4295 9.98813 19.2503 11.0007 19.2503C12.0132 19.2503 12.834 18.4295 12.834 17.417V5.50033H9.16732Z" fill="#9393AA"/>
    </svg>