<svg
                    className="profile_option_icon"
                    width="20"
                    height="22"
                    viewBox="0 0 20 22"
                    fill="none"
                    xmlns="http://www.w3.org/2000/svg"
                  >
                    <path
                      fill-rule="evenodd"
                      clip-rule="evenodd"
                      d="M9.99935 2.75033C7.72117 2.75033 5.87435 4.59715 5.87435 6.87533C5.87435 9.1535 7.72117 11.0003 9.99935 11.0003C12.2775 11.0003 14.1243 9.1535 14.1243 6.87533C14.1243 4.59715 12.2775 2.75033 9.99935 2.75033ZM4.04102 6.87533C4.04102 3.58463 6.70865 0.916992 9.99935 0.916992C13.29 0.916992 15.9577 3.58463 15.9577 6.87533C15.9577 10.166 13.29 12.8337 9.99935 12.8337C6.70865 12.8337 4.04102 10.166 4.04102 6.87533Z"
                      fill="#3093BB"
                    />
                    <path
                      fill-rule="evenodd"
                      clip-rule="evenodd"
                      d="M9.99988 12.8333C5.99865 12.8333 2.75026 15.3472 1.94531 18.573C1.90458 18.7362 1.94536 18.8783 2.06206 19.0043C2.18981 19.1422 2.40734 19.25 2.66655 19.25H17.3332C17.5924 19.25 17.81 19.1422 17.9377 19.0043C18.0544 18.8783 18.0952 18.7362 18.0545 18.573C17.2495 15.3472 14.0011 12.8333 9.99988 12.8333ZM0.166521 18.1291C1.19959 13.9892 5.2621 11 9.99988 11C14.7377 11 18.8002 13.9892 19.8332 18.1291C20.2618 19.8465 18.7697 21.0833 17.3332 21.0833H2.66655C1.23008 21.0833 -0.262015 19.8465 0.166521 18.1291Z"
                      fill="#3093BB"
                    />
                  </svg>